<svg version="1.1" viewBox="0.0 0.0 654.0288713910761 457.4540682414698" fill="none" stroke="none" stroke-linecap="square" stroke-miterlimit="10" xmlns:xlink="http://www.w3.org/1999/xlink" xmlns="http://www.w3.org/2000/svg"><clipPath id="p.0"><path d="m0 0l654.0289 0l0 457.45407l-654.0289 0l0 -457.45407z" clip-rule="nonzero"/></clipPath><g clip-path="url(#p.0)"><path fill="#ffffff" d="m0 0l654.0289 0l0 457.45407l-654.0289 0z" fill-rule="evenodd"/><path fill="#aff49d" d="m21.868767 82.743835l0 0c0 -29.539848 23.946781 -53.486633 53.486633 -53.486633l213.94012 0l0 0c14.185516 0 27.79007 5.6351833 37.82074 15.665873c10.030701 10.030689 15.665894 23.635227 15.665894 37.82076l0 281.1527c0 29.539856 -23.946808 53.486633 -53.486633 53.486633l-213.94012 0c-29.539852 0 -53.486633 -23.946777 -53.486633 -53.486633z" fill-rule="evenodd"/><path stroke="#000000" stroke-width="1.0" stroke-linejoin="round" stroke-linecap="butt" d="m21.868767 82.743835l0 0c0 -29.539848 23.946781 -53.486633 53.486633 -53.486633l213.94012 0l0 0c14.185516 0 27.79007 5.6351833 37.82074 15.665873c10.030701 10.030689 15.665894 23.635227 15.665894 37.82076l0 281.1527c0 29.539856 -23.946808 53.486633 -53.486633 53.486633l-213.94012 0c-29.539852 0 -53.486633 -23.946777 -53.486633 -53.486633z" fill-rule="evenodd"/><path fill="#ed9d5c" d="m417.46982 82.9712l0 0c0 12.659103 47.591766 22.92134 106.299225 22.92134c58.707397 0 106.299194 -10.262238 106.299194 -22.92134l0 95.98411c0 12.659103 -47.591797 22.92134 -106.299194 22.92134c-58.70746 0 -106.299225 -10.262238 -106.299225 -22.92134z" fill-rule="evenodd"/><path fill="#f4c49d" d="m417.46982 82.9712l0 0c0 -12.659103 47.591766 -22.92133 106.299225 -22.92133c58.707397 0 106.299194 10.262226 106.299194 22.92133l0 0c0 12.659103 -47.591797 22.92134 -106.299194 22.92134c-58.70746 0 -106.299225 -10.262238 -106.299225 -22.92134z" fill-rule="evenodd"/><path fill="#000000" fill-opacity="0.0" d="m630.06824 82.9712l0 0c0 12.659103 -47.591797 22.92134 -106.299194 22.92134c-58.70746 0 -106.299225 -10.262238 -106.299225 -22.92134l0 0c0 -12.659103 47.591766 -22.92133 106.299225 -22.92133c58.707397 0 106.299194 10.262226 106.299194 22.92133l0 95.98411c0 12.659103 -47.591797 22.92134 -106.299194 22.92134c-58.70746 0 -106.299225 -10.262238 -106.299225 -22.92134l0 -95.98411" fill-rule="evenodd"/><path stroke="#000000" stroke-width="1.0" stroke-linejoin="round" stroke-linecap="butt" d="m630.06824 82.9712l0 0c0 12.659103 -47.591797 22.92134 -106.299194 22.92134c-58.70746 0 -106.299225 -10.262238 -106.299225 -22.92134l0 0c0 -12.659103 47.591766 -22.92133 106.299225 -22.92133c58.707397 0 106.299194 10.262226 106.299194 22.92133l0 95.98411c0 12.659103 -47.591797 22.92134 -106.299194 22.92134c-58.70746 0 -106.299225 -10.262238 -106.299225 -22.92134l0 -95.98411" fill-rule="evenodd"/><path fill="#000000" fill-opacity="0.0" d="m233.59448 195.93916l100.66144 0l0 38.582672l-100.66144 0z" fill-rule="evenodd"/><path fill="#000000" d="m243.07886 212.72603l0.953125 -0.078125q0.0625 0.5625 0.3125 0.9375q0.25 0.359375 0.765625 0.59375q0.515625 0.21875 1.171875 0.21875q0.578125 0 1.015625 -0.171875q0.4375 -0.171875 0.65625 -0.46875q0.21875 -0.296875 0.21875 -0.65625q0 -0.359375 -0.21875 -0.625q-0.203125 -0.265625 -0.671875 -0.4375q-0.3125 -0.125 -1.359375 -0.375q-1.046875 -0.25 -1.46875 -0.484375q-0.546875 -0.28125 -0.828125 -0.703125q-0.265625 -0.421875 -0.265625 -0.953125q0 -0.578125 0.328125 -1.078125q0.328125 -0.5 0.953125 -0.765625q0.640625 -0.265625 1.40625 -0.265625q0.84375 0 1.484375 0.28125q0.65625 0.265625 1.0 0.796875q0.359375 0.53125 0.390625 1.203125l-0.96875 0.078125q-0.078125 -0.71875 -0.53125 -1.09375q-0.453125 -0.375 -1.328125 -0.375q-0.921875 0 -1.34375 0.34375q-0.40625 0.328125 -0.40625 0.8125q0 0.40625 0.296875 0.671875q0.28125 0.265625 1.515625 0.546875q1.234375 0.28125 1.6875 0.484375q0.671875 0.3125 0.984375 0.78125q0.3125 0.46875 0.3125 1.078125q0 0.609375 -0.34375 1.15625q-0.34375 0.53125 -1.0 0.828125q-0.65625 0.296875 -1.46875 0.296875q-1.046875 0 -1.75 -0.296875q-0.6875 -0.296875 -1.09375 -0.90625q-0.390625 -0.609375 -0.40625 -1.375zm11.1076355 0.671875l0.96875 0.125q-0.234375 0.84375 -0.859375 1.3125q-0.609375 0.46875 -1.578125 0.46875q-1.203125 0 -1.921875 -0.75q-0.703125 -0.75 -0.703125 -2.09375q0 -1.390625 0.71875 -2.15625q0.71875 -0.78125 1.859375 -0.78125q1.109375 0 1.8125 0.765625q0.703125 0.75 0.703125 2.125q0 0.078125 0 0.234375l-4.125 0q0.046875 0.921875 0.515625 1.40625q0.46875 0.484375 1.15625 0.484375q0.515625 0 0.875 -0.265625q0.359375 -0.28125 0.578125 -0.875zm-3.078125 -1.515625l3.09375 0q-0.0625 -0.6875 -0.359375 -1.046875q-0.453125 -0.53125 -1.15625 -0.53125q-0.640625 0 -1.09375 0.4375q-0.4375 0.421875 -0.484375 1.140625zm8.832764 2.609375q-0.53125 0.453125 -1.015625 0.640625q-0.46875 0.171875 -1.015625 0.171875q-0.921875 0 -1.40625 -0.4375q-0.484375 -0.453125 -0.484375 -1.140625q0 -0.40625 0.171875 -0.734375q0.1875 -0.34375 0.484375 -0.546875q0.3125 -0.203125 0.6875 -0.3125q0.265625 -0.0625 0.828125 -0.140625q1.125 -0.125 1.671875 -0.3125q0 -0.203125 0 -0.25q0 -0.578125 -0.265625 -0.8125q-0.359375 -0.3125 -1.0625 -0.3125q-0.65625 0 -0.984375 0.234375q-0.3125 0.234375 -0.453125 0.8125l-0.921875 -0.125q0.125 -0.578125 0.40625 -0.9375q0.296875 -0.375 0.828125 -0.5625q0.546875 -0.203125 1.25 -0.203125q0.71875 0 1.15625 0.171875q0.4375 0.171875 0.640625 0.421875q0.21875 0.25 0.296875 0.640625q0.046875 0.234375 0.046875 0.859375l0 1.25q0 1.296875 0.0625 1.65625q0.0625 0.34375 0.234375 0.65625l-0.96875 0q-0.15625 -0.296875 -0.1875 -0.6875zm-0.078125 -2.078125q-0.515625 0.203125 -1.53125 0.34375q-0.578125 0.078125 -0.828125 0.1875q-0.234375 0.109375 -0.359375 0.3125q-0.125 0.1875 -0.125 0.4375q0 0.375 0.28125 0.625q0.28125 0.25 0.828125 0.25q0.53125 0 0.953125 -0.234375q0.421875 -0.234375 0.625 -0.65625q0.15625 -0.3125 0.15625 -0.9375l0 -0.328125zm2.3796082 2.765625l0 -5.53125l0.84375 0l0 0.84375q0.328125 -0.59375 0.59375 -0.78125q0.28125 -0.1875 0.609375 -0.1875q0.46875 0 0.953125 0.3125l-0.3125 0.859375q-0.34375 -0.203125 -0.6875 -0.203125q-0.3125 0 -0.5625 0.1875q-0.234375 0.1875 -0.34375 0.515625q-0.15625 0.5 -0.15625 1.09375l0 2.890625l-0.9375 0zm7.1736145 -2.03125l0.921875 0.125q-0.15625 0.953125 -0.78125 1.5q-0.625 0.53125 -1.53125 0.53125q-1.125 0 -1.8125 -0.734375q-0.6875 -0.75 -0.6875 -2.125q0 -0.90625 0.296875 -1.578125q0.296875 -0.671875 0.890625 -1.0q0.609375 -0.34375 1.328125 -0.34375q0.890625 0 1.46875 0.46875q0.578125 0.453125 0.734375 1.28125l-0.90625 0.140625q-0.140625 -0.546875 -0.46875 -0.828125q-0.328125 -0.28125 -0.796875 -0.28125q-0.703125 0 -1.15625 0.515625q-0.4375 0.5 -0.4375 1.59375q0 1.109375 0.421875 1.625q0.4375 0.5 1.125 0.5q0.546875 0 0.90625 -0.34375q0.375 -0.34375 0.484375 -1.046875zm1.71875 2.03125l0 -7.625l0.9375 0l0 2.734375q0.65625 -0.765625 1.65625 -0.765625q0.609375 0 1.0625 0.25q0.453125 0.234375 0.640625 0.671875q0.203125 0.421875 0.203125 1.234375l0 3.5l-0.9375 0l0 -3.5q0 -0.703125 -0.3125 -1.015625q-0.296875 -0.328125 -0.859375 -0.328125q-0.40625 0 -0.78125 0.21875q-0.359375 0.21875 -0.515625 0.59375q-0.15625 0.359375 -0.15625 1.015625l0 3.015625l-0.9375 0zm8.871521 0l0 -5.53125l0.84375 0l0 0.84375q0.328125 -0.59375 0.59375 -0.78125q0.28125 -0.1875 0.609375 -0.1875q0.46875 0 0.953125 0.3125l-0.3125 0.859375q-0.34375 -0.203125 -0.6875 -0.203125q-0.3125 0 -0.5625 0.1875q-0.234375 0.1875 -0.34375 0.515625q-0.15625 0.5 -0.15625 1.09375l0 2.890625l-0.9375 0zm7.3454895 -1.78125l0.96875 0.125q-0.234375 0.84375 -0.859375 1.3125q-0.609375 0.46875 -1.578125 0.46875q-1.203125 0 -1.921875 -0.75q-0.703125 -0.75 -0.703125 -2.09375q0 -1.390625 0.71875 -2.15625q0.71875 -0.78125 1.859375 -0.78125q1.109375 0 1.8125 0.765625q0.703125 0.75 0.703125 2.125q0 0.078125 0 0.234375l-4.125 0q0.046875 0.921875 0.515625 1.40625q0.46875 0.484375 1.15625 0.484375q0.515625 0 0.875 -0.265625q0.359375 -0.28125 0.578125 -0.875zm-3.078125 -1.515625l3.09375 0q-0.0625 -0.6875 -0.359375 -1.046875q-0.453125 -0.53125 -1.15625 -0.53125q-0.640625 0 -1.09375 0.4375q-0.4375 0.421875 -0.484375 1.140625zm4.8483887 1.640625l0.921875 -0.140625q0.078125 0.5625 0.4375 0.859375q0.359375 0.296875 1.0 0.296875q0.640625 0 0.953125 -0.265625q0.3125 -0.265625 0.3125 -0.625q0 -0.3125 -0.28125 -0.5q-0.1875 -0.125 -0.953125 -0.3125q-1.03125 -0.265625 -1.4375 -0.453125q-0.390625 -0.1875 -0.59375 -0.515625q-0.203125 -0.34375 -0.203125 -0.75q0 -0.359375 0.171875 -0.671875q0.171875 -0.328125 0.453125 -0.53125q0.21875 -0.15625 0.59375 -0.265625q0.390625 -0.125 0.8125 -0.125q0.65625 0 1.140625 0.1875q0.5 0.1875 0.734375 0.515625q0.234375 0.3125 0.3125 0.859375l-0.90625 0.125q-0.0625 -0.4375 -0.375 -0.671875q-0.296875 -0.234375 -0.828125 -0.234375q-0.65625 0 -0.9375 0.21875q-0.265625 0.203125 -0.265625 0.484375q0 0.1875 0.109375 0.328125q0.125 0.15625 0.359375 0.25q0.140625 0.0625 0.828125 0.25q1.0 0.265625 1.390625 0.4375q0.390625 0.15625 0.609375 0.484375q0.234375 0.3125 0.234375 0.796875q0 0.46875 -0.28125 0.890625q-0.265625 0.40625 -0.78125 0.640625q-0.515625 0.21875 -1.171875 0.21875q-1.078125 0 -1.640625 -0.4375q-0.5625 -0.453125 -0.71875 -1.34375zm9.328125 1.65625l0 -0.8125q-0.65625 0.9375 -1.75 0.9375q-0.5 0 -0.921875 -0.1875q-0.421875 -0.1875 -0.625 -0.46875q-0.203125 -0.28125 -0.296875 -0.703125q-0.046875 -0.265625 -0.046875 -0.875l0 -3.421875l0.9375 0l0 3.0625q0 0.734375 0.046875 1.0q0.09375 0.359375 0.375 0.578125q0.296875 0.203125 0.703125 0.203125q0.421875 0 0.796875 -0.203125q0.375 -0.21875 0.515625 -0.59375q0.15625 -0.375 0.15625 -1.078125l0 -2.96875l0.9375 0l0 5.53125l-0.828125 0zm2.2858582 0l0 -7.625l0.9375 0l0 7.625l-0.9375 0zm4.4299927 -0.84375l0.125 0.828125q-0.390625 0.09375 -0.703125 0.09375q-0.5 0 -0.78125 -0.15625q-0.28125 -0.171875 -0.40625 -0.4375q-0.109375 -0.265625 -0.109375 -1.109375l0 -3.171875l-0.6875 0l0 -0.734375l0.6875 0l0 -1.359375l0.9375 -0.5625l0 1.921875l0.9375 0l0 0.734375l-0.9375 0l0 3.234375q0 0.390625 0.046875 0.515625q0.046875 0.109375 0.15625 0.1875q0.109375 0.0625 0.328125 0.0625q0.15625 0 0.40625 -0.046875zm0.5387573 -0.8125l0.921875 -0.140625q0.078125 0.5625 0.4375 0.859375q0.359375 0.296875 1.0 0.296875q0.640625 0 0.953125 -0.265625q0.3125 -0.265625 0.3125 -0.625q0 -0.3125 -0.28125 -0.5q-0.1875 -0.125 -0.953125 -0.3125q-1.03125 -0.265625 -1.4375 -0.453125q-0.390625 -0.1875 -0.59375 -0.515625q-0.203125 -0.34375 -0.203125 -0.75q0 -0.359375 0.171875 -0.671875q0.171875 -0.328125 0.453125 -0.53125q0.21875 -0.15625 0.59375 -0.265625q0.390625 -0.125 0.8125 -0.125q0.65625 0 1.140625 0.1875q0.5 0.1875 0.734375 0.515625q0.234375 0.3125 0.3125 0.859375l-0.90625 0.125q-0.0625 -0.4375 -0.375 -0.671875q-0.296875 -0.234375 -0.828125 -0.234375q-0.65625 0 -0.9375 0.21875q-0.265625 0.203125 -0.265625 0.484375q0 0.1875 0.109375 0.328125q0.125 0.15625 0.359375 0.25q0.140625 0.0625 0.828125 0.25q1.0 0.265625 1.390625 0.4375q0.390625 0.15625 0.609375 0.484375q0.234375 0.3125 0.234375 0.796875q0 0.46875 -0.28125 0.890625q-0.265625 0.40625 -0.78125 0.640625q-0.515625 0.21875 -1.171875 0.21875q-1.078125 0 -1.640625 -0.4375q-0.5625 -0.453125 -0.71875 -1.34375z" fill-rule="nonzero"/><path fill="#000000" fill-opacity="0.0" d="m345.96063 120.45407l79.968506 0l0 45.259842l-79.968506 0z" fill-rule="evenodd"/><path fill="#000000" d="m355.80438 139.69406l0 -7.625l5.515625 0l0 0.890625l-4.5 0l0 2.34375l4.21875 0l0 0.890625l-4.21875 0l0 2.59375l4.671875 0l0 0.90625l-5.6875 0zm6.9670105 0l0 -5.53125l0.84375 0l0 0.796875q0.609375 -0.921875 1.75 -0.921875q0.5 0 0.921875 0.1875q0.421875 0.171875 0.625 0.46875q0.21875 0.296875 0.296875 0.6875q0.046875 0.265625 0.046875 0.921875l0 3.390625l-0.9375 0l0 -3.359375q0 -0.578125 -0.109375 -0.859375q-0.109375 -0.28125 -0.390625 -0.453125q-0.265625 -0.171875 -0.640625 -0.171875q-0.59375 0 -1.03125 0.390625q-0.4375 0.375 -0.4375 1.4375l0 3.015625l-0.9375 0zm7.973358 -0.84375l0.125 0.828125q-0.390625 0.09375 -0.703125 0.09375q-0.5 0 -0.78125 -0.15625q-0.28125 -0.171875 -0.40625 -0.4375q-0.109375 -0.265625 -0.109375 -1.109375l0 -3.171875l-0.6875 0l0 -0.734375l0.6875 0l0 -1.359375l0.9375 -0.5625l0 1.921875l0.9375 0l0 0.734375l-0.9375 0l0 3.234375q0 0.390625 0.046875 0.515625q0.046875 0.109375 0.15625 0.1875q0.109375 0.0625 0.328125 0.0625q0.15625 0 0.40625 -0.046875zm0.91378784 -5.703125l0 -1.078125l0.9375 0l0 1.078125l-0.9375 0zm0 6.546875l0 -5.53125l0.9375 0l0 5.53125l-0.9375 0zm4.414337 -0.84375l0.125 0.828125q-0.390625 0.09375 -0.703125 0.09375q-0.5 0 -0.78125 -0.15625q-0.28125 -0.171875 -0.40625 -0.4375q-0.109375 -0.265625 -0.109375 -1.109375l0 -3.171875l-0.6875 0l0 -0.734375l0.6875 0l0 -1.359375l0.9375 -0.5625l0 1.921875l0.9375 0l0 0.734375l-0.9375 0l0 3.234375q0 0.390625 0.046875 0.515625q0.046875 0.109375 0.15625 0.1875q0.109375 0.0625 0.328125 0.0625q0.15625 0 0.40625 -0.046875zm0.86691284 2.96875l-0.09375 -0.875q0.296875 0.078125 0.53125 0.078125q0.3125 0 0.5 -0.109375q0.1875 -0.09375 0.3125 -0.28125q0.078125 -0.140625 0.28125 -0.703125q0.03125 -0.078125 0.078125 -0.21875l-2.09375 -5.546875l1.015625 0l1.140625 3.203125q0.234375 0.609375 0.40625 1.28125q0.15625 -0.640625 0.375 -1.265625l1.1875 -3.21875l0.9375 0l-2.109375 5.625q-0.328125 0.90625 -0.515625 1.25q-0.25 0.46875 -0.578125 0.6875q-0.3125 0.21875 -0.765625 0.21875q-0.265625 0 -0.609375 -0.125zm11.913757 -2.125l0 -0.703125q-0.515625 0.828125 -1.546875 0.828125q-0.65625 0 -1.21875 -0.359375q-0.546875 -0.375 -0.859375 -1.015625q-0.296875 -0.65625 -0.296875 -1.5q0 -0.828125 0.28125 -1.5q0.28125 -0.6875 0.828125 -1.046875q0.546875 -0.359375 1.234375 -0.359375q0.5 0 0.890625 0.21875q0.390625 0.203125 0.625 0.546875l0 -2.734375l0.9375 0l0 7.625l-0.875 0zm-2.953125 -2.75q0 1.046875 0.4375 1.578125q0.453125 0.53125 1.0625 0.53125q0.609375 0 1.03125 -0.5q0.4375 -0.515625 0.4375 -1.53125q0 -1.140625 -0.4375 -1.671875q-0.4375 -0.53125 -1.078125 -0.53125q-0.609375 0 -1.03125 0.515625q-0.421875 0.5 -0.421875 1.609375zm8.910889 2.0625q-0.53125 0.453125 -1.015625 0.640625q-0.46875 0.171875 -1.015625 0.171875q-0.921875 0 -1.40625 -0.4375q-0.484375 -0.453125 -0.484375 -1.140625q0 -0.40625 0.171875 -0.734375q0.1875 -0.34375 0.484375 -0.546875q0.3125 -0.203125 0.6875 -0.3125q0.265625 -0.0625 0.828125 -0.140625q1.125 -0.125 1.671875 -0.3125q0 -0.203125 0 -0.25q0 -0.578125 -0.265625 -0.8125q-0.359375 -0.3125 -1.0625 -0.3125q-0.65625 0 -0.984375 0.234375q-0.3125 0.234375 -0.453125 0.8125l-0.921875 -0.125q0.125 -0.578125 0.40625 -0.9375q0.296875 -0.375 0.828125 -0.5625q0.546875 -0.203125 1.25 -0.203125q0.71875 0 1.15625 0.171875q0.4375 0.171875 0.640625 0.421875q0.21875 0.25 0.296875 0.640625q0.046875 0.234375 0.046875 0.859375l0 1.25q0 1.296875 0.0625 1.65625q0.0625 0.34375 0.234375 0.65625l-0.96875 0q-0.15625 -0.296875 -0.1875 -0.6875zm-0.078125 -2.078125q-0.515625 0.203125 -1.53125 0.34375q-0.578125 0.078125 -0.828125 0.1875q-0.234375 0.109375 -0.359375 0.3125q-0.125 0.1875 -0.125 0.4375q0 0.375 0.28125 0.625q0.28125 0.25 0.828125 0.25q0.53125 0 0.953125 -0.234375q0.421875 -0.234375 0.625 -0.65625q0.15625 -0.3125 0.15625 -0.9375l0 -0.328125zm4.442108 1.921875l0.125 0.828125q-0.390625 0.09375 -0.703125 0.09375q-0.5 0 -0.78125 -0.15625q-0.28125 -0.171875 -0.40625 -0.4375q-0.109375 -0.265625 -0.109375 -1.109375l0 -3.171875l-0.6875 0l0 -0.734375l0.6875 0l0 -1.359375l0.9375 -0.5625l0 1.921875l0.9375 0l0 0.734375l-0.9375 0l0 3.234375q0 0.390625 0.046875 0.515625q0.046875 0.109375 0.15625 0.1875q0.109375 0.0625 0.328125 0.0625q0.15625 0 0.40625 -0.046875zm4.523163 0.15625q-0.53125 0.453125 -1.015625 0.640625q-0.46875 0.171875 -1.015625 0.171875q-0.921875 0 -1.40625 -0.4375q-0.484375 -0.453125 -0.484375 -1.140625q0 -0.40625 0.171875 -0.734375q0.1875 -0.34375 0.484375 -0.546875q0.3125 -0.203125 0.6875 -0.3125q0.265625 -0.0625 0.828125 -0.140625q1.125 -0.125 1.671875 -0.3125q0 -0.203125 0 -0.25q0 -0.578125 -0.265625 -0.8125q-0.359375 -0.3125 -1.0625 -0.3125q-0.65625 0 -0.984375 0.234375q-0.3125 0.234375 -0.453125 0.8125l-0.921875 -0.125q0.125 -0.578125 0.40625 -0.9375q0.296875 -0.375 0.828125 -0.5625q0.546875 -0.203125 1.25 -0.203125q0.71875 0 1.15625 0.171875q0.4375 0.171875 0.640625 0.421875q0.21875 0.25 0.296875 0.640625q0.046875 0.234375 0.046875 0.859375l0 1.25q0 1.296875 0.0625 1.65625q0.0625 0.34375 0.234375 0.65625l-0.96875 0q-0.15625 -0.296875 -0.1875 -0.6875zm-0.078125 -2.078125q-0.515625 0.203125 -1.53125 0.34375q-0.578125 0.078125 -0.828125 0.1875q-0.234375 0.109375 -0.359375 0.3125q-0.125 0.1875 -0.125 0.4375q0 0.375 0.28125 0.625q0.28125 0.25 0.828125 0.25q0.53125 0 0.953125 -0.234375q0.421875 -0.234375 0.625 -0.65625q0.15625 -0.3125 0.15625 -0.9375l0 -0.328125z" fill-rule="nonzero"/><path fill="#000000" fill-opacity="0.0" d="m225.69478 147.21335c63.06172 0 94.591965 0.01574707 126.12346 0.03149414c31.531494 0.01574707 63.06427 0.0315094 126.12851 0.0315094" fill-rule="evenodd"/><path stroke="#000000" stroke-width="1.0" stroke-linejoin="round" stroke-linecap="butt" d="m231.69478 147.21375l35.876846 0.002319336c12.316711 0.0017242432 23.155365 0.004180908 33.008728 0.0071411133c19.706726 0.0059051514 35.472137 0.0137786865 51.237885 0.021652222c15.765747 0.007873535 31.53183 0.01574707 51.23947 0.021652222c9.853821 0.0029449463 20.693085 0.00541687 33.010376 0.0071258545l35.878693 0.002319336" fill-rule="evenodd"/><path fill="#000000" stroke="#000000" stroke-width="1.0" stroke-linecap="butt" d="m231.69489 145.56201l-4.538208 1.6514435l4.5379944 1.6520233z" fill-rule="evenodd"/><path fill="#000000" stroke="#000000" stroke-width="1.0" stroke-linecap="butt" d="m471.94666 148.92769l4.538208 -1.6514282l-4.5379944 -1.6520386z" fill-rule="evenodd"/><path fill="#000000" fill-opacity="0.0" d="m159.50833 166.56693c0 23.274628 -15.29097 34.198715 -30.233185 46.54924c-14.942215 12.350525 -29.535675 26.127487 -30.233192 46.079727c-0.6975174 19.95221 12.500908 46.079712 25.001816 46.079712" fill-rule="evenodd"/><path stroke="#000000" stroke-width="1.0" stroke-linejoin="round" stroke-linecap="butt" d="m159.50833 166.56693c0 23.274628 -15.29097 34.198715 -30.233185 46.54924c-14.942215 12.35054 -29.535675 26.127502 -30.233192 46.079727c-0.34875488 9.976105 2.776474 21.496033 7.5514984 30.521942c2.3875198 4.5129395 5.187477 8.402374 8.171875 11.163574c0.7461014 0.6903076 1.5037231 1.3100891 2.2693176 1.8515015c0.3827896 0.27069092 0.7675705 0.52175903 1.1539078 0.7522583l0.10907745 0.063568115" fill-rule="evenodd"/><path fill="#000000" stroke="#000000" stroke-width="1.0" stroke-linecap="butt" d="m117.82226 305.13058l4.8214645 -0.27572632l-3.8707047 -2.88797z" fill-rule="evenodd"/><path fill="#000000" fill-opacity="0.0" d="m34.540684 198.25456l96.8819 0l0 33.95276l-96.8819 0z" fill-rule="evenodd"/><path fill="#000000" d="m44.540684 217.49457l0 -7.625l1.0 0l0 7.625l-1.0 0zm2.6637726 0l0 -5.53125l0.84375 0l0 0.796875q0.609375 -0.921875 1.75 -0.921875q0.5 0 0.921875 0.1875q0.421875 0.171875 0.625 0.46875q0.21875 0.296875 0.296875 0.6875q0.046875 0.265625 0.046875 0.921875l0 3.390625l-0.9375 0l0 -3.359375q0 -0.578125 -0.109375 -0.859375q-0.109375 -0.28125 -0.390625 -0.453125q-0.265625 -0.171875 -0.640625 -0.171875q-0.59375 0 -1.03125 0.390625q-0.4375 0.375 -0.4375 1.4375l0 3.015625l-0.9375 0zm9.504623 0l0 -0.703125q-0.515625 0.828125 -1.546875 0.828125q-0.65625 0 -1.21875 -0.359375q-0.546875 -0.375 -0.859375 -1.015625q-0.296875 -0.65625 -0.296875 -1.5q0 -0.828125 0.28125 -1.5q0.28125 -0.6875 0.828125 -1.046875q0.546875 -0.359375 1.234375 -0.359375q0.5 0 0.890625 0.21875q0.390625 0.203125 0.625 0.546875l0 -2.734375l0.9375 0l0 7.625l-0.875 0zm-2.953125 -2.75q0 1.046875 0.4375 1.578125q0.453125 0.53125 1.0625 0.53125q0.609375 0 1.03125 -0.5q0.4375 -0.515625 0.4375 -1.53125q0 -1.140625 -0.4375 -1.671875q-0.4375 -0.53125 -1.078125 -0.53125q-0.609375 0 -1.03125 0.515625q-0.421875 0.5 -0.421875 1.609375zm9.082748 0.96875l0.96875 0.125q-0.234375 0.84375 -0.859375 1.3125q-0.609375 0.46875 -1.578125 0.46875q-1.203125 0 -1.921875 -0.75q-0.703125 -0.75 -0.703125 -2.09375q0 -1.390625 0.71875 -2.15625q0.71875 -0.78125 1.859375 -0.78125q1.109375 0 1.8125 0.765625q0.703125 0.75 0.703125 2.125q0 0.078125 0 0.234375l-4.125 0q0.046875 0.921875 0.515625 1.40625q0.46875 0.484375 1.15625 0.484375q0.515625 0 0.875 -0.265625q0.359375 -0.28125 0.578125 -0.875zm-3.078125 -1.515625l3.09375 0q-0.0625 -0.6875 -0.359375 -1.046875q-0.453125 -0.53125 -1.15625 -0.53125q-0.640625 0 -1.09375 0.4375q-0.4375 0.421875 -0.484375 1.140625zm4.5983696 3.296875l2.015625 -2.875l-1.859375 -2.65625l1.171875 0l0.84375 1.296875q0.234375 0.375 0.390625 0.625q0.21875 -0.34375 0.40625 -0.609375l0.9375 -1.3125l1.125 0l-1.921875 2.609375l2.0625 2.921875l-1.15625 0l-1.125 -1.71875l-0.296875 -0.46875l-1.453125 2.1875l-1.140625 0zm12.538773 0l0 -0.8125q-0.65625 0.9375 -1.75 0.9375q-0.5 0 -0.921875 -0.1875q-0.421875 -0.1875 -0.625 -0.46875q-0.203125 -0.28125 -0.296875 -0.703125q-0.046875 -0.265625 -0.046875 -0.875l0 -3.421875l0.9375 0l0 3.0625q0 0.734375 0.046875 1.0q0.09375 0.359375 0.375 0.578125q0.296875 0.203125 0.703125 0.203125q0.421875 0 0.796875 -0.203125q0.375 -0.21875 0.515625 -0.59375q0.15625 -0.375 0.15625 -1.078125l0 -2.96875l0.9375 0l0 5.53125l-0.828125 0zm2.3014984 2.125l0 -7.65625l0.859375 0l0 0.71875q0.296875 -0.421875 0.671875 -0.625q0.390625 -0.21875 0.921875 -0.21875q0.703125 0 1.25 0.375q0.546875 0.359375 0.8125 1.03125q0.28125 0.65625 0.28125 1.453125q0 0.84375 -0.3125 1.53125q-0.296875 0.671875 -0.875 1.03125q-0.578125 0.359375 -1.21875 0.359375q-0.46875 0 -0.84375 -0.1875q-0.375 -0.203125 -0.609375 -0.515625l0 2.703125l-0.9375 0zm0.84375 -4.859375q0 1.0625 0.4375 1.578125q0.4375 0.515625 1.046875 0.515625q0.625 0 1.0625 -0.53125q0.453125 -0.53125 0.453125 -1.640625q0 -1.046875 -0.4375 -1.578125q-0.4375 -0.53125 -1.046875 -0.53125q-0.59375 0 -1.0625 0.5625q-0.453125 0.5625 -0.453125 1.625zm8.660873 2.734375l0 -0.703125q-0.515625 0.828125 -1.546875 0.828125q-0.65625 0 -1.21875 -0.359375q-0.546875 -0.375 -0.859375 -1.015625q-0.296875 -0.65625 -0.296875 -1.5q0 -0.828125 0.28125 -1.5q0.28125 -0.6875 0.828125 -1.046875q0.546875 -0.359375 1.234375 -0.359375q0.5 0 0.890625 0.21875q0.390625 0.203125 0.625 0.546875l0 -2.734375l0.9375 0l0 7.625l-0.875 0zm-2.953125 -2.75q0 1.046875 0.4375 1.578125q0.453125 0.53125 1.0625 0.53125q0.609375 0 1.03125 -0.5q0.4375 -0.515625 0.4375 -1.53125q0 -1.140625 -0.4375 -1.671875q-0.4375 -0.53125 -1.078125 -0.53125q-0.609375 0 -1.03125 0.515625q-0.421875 0.5 -0.421875 1.609375zm8.910873 2.0625q-0.53125 0.453125 -1.015625 0.640625q-0.46875 0.171875 -1.015625 0.171875q-0.921875 0 -1.40625 -0.4375q-0.484375 -0.453125 -0.484375 -1.140625q0 -0.40625 0.171875 -0.734375q0.1875 -0.34375 0.484375 -0.546875q0.3125 -0.203125 0.6875 -0.3125q0.265625 -0.0625 0.828125 -0.140625q1.125 -0.125 1.671875 -0.3125q0 -0.203125 0 -0.25q0 -0.578125 -0.265625 -0.8125q-0.359375 -0.3125 -1.0625 -0.3125q-0.65625 0 -0.984375 0.234375q-0.3125 0.234375 -0.453125 0.8125l-0.921875 -0.125q0.125 -0.578125 0.40625 -0.9375q0.296875 -0.375 0.828125 -0.5625q0.546875 -0.203125 1.25 -0.203125q0.71875 0 1.15625 0.171875q0.4375 0.171875 0.640625 0.421875q0.21875 0.25 0.296875 0.640625q0.046875 0.234375 0.046875 0.859375l0 1.25q0 1.296875 0.0625 1.65625q0.0625 0.34375 0.234375 0.65625l-0.96875 0q-0.15625 -0.296875 -0.1875 -0.6875zm-0.078125 -2.078125q-0.515625 0.203125 -1.53125 0.34375q-0.578125 0.078125 -0.828125 0.1875q-0.234375 0.109375 -0.359375 0.3125q-0.125 0.1875 -0.125 0.4375q0 0.375 0.28125 0.625q0.28125 0.25 0.828125 0.25q0.53125 0 0.953125 -0.234375q0.421875 -0.234375 0.625 -0.65625q0.15625 -0.3125 0.15625 -0.9375l0 -0.328125zm4.4421234 1.921875l0.125 0.828125q-0.390625 0.09375 -0.703125 0.09375q-0.5 0 -0.78125 -0.15625q-0.28125 -0.171875 -0.40625 -0.4375q-0.109375 -0.265625 -0.109375 -1.109375l0 -3.171875l-0.6875 0l0 -0.734375l0.6875 0l0 -1.359375l0.9375 -0.5625l0 1.921875l0.9375 0l0 0.734375l-0.9375 0l0 3.234375q0 0.390625 0.046875 0.515625q0.046875 0.109375 0.15625 0.1875q0.109375 0.0625 0.328125 0.0625q0.15625 0 0.40625 -0.046875zm4.6950226 -0.9375l0.96875 0.125q-0.234375 0.84375 -0.859375 1.3125q-0.609375 0.46875 -1.578125 0.46875q-1.203125 0 -1.921875 -0.75q-0.703125 -0.75 -0.703125 -2.09375q0 -1.390625 0.71875 -2.15625q0.71875 -0.78125 1.859375 -0.78125q1.109375 0 1.8125 0.765625q0.703125 0.75 0.703125 2.125q0 0.078125 0 0.234375l-4.125 0q0.046875 0.921875 0.515625 1.40625q0.46875 0.484375 1.15625 0.484375q0.515625 0 0.875 -0.265625q0.359375 -0.28125 0.578125 -0.875zm-3.078125 -1.515625l3.09375 0q-0.0625 -0.6875 -0.359375 -1.046875q-0.453125 -0.53125 -1.15625 -0.53125q-0.640625 0 -1.09375 0.4375q-0.4375 0.421875 -0.484375 1.140625zm4.8483734 1.640625l0.921875 -0.140625q0.078125 0.5625 0.4375 0.859375q0.359375 0.296875 1.0 0.296875q0.640625 0 0.953125 -0.265625q0.3125 -0.265625 0.3125 -0.625q0 -0.3125 -0.28125 -0.5q-0.1875 -0.125 -0.953125 -0.3125q-1.03125 -0.265625 -1.4375 -0.453125q-0.390625 -0.1875 -0.59375 -0.515625q-0.203125 -0.34375 -0.203125 -0.75q0 -0.359375 0.171875 -0.671875q0.171875 -0.328125 0.453125 -0.53125q0.21875 -0.15625 0.59375 -0.265625q0.390625 -0.125 0.8125 -0.125q0.65625 0 1.140625 0.1875q0.5 0.1875 0.734375 0.515625q0.234375 0.3125 0.3125 0.859375l-0.90625 0.125q-0.0625 -0.4375 -0.375 -0.671875q-0.296875 -0.234375 -0.828125 -0.234375q-0.65625 0 -0.9375 0.21875q-0.265625 0.203125 -0.265625 0.484375q0 0.1875 0.109375 0.328125q0.125 0.15625 0.359375 0.25q0.140625 0.0625 0.828125 0.25q1.0 0.265625 1.390625 0.4375q0.390625 0.15625 0.609375 0.484375q0.234375 0.3125 0.234375 0.796875q0 0.46875 -0.28125 0.890625q-0.265625 0.40625 -0.78125 0.640625q-0.515625 0.21875 -1.171875 0.21875q-1.078125 0 -1.640625 -0.4375q-0.5625 -0.453125 -0.71875 -1.34375z" fill-rule="nonzero"/><path fill="#000000" fill-opacity="0.0" d="m240.60892 305.27036c12.500061 0 26.004303 -26.126526 25.000122 -46.077637c-1.0042114 -19.951126 -16.51683 -33.726837 -32.531555 -46.077637c-16.014725 -12.3508 -32.531555 -23.276703 -32.531555 -46.553406" fill-rule="evenodd"/><path stroke="#000000" stroke-width="1.0" stroke-linejoin="round" stroke-linecap="butt" d="m240.60892 305.27036c12.500061 0 26.004303 -26.126526 25.000122 -46.077637c-1.0041809 -19.951126 -16.51683 -33.726837 -32.531555 -46.077637c-8.007355 -6.175415 -16.140244 -11.994598 -22.271301 -19.17949c-3.0655365 -3.592453 -5.6306 -7.526352 -7.4292755 -12.016922c-0.89933777 -2.245285 -1.6070862 -4.62973 -2.0899963 -7.1802826c-0.12071228 -0.637619 -0.22740173 -1.2856293 -0.31948853 -1.9444427l-0.03274536 -0.24487305" fill-rule="evenodd"/><path fill="#000000" stroke="#000000" stroke-width="1.0" stroke-linecap="butt" d="m202.58293 172.44206l-1.9422913 -4.4215546l-1.3542328 4.6355743z" fill-rule="evenodd"/><path fill="#ed9d5c" d="m477.94095 134.30928l0 0c0 -3.5631104 2.8884888 -6.4515686 6.4515686 -6.4515686l78.75043 0c1.7110596 0 3.3520508 0.679718 4.5619507 1.8896179c1.2098999 1.2098999 1.8895874 2.850891 1.8895874 4.5619507l0 25.805511c0 3.5631104 -2.8884277 6.451584 -6.451538 6.451584l-78.75043 0c-3.5630798 0 -6.4515686 -2.8884735 -6.4515686 -6.451584z" fill-rule="evenodd"/><path stroke="#000000" stroke-width="1.0" stroke-linejoin="round" stroke-linecap="butt" d="m477.94095 134.30928l0 0c0 -3.5631104 2.8884888 -6.4515686 6.4515686 -6.4515686l78.75043 0c1.7110596 0 3.3520508 0.679718 4.5619507 1.8896179c1.2098999 1.2098999 1.8895874 2.850891 1.8895874 4.5619507l0 25.805511c0 3.5631104 -2.8884277 6.451584 -6.451538 6.451584l-78.75043 0c-3.5630798 0 -6.4515686 -2.8884735 -6.4515686 -6.451584z" fill-rule="evenodd"/><path fill="#000000" d="m501.7819 144.45204l-0.953125 -2.421875l-3.046875 0l-0.9375 2.421875l-0.890625 0l3.0 -7.640625l0.75 0l3.0 7.640625l-0.921875 0zm-1.21875 -3.21875l-0.890625 -2.359375q-0.171875 -0.4375 -0.359375 -1.09375q-0.109375 0.5 -0.328125 1.09375l-0.890625 2.359375l2.46875 0zm5.696533 3.328125q-0.546875 0 -1.015625 -0.203125q-0.453125 -0.21875 -0.765625 -0.640625l-0.0625 0q0.0625 0.5 0.0625 0.953125l0 2.34375l-0.859375 0l0 -8.265625l0.703125 0l0.109375 0.78125l0.046875 0q0.328125 -0.46875 0.765625 -0.671875q0.453125 -0.21875 1.015625 -0.21875q1.140625 0 1.75 0.78125q0.625 0.78125 0.625 2.171875q0 1.40625 -0.625 2.1875q-0.625 0.78125 -1.75 0.78125zm-0.125 -5.1875q-0.859375 0 -1.25 0.484375q-0.390625 0.484375 -0.40625 1.546875l0 0.1875q0 1.203125 0.390625 1.71875q0.40625 0.515625 1.296875 0.515625q0.734375 0 1.15625 -0.59375q0.421875 -0.59375 0.421875 -1.640625q0 -1.078125 -0.421875 -1.640625q-0.421875 -0.578125 -1.1875 -0.578125zm6.65506 5.1875q-0.546875 0 -1.0155945 -0.203125q-0.453125 -0.21875 -0.765625 -0.640625l-0.0625 0q0.0625 0.5 0.0625 0.953125l0 2.34375l-0.859375 0l0 -8.265625l0.703125 0l0.109375 0.78125l0.046875 0q0.328125 -0.46875 0.765625 -0.671875q0.45309448 -0.21875 1.0155945 -0.21875q1.140625 0 1.75 0.78125q0.625 0.78125 0.625 2.171875q0 1.40625 -0.625 2.1875q-0.625 0.78125 -1.75 0.78125zm-0.125 -5.1875q-0.8593445 0 -1.2499695 0.484375q-0.390625 0.484375 -0.40625 1.546875l0 0.1875q0 1.203125 0.390625 1.71875q0.40625 0.515625 1.2968445 0.515625q0.734375 0 1.15625 -0.59375q0.421875 -0.59375 0.421875 -1.640625q0 -1.078125 -0.421875 -1.640625q-0.421875 -0.578125 -1.1875 -0.578125zm4.8738403 5.078125l-0.859375 0l0 -8.09375l0.859375 0l0 8.09375zm2.6953125 0l-0.859375 0l0 -5.703125l0.859375 0l0 5.703125zm-0.9375 -7.25q0 -0.296875 0.140625 -0.4375q0.15625 -0.140625 0.375 -0.140625q0.203125 0 0.34375 0.140625q0.15625 0.140625 0.15625 0.4375q0 0.296875 -0.15625 0.4375q-0.140625 0.140625 -0.34375 0.140625q-0.21875 0 -0.375 -0.140625q-0.140625 -0.140625 -0.140625 -0.4375zm5.0390015 7.359375q-1.234375 0 -1.921875 -0.765625q-0.671875 -0.765625 -0.671875 -2.15625q0 -1.4375 0.6875 -2.21875q0.703125 -0.78125 1.96875 -0.78125q0.40625 0 0.8125 0.09375q0.421875 0.09375 0.65625 0.203125l-0.265625 0.734375q-0.28125 -0.109375 -0.625 -0.1875q-0.34375 -0.078125 -0.59375 -0.078125q-1.734375 0 -1.734375 2.21875q0 1.046875 0.421875 1.609375q0.421875 0.5625 1.25 0.5625q0.71875 0 1.46875 -0.296875l0 0.765625q-0.578125 0.296875 -1.453125 0.296875zm6.307556 -0.109375l-0.171875 -0.8125l-0.046875 0q-0.421875 0.53125 -0.84375 0.734375q-0.421875 0.1875 -1.0625 0.1875q-0.84375 0 -1.328125 -0.4375q-0.484375 -0.4375 -0.484375 -1.25q0 -1.71875 2.765625 -1.8125l0.96875 -0.03125l0 -0.34375q0 -0.671875 -0.296875 -0.984375q-0.28125 -0.328125 -0.921875 -0.328125q-0.703125 0 -1.609375 0.4375l-0.265625 -0.671875q0.421875 -0.21875 0.921875 -0.34375q0.515625 -0.140625 1.015625 -0.140625q1.015625 0 1.5 0.453125q0.5 0.453125 0.5 1.453125l0 3.890625l-0.640625 0zm-1.953125 -0.609375q0.8125 0 1.265625 -0.4375q0.46875 -0.453125 0.46875 -1.25l0 -0.5l-0.875 0.03125q-1.015625 0.03125 -1.484375 0.3125q-0.453125 0.28125 -0.453125 0.890625q0 0.46875 0.28125 0.71875q0.296875 0.234375 0.796875 0.234375zm6.2077637 0q0.234375 0 0.4375 -0.03125q0.21875 -0.03125 0.34375 -0.078125l0 0.671875q-0.140625 0.0625 -0.421875 0.109375q-0.265625 0.046875 -0.46875 0.046875q-1.65625 0 -1.65625 -1.75l0 -3.390625l-0.828125 0l0 -0.421875l0.828125 -0.359375l0.359375 -1.21875l0.5 0l0 1.328125l1.65625 0l0 0.671875l-1.65625 0l0 3.359375q0 0.515625 0.234375 0.796875q0.25 0.265625 0.671875 0.265625zm2.7931519 0.609375l-0.859375 0l0 -5.703125l0.859375 0l0 5.703125zm-0.9375 -7.25q0 -0.296875 0.140625 -0.4375q0.15625 -0.140625 0.375 -0.140625q0.203125 0 0.34375 0.140625q0.15625 0.140625 0.15625 0.4375q0 0.296875 -0.15625 0.4375q-0.140625 0.140625 -0.34375 0.140625q-0.21875 0 -0.375 -0.140625q-0.140625 -0.140625 -0.140625 -0.4375zm7.6953125 4.390625q0 1.390625 -0.703125 2.1875q-0.703125 0.78125 -1.953125 0.78125q-0.75 0 -1.34375 -0.359375q-0.59375 -0.359375 -0.921875 -1.03125q-0.328125 -0.671875 -0.328125 -1.578125q0 -1.390625 0.703125 -2.171875q0.703125 -0.78125 1.9375 -0.78125q1.1875 0 1.890625 0.796875q0.71875 0.796875 0.71875 2.15625zm-4.34375 0q0 1.09375 0.4375 1.671875q0.4375 0.5625 1.28125 0.5625q0.84375 0 1.28125 -0.5625q0.4375 -0.578125 0.4375 -1.671875q0 -1.078125 -0.4375 -1.640625q-0.4375 -0.578125 -1.296875 -0.578125q-0.84375 0 -1.28125 0.5625q-0.421875 0.5625 -0.421875 1.65625zm9.748901 2.859375l0 -3.6875q0 -0.703125 -0.3125 -1.046875q-0.3125 -0.34375 -1.0 -0.34375q-0.890625 0 -1.3125 0.484375q-0.40625 0.484375 -0.40625 1.609375l0 2.984375l-0.859375 0l0 -5.703125l0.703125 0l0.140625 0.78125l0.03125 0q0.265625 -0.421875 0.734375 -0.65625q0.484375 -0.234375 1.078125 -0.234375q1.03125 0 1.546875 0.5q0.53125 0.5 0.53125 1.59375l0 3.71875l-0.875 0z" fill-rule="nonzero"/><path fill="#000000" d="m517.49207 156.68642l-0.046875 0q-0.59375 0.875 -1.796875 0.875q-1.109375 0 -1.734375 -0.765625q-0.625 -0.765625 -0.625 -2.171875q0 -1.421875 0.625 -2.203125q0.625 -0.78125 1.734375 -0.78125q1.171875 0 1.78125 0.84375l0.078125 0l-0.046875 -0.40625l-0.015625 -0.40625l0 -2.3125l0.859375 0l0 8.09375l-0.703125 0l-0.109375 -0.765625zm-1.734375 0.140625q0.890625 0 1.28125 -0.46875q0.40625 -0.484375 0.40625 -1.5625l0 -0.171875q0 -1.21875 -0.40625 -1.734375q-0.40625 -0.515625 -1.28125 -0.515625q-0.765625 0 -1.171875 0.59375q-0.390625 0.578125 -0.390625 1.65625q0 1.09375 0.390625 1.65625q0.40625 0.546875 1.171875 0.546875zm7.8894653 0.625l-0.171875 -0.8125l-0.046875 0q-0.421875 0.53125 -0.84375 0.734375q-0.421875 0.1875 -1.0625 0.1875q-0.84375 0 -1.328125 -0.4375q-0.484375 -0.4375 -0.484375 -1.25q0 -1.71875 2.765625 -1.8125l0.96875 -0.03125l0 -0.34375q0 -0.671875 -0.296875 -0.984375q-0.28125 -0.328125 -0.921875 -0.328125q-0.703125 0 -1.609375 0.4375l-0.265625 -0.671875q0.421875 -0.21875 0.921875 -0.34375q0.515625 -0.140625 1.015625 -0.140625q1.015625 0 1.5 0.453125q0.5 0.453125 0.5 1.453125l0 3.890625l-0.640625 0zm-1.953125 -0.609375q0.8125 0 1.265625 -0.4375q0.46875 -0.453125 0.46875 -1.25l0 -0.5l-0.875 0.03125q-1.015625 0.03125 -1.484375 0.3125q-0.453125 0.28125 -0.453125 0.890625q0 0.46875 0.28125 0.71875q0.296875 0.234375 0.796875 0.234375zm6.2077637 0q0.234375 0 0.4375 -0.03125q0.21875 -0.03125 0.34375 -0.078125l0 0.671875q-0.140625 0.0625 -0.421875 0.109375q-0.265625 0.046875 -0.46875 0.046875q-1.65625 0 -1.65625 -1.75l0 -3.390625l-0.828125 0l0 -0.421875l0.828125 -0.359375l0.359375 -1.21875l0.5 0l0 1.328125l1.65625 0l0 0.671875l-1.65625 0l0 3.359375q0 0.515625 0.234375 0.796875q0.25 0.265625 0.671875 0.265625zm5.433838 0.609375l-0.171875 -0.8125l-0.046875 0q-0.421875 0.53125 -0.84375 0.734375q-0.421875 0.1875 -1.0625 0.1875q-0.84375 0 -1.328125 -0.4375q-0.484375 -0.4375 -0.484375 -1.25q0 -1.71875 2.765625 -1.8125l0.96875 -0.03125l0 -0.34375q0 -0.671875 -0.296875 -0.984375q-0.28125 -0.328125 -0.921875 -0.328125q-0.703125 0 -1.609375 0.4375l-0.265625 -0.671875q0.421875 -0.21875 0.921875 -0.34375q0.515625 -0.140625 1.015625 -0.140625q1.015625 0 1.5 0.453125q0.5 0.453125 0.5 1.453125l0 3.890625l-0.640625 0zm-1.953125 -0.609375q0.8125 0 1.265625 -0.4375q0.46875 -0.453125 0.46875 -1.25l0 -0.5l-0.875 0.03125q-1.015625 0.03125 -1.484375 0.3125q-0.453125 0.28125 -0.453125 0.890625q0 0.46875 0.28125 0.71875q0.296875 0.234375 0.796875 0.234375z" fill-rule="nonzero"/><path fill="#000000" fill-opacity="0.0" d="m459.9265 67.173225l127.68506 0l0 32.314964l-127.68506 0z" fill-rule="evenodd"/><path fill="#000000" d="m501.78873 86.41323l0 -7.625l2.625 0q0.890625 0 1.359375 0.109375q0.65625 0.140625 1.109375 0.546875q0.609375 0.5 0.90625 1.296875q0.296875 0.796875 0.296875 1.8125q0 0.875 -0.203125 1.546875q-0.203125 0.671875 -0.515625 1.109375q-0.3125 0.4375 -0.703125 0.6875q-0.375 0.25 -0.90625 0.390625q-0.53125 0.125 -1.21875 0.125l-2.75 0zm1.0 -0.90625l1.625 0q0.765625 0 1.1875 -0.140625q0.4375 -0.140625 0.6875 -0.390625q0.359375 -0.359375 0.5625 -0.953125q0.203125 -0.609375 0.203125 -1.484375q0 -1.1875 -0.40625 -1.828125q-0.390625 -0.65625 -0.953125 -0.875q-0.40625 -0.15625 -1.296875 -0.15625l-1.609375 0l0 5.828125zm10.179962 0.21875q-0.53125 0.453125 -1.015625 0.640625q-0.46875 0.171875 -1.015625 0.171875q-0.921875 0 -1.40625 -0.4375q-0.484375 -0.453125 -0.484375 -1.140625q0 -0.40625 0.171875 -0.734375q0.1875 -0.34375 0.484375 -0.546875q0.3125 -0.203125 0.6875 -0.3125q0.265625 -0.0625 0.828125 -0.140625q1.125 -0.125 1.671875 -0.3125q0 -0.203125 0 -0.25q0 -0.578125 -0.265625 -0.8125q-0.359375 -0.3125 -1.0625 -0.3125q-0.65625 0 -0.984375 0.234375q-0.3125 0.234375 -0.453125 0.8125l-0.921875 -0.125q0.125 -0.578125 0.40625 -0.9375q0.296875 -0.375 0.828125 -0.5625q0.546875 -0.203125 1.25 -0.203125q0.71875 0 1.15625 0.171875q0.4375 0.171875 0.640625 0.421875q0.21875 0.25 0.296875 0.640625q0.046875 0.234375 0.046875 0.859375l0 1.25q0 1.296875 0.0625 1.65625q0.0625 0.34375 0.234375 0.65625l-0.96875 0q-0.15625 -0.296875 -0.1875 -0.6875zm-0.078125 -2.078125q-0.515625 0.203125 -1.53125 0.34375q-0.578125 0.078125 -0.828125 0.1875q-0.234375 0.109375 -0.359375 0.3125q-0.125 0.1875 -0.125 0.4375q0 0.375 0.28125 0.625q0.28125 0.25 0.828125 0.25q0.53125 0 0.953125 -0.234375q0.421875 -0.234375 0.625 -0.65625q0.15625 -0.3125 0.15625 -0.9375l0 -0.328125zm4.4421387 1.921875l0.125 0.828125q-0.390625 0.09375 -0.703125 0.09375q-0.5 0 -0.78125 -0.15625q-0.28125 -0.171875 -0.40625 -0.4375q-0.109375 -0.265625 -0.109375 -1.109375l0 -3.171875l-0.6875 0l0 -0.734375l0.6875 0l0 -1.359375l0.9375 -0.5625l0 1.921875l0.9375 0l0 0.734375l-0.9375 0l0 3.234375q0 0.390625 0.046875 0.515625q0.046875 0.109375 0.15625 0.1875q0.109375 0.0625 0.328125 0.0625q0.15625 0 0.40625 -0.046875zm4.5231323 0.15625q-0.53125 0.453125 -1.015625 0.640625q-0.46875 0.171875 -1.015625 0.171875q-0.921875 0 -1.40625 -0.4375q-0.484375 -0.453125 -0.484375 -1.140625q0 -0.40625 0.171875 -0.734375q0.1875 -0.34375 0.484375 -0.546875q0.3125 -0.203125 0.6875 -0.3125q0.265625 -0.0625 0.828125 -0.140625q1.125 -0.125 1.671875 -0.3125q0 -0.203125 0 -0.25q0 -0.578125 -0.265625 -0.8125q-0.359375 -0.3125 -1.0625 -0.3125q-0.65625 0 -0.984375 0.234375q-0.3125 0.234375 -0.453125 0.8125l-0.921875 -0.125q0.125 -0.578125 0.40625 -0.9375q0.296875 -0.375 0.828125 -0.5625q0.546875 -0.203125 1.25 -0.203125q0.71875 0 1.15625 0.171875q0.4375 0.171875 0.640625 0.421875q0.21875 0.25 0.296875 0.640625q0.046875 0.234375 0.046875 0.859375l0 1.25q0 1.296875 0.0625 1.65625q0.0625 0.34375 0.234375 0.65625l-0.96875 0q-0.15625 -0.296875 -0.1875 -0.6875zm-0.078125 -2.078125q-0.515625 0.203125 -1.53125 0.34375q-0.578125 0.078125 -0.828125 0.1875q-0.234375 0.109375 -0.359375 0.3125q-0.125 0.1875 -0.125 0.4375q0 0.375 0.28125 0.625q0.28125 0.25 0.828125 0.25q0.53125 0 0.953125 -0.234375q0.421875 -0.234375 0.625 -0.65625q0.15625 -0.3125 0.15625 -0.9375l0 -0.328125zm3.2546387 2.765625l-0.859375 0l0 -7.625l0.9375 0l0 2.71875q0.59375 -0.75 1.5 -0.75q0.515625 0 0.96875 0.21875q0.453125 0.203125 0.75 0.578125q0.296875 0.359375 0.453125 0.890625q0.171875 0.53125 0.171875 1.125q0 1.421875 -0.703125 2.203125q-0.703125 0.765625 -1.6875 0.765625q-0.96875 0 -1.53125 -0.8125l0 0.6875zm0 -2.796875q0 0.984375 0.265625 1.421875q0.4375 0.734375 1.1875 0.734375q0.625 0 1.0625 -0.53125q0.453125 -0.546875 0.453125 -1.59375q0 -1.078125 -0.4375 -1.59375q-0.421875 -0.515625 -1.03125 -0.515625q-0.609375 0 -1.0625 0.53125q-0.4375 0.53125 -0.4375 1.546875zm8.676514 2.109375q-0.53125 0.453125 -1.015625 0.640625q-0.46875 0.171875 -1.015625 0.171875q-0.921875 0 -1.40625 -0.4375q-0.484375 -0.453125 -0.484375 -1.140625q0 -0.40625 0.171875 -0.734375q0.1875 -0.34375 0.484375 -0.546875q0.3125 -0.203125 0.6875 -0.3125q0.265625 -0.0625 0.828125 -0.140625q1.125 -0.125 1.671875 -0.3125q0 -0.203125 0 -0.25q0 -0.578125 -0.265625 -0.8125q-0.359375 -0.3125 -1.0625 -0.3125q-0.65625 0 -0.984375 0.234375q-0.3125 0.234375 -0.453125 0.8125l-0.921875 -0.125q0.125 -0.578125 0.40625 -0.9375q0.296875 -0.375 0.828125 -0.5625q0.546875 -0.203125 1.25 -0.203125q0.71875 0 1.15625 0.171875q0.4375 0.171875 0.640625 0.421875q0.21875 0.25 0.296875 0.640625q0.046875 0.234375 0.046875 0.859375l0 1.25q0 1.296875 0.0625 1.65625q0.0625 0.34375 0.234375 0.65625l-0.96875 0q-0.15625 -0.296875 -0.1875 -0.6875zm-0.078125 -2.078125q-0.515625 0.203125 -1.53125 0.34375q-0.578125 0.078125 -0.828125 0.1875q-0.234375 0.109375 -0.359375 0.3125q-0.125 0.1875 -0.125 0.4375q0 0.375 0.28125 0.625q0.28125 0.25 0.828125 0.25q0.53125 0 0.953125 -0.234375q0.421875 -0.234375 0.625 -0.65625q0.15625 -0.3125 0.15625 -0.9375l0 -0.328125zm2.0202026 1.109375l0.921875 -0.140625q0.078125 0.5625 0.4375 0.859375q0.359375 0.296875 1.0 0.296875q0.640625 0 0.953125 -0.265625q0.3125 -0.265625 0.3125 -0.625q0 -0.3125 -0.28125 -0.5q-0.1875 -0.125 -0.953125 -0.3125q-1.03125 -0.265625 -1.4375 -0.453125q-0.390625 -0.1875 -0.59375 -0.515625q-0.203125 -0.34375 -0.203125 -0.75q0 -0.359375 0.171875 -0.671875q0.171875 -0.328125 0.453125 -0.53125q0.21875 -0.15625 0.59375 -0.265625q0.390625 -0.125 0.8125 -0.125q0.65625 0 1.140625 0.1875q0.5 0.1875 0.734375 0.515625q0.234375 0.3125 0.3125 0.859375l-0.90625 0.125q-0.0625 -0.4375 -0.375 -0.671875q-0.296875 -0.234375 -0.828125 -0.234375q-0.65625 0 -0.9375 0.21875q-0.265625 0.203125 -0.265625 0.484375q0 0.1875 0.109375 0.328125q0.125 0.15625 0.359375 0.25q0.140625 0.0625 0.828125 0.25q1.0 0.265625 1.390625 0.4375q0.390625 0.15625 0.609375 0.484375q0.234375 0.3125 0.234375 0.796875q0 0.46875 -0.28125 0.890625q-0.265625 0.40625 -0.78125 0.640625q-0.515625 0.21875 -1.171875 0.21875q-1.078125 0 -1.640625 -0.4375q-0.5625 -0.453125 -0.71875 -1.34375zm9.484375 -0.125l0.96875 0.125q-0.234375 0.84375 -0.859375 1.3125q-0.609375 0.46875 -1.578125 0.46875q-1.203125 0 -1.921875 -0.75q-0.703125 -0.75 -0.703125 -2.09375q0 -1.390625 0.71875 -2.15625q0.71875 -0.78125 1.859375 -0.78125q1.109375 0 1.8125 0.765625q0.703125 0.75 0.703125 2.125q0 0.078125 0 0.234375l-4.125 0q0.046875 0.921875 0.515625 1.40625q0.46875 0.484375 1.15625 0.484375q0.515625 0 0.875 -0.265625q0.359375 -0.28125 0.578125 -0.875zm-3.078125 -1.515625l3.09375 0q-0.0625 -0.6875 -0.359375 -1.046875q-0.453125 -0.53125 -1.15625 -0.53125q-0.640625 0 -1.09375 0.4375q-0.4375 0.421875 -0.484375 1.140625z" fill-rule="nonzero"/><path fill="#000000" fill-opacity="0.0" d="m58.17848 35.822834l253.16536 0l0 84.62993l-253.16536 0z" fill-rule="evenodd"/><path fill="#000000" d="m132.06009 53.031586q0 1.015625 -0.734375 1.578125q-0.734375 0.5625 -1.96875 0.5625q-1.3593826 0 -2.0937576 -0.359375l0 -0.84375q0.46875 0.1875 1.0156326 0.3125q0.5625 0.109375 1.109375 0.109375q0.875 0 1.3125 -0.328125q0.453125 -0.34375 0.453125 -0.9375q0 -0.40625 -0.15625 -0.65625q-0.15625 -0.25 -0.53125 -0.453125q-0.375 -0.21875 -1.125 -0.484375q-1.0625 -0.390625 -1.5156326 -0.90625q-0.453125 -0.515625 -0.453125 -1.359375q0 -0.875 0.6562576 -1.390625q0.65625 -0.53125 1.75 -0.53125q1.125 0 2.078125 0.421875l-0.265625 0.765625q-0.953125 -0.390625 -1.84375 -0.390625q-0.6875 0 -1.09375 0.296875q-0.390625 0.296875 -0.390625 0.84375q0 0.390625 0.140625 0.640625q0.15625 0.25 0.5 0.46875q0.34375 0.203125 1.046875 0.46875q1.203125 0.421875 1.65625 0.921875q0.453125 0.484375 0.453125 1.25zm2.2859497 2.03125l-0.859375 0l0 -5.703125l0.859375 0l0 5.703125zm-0.9375 -7.25q0 -0.296875 0.140625 -0.4375q0.15625 -0.140625 0.375 -0.140625q0.203125 0 0.34375 0.140625q0.15625 0.140625 0.15625 0.4375q0 0.296875 -0.15625 0.4375q-0.140625 0.140625 -0.34375 0.140625q-0.21875 0 -0.375 -0.140625q-0.140625 -0.140625 -0.140625 -0.4375zm6.664032 7.25l0 -3.6875q0 -0.703125 -0.3125 -1.046875q-0.3125 -0.34375 -1.0 -0.34375q-0.890625 0 -1.3125 0.484375q-0.40625 0.484375 -0.40625 1.609375l0 2.984375l-0.859375 0l0 -5.703125l0.703125 0l0.140625 0.78125l0.03125 0q0.265625 -0.421875 0.734375 -0.65625q0.484375 -0.234375 1.078125 -0.234375q1.03125 0 1.546875 0.5q0.53125 0.5 0.53125 1.59375l0 3.71875l-0.875 0zm7.3061066 -5.703125l0 0.546875l-1.046875 0.125q0.140625 0.1875 0.25 0.484375q0.125 0.28125 0.125 0.65625q0 0.84375 -0.578125 1.34375q-0.578125 0.484375 -1.578125 0.484375q-0.25 0 -0.46875 -0.03125q-0.546875 0.28125 -0.546875 0.734375q0 0.234375 0.1875 0.34375q0.1875 0.109375 0.65625 0.109375l1.015625 0q0.921875 0 1.421875 0.390625q0.5 0.390625 0.5 1.140625q0 0.9375 -0.765625 1.4375q-0.765625 0.5 -2.21875 0.5q-1.109375 0 -1.71875 -0.421875q-0.609375 -0.40625 -0.609375 -1.171875q0 -0.515625 0.328125 -0.90625q0.34375 -0.375 0.9375 -0.515625q-0.21875 -0.09375 -0.375 -0.296875q-0.140625 -0.21875 -0.140625 -0.484375q0 -0.3125 0.171875 -0.546875q0.171875 -0.234375 0.53125 -0.453125q-0.453125 -0.1875 -0.734375 -0.625q-0.265625 -0.4375 -0.265625 -1.0q0 -0.9375 0.5625 -1.4375q0.5625 -0.515625 1.578125 -0.515625q0.453125 0 0.8125 0.109375l1.96875 0zm-4.546875 6.65625q0 0.46875 0.390625 0.703125q0.390625 0.25 1.125 0.25q1.078125 0 1.59375 -0.328125q0.53125 -0.328125 0.53125 -0.890625q0 -0.453125 -0.28125 -0.640625q-0.28125 -0.171875 -1.078125 -0.171875l-1.03125 0q-0.59375 0 -0.921875 0.28125q-0.328125 0.28125 -0.328125 0.796875zm0.46875 -4.828125q0 0.59375 0.34375 0.90625q0.34375 0.296875 0.9375 0.296875q1.265625 0 1.265625 -1.21875q0 -1.28125 -1.28125 -1.28125q-0.609375 0 -0.9375 0.328125q-0.328125 0.328125 -0.328125 0.96875zm6.119293 3.875l-0.859375 0l0 -8.09375l0.859375 0l0 8.09375zm4.242157 0.109375q-1.265625 0 -2.0 -0.765625q-0.734375 -0.78125 -0.734375 -2.140625q0 -1.390625 0.671875 -2.203125q0.6875 -0.8125 1.828125 -0.8125q1.078125 0 1.703125 0.71875q0.625 0.703125 0.625 1.859375l0 0.546875l-3.921875 0q0.015625 1.0 0.5 1.515625q0.484375 0.515625 1.359375 0.515625q0.921875 0 1.8125 -0.375l0 0.765625q-0.453125 0.203125 -0.859375 0.28125q-0.40625 0.09375 -0.984375 0.09375zm-0.234375 -5.1875q-0.6875 0 -1.09375 0.453125q-0.40625 0.4375 -0.484375 1.234375l2.984375 0q0 -0.828125 -0.375 -1.25q-0.359375 -0.4375 -1.03125 -0.4375zm3.322281 2.609375l0 -0.78125l2.546875 0l0 0.78125l-2.546875 0zm7.80394 2.46875l0 -3.6875q0 -0.703125 -0.3125 -1.046875q-0.3125 -0.34375 -1.0 -0.34375q-0.890625 0 -1.3125 0.484375q-0.40625 0.484375 -0.40625 1.609375l0 2.984375l-0.859375 0l0 -5.703125l0.703125 0l0.140625 0.78125l0.03125 0q0.265625 -0.421875 0.734375 -0.65625q0.484375 -0.234375 1.078125 -0.234375q1.03125 0 1.546875 0.5q0.53125 0.5 0.53125 1.59375l0 3.71875l-0.875 0zm7.5717316 -2.859375q0 1.390625 -0.703125 2.1875q-0.703125 0.78125 -1.953125 0.78125q-0.75 0 -1.34375 -0.359375q-0.59375 -0.359375 -0.921875 -1.03125q-0.328125 -0.671875 -0.328125 -1.578125q0 -1.390625 0.703125 -2.171875q0.703125 -0.78125 1.9375 -0.78125q1.1875 0 1.890625 0.796875q0.71875 0.796875 0.71875 2.15625zm-4.34375 0q0 1.09375 0.4375 1.671875q0.4375 0.5625 1.28125 0.5625q0.84375 0 1.28125 -0.5625q0.4375 -0.578125 0.4375 -1.671875q0 -1.078125 -0.4375 -1.640625q-0.4375 -0.578125 -1.296875 -0.578125q-0.84375 0 -1.28125 0.5625q-0.421875 0.5625 -0.421875 1.65625zm9.733292 2.09375l-0.046875 0q-0.59375 0.875 -1.796875 0.875q-1.109375 0 -1.734375 -0.765625q-0.625 -0.765625 -0.625 -2.171875q0 -1.421875 0.625 -2.203125q0.625 -0.78125 1.734375 -0.78125q1.171875 0 1.78125 0.84375l0.078125 0l-0.046875 -0.40625l-0.015625 -0.40625l0 -2.3125l0.859375 0l0 8.09375l-0.703125 0l-0.109375 -0.765625zm-1.734375 0.140625q0.890625 0 1.28125 -0.46875q0.40625 -0.484375 0.40625 -1.5625l0 -0.171875q0 -1.21875 -0.40625 -1.734375q-0.40625 -0.515625 -1.28125 -0.515625q-0.765625 0 -1.171875 0.59375q-0.390625 0.578125 -0.390625 1.65625q0 1.09375 0.390625 1.65625q0.40625 0.546875 1.171875 0.546875zm6.7957 0.734375q-1.265625 0 -2.0 -0.765625q-0.734375 -0.78125 -0.734375 -2.140625q0 -1.390625 0.671875 -2.203125q0.6875 -0.8125 1.828125 -0.8125q1.078125 0 1.703125 0.71875q0.625 0.703125 0.625 1.859375l0 0.546875l-3.921875 0q0.015625 1.0 0.5 1.515625q0.484375 0.515625 1.359375 0.515625q0.921875 0 1.8125 -0.375l0 0.765625q-0.453125 0.203125 -0.859375 0.28125q-0.40625 0.09375 -0.984375 0.09375zm-0.234375 -5.1875q-0.6875 0 -1.09375 0.453125q-0.40625 0.4375 -0.484375 1.234375l2.984375 0q0 -0.828125 -0.375 -1.25q-0.359375 -0.4375 -1.03125 -0.4375zm10.074783 5.078125l-0.171875 -0.8125l-0.046875 0q-0.421875 0.53125 -0.84375 0.734375q-0.421875 0.1875 -1.0625 0.1875q-0.84375 0 -1.328125 -0.4375q-0.484375 -0.4375 -0.484375 -1.25q0 -1.71875 2.765625 -1.8125l0.96875 -0.03125l0 -0.34375q0 -0.671875 -0.296875 -0.984375q-0.28125 -0.328125 -0.921875 -0.328125q-0.703125 0 -1.609375 0.4375l-0.265625 -0.671875q0.421875 -0.21875 0.921875 -0.34375q0.515625 -0.140625 1.015625 -0.140625q1.015625 0 1.5 0.453125q0.5 0.453125 0.5 1.453125l0 3.890625l-0.640625 0zm-1.953125 -0.609375q0.8125 0 1.265625 -0.4375q0.46875 -0.453125 0.46875 -1.25l0 -0.5l-0.875 0.03125q-1.015625 0.03125 -1.484375 0.3125q-0.453125 0.28125 -0.453125 0.890625q0 0.46875 0.28125 0.71875q0.296875 0.234375 0.796875 0.234375zm7.0202484 0.71875q-0.546875 0 -1.015625 -0.203125q-0.453125 -0.21875 -0.765625 -0.640625l-0.0625 0q0.0625 0.5 0.0625 0.953125l0 2.34375l-0.859375 0l0 -8.265625l0.703125 0l0.109375 0.78125l0.046875 0q0.328125 -0.46875 0.765625 -0.671875q0.453125 -0.21875 1.015625 -0.21875q1.140625 0 1.75 0.78125q0.625 0.78125 0.625 2.171875q0 1.40625 -0.625 2.1875q-0.625 0.78125 -1.75 0.78125zm-0.125 -5.1875q-0.859375 0 -1.25 0.484375q-0.390625 0.484375 -0.40625 1.546875l0 0.1875q0 1.203125 0.390625 1.71875q0.40625 0.515625 1.296875 0.515625q0.734375 0 1.15625 -0.59375q0.421875 -0.59375 0.421875 -1.640625q0 -1.078125 -0.421875 -1.640625q-0.421875 -0.578125 -1.1875 -0.578125zm6.655075 5.1875q-0.546875 0 -1.015625 -0.203125q-0.453125 -0.21875 -0.765625 -0.640625l-0.0625 0q0.0625 0.5 0.0625 0.953125l0 2.34375l-0.859375 0l0 -8.265625l0.703125 0l0.109375 0.78125l0.046875 0q0.328125 -0.46875 0.765625 -0.671875q0.453125 -0.21875 1.015625 -0.21875q1.140625 0 1.75 0.78125q0.625 0.78125 0.625 2.171875q0 1.40625 -0.625 2.1875q-0.625 0.78125 -1.75 0.78125zm-0.125 -5.1875q-0.859375 0 -1.25 0.484375q-0.390625 0.484375 -0.40625 1.546875l0 0.1875q0 1.203125 0.390625 1.71875q0.40625 0.515625 1.296875 0.515625q0.734375 0 1.15625 -0.59375q0.421875 -0.59375 0.421875 -1.640625q0 -1.078125 -0.421875 -1.640625q-0.421875 -0.578125 -1.1875 -0.578125zm4.873825 5.078125l-0.859375 0l0 -8.09375l0.859375 0l0 8.09375zm2.695282 0l-0.859375 0l0 -5.703125l0.859375 0l0 5.703125zm-0.9375 -7.25q0 -0.296875 0.140625 -0.4375q0.15625 -0.140625 0.375 -0.140625q0.203125 0 0.34375 0.140625q0.15625 0.140625 0.15625 0.4375q0 0.296875 -0.15625 0.4375q-0.140625 0.140625 -0.34375 0.140625q-0.21875 0 -0.375 -0.140625q-0.140625 -0.140625 -0.140625 -0.4375zm5.039032 7.359375q-1.234375 0 -1.921875 -0.765625q-0.671875 -0.765625 -0.671875 -2.15625q0 -1.4375 0.6875 -2.21875q0.703125 -0.78125 1.96875 -0.78125q0.40625 0 0.8125 0.09375q0.421875 0.09375 0.65625 0.203125l-0.265625 0.734375q-0.28125 -0.109375 -0.625 -0.1875q-0.34375 -0.078125 -0.59375 -0.078125q-1.734375 0 -1.734375 2.21875q0 1.046875 0.421875 1.609375q0.421875 0.5625 1.25 0.5625q0.71875 0 1.46875 -0.296875l0 0.765625q-0.578125 0.296875 -1.453125 0.296875zm6.307541 -0.109375l-0.171875 -0.8125l-0.046875 0q-0.421875 0.53125 -0.84375 0.734375q-0.421875 0.1875 -1.0625 0.1875q-0.84375 0 -1.328125 -0.4375q-0.484375 -0.4375 -0.484375 -1.25q0 -1.71875 2.765625 -1.8125l0.96875 -0.03125l0 -0.34375q0 -0.671875 -0.296875 -0.984375q-0.28125 -0.328125 -0.921875 -0.328125q-0.703125 0 -1.609375 0.4375l-0.265625 -0.671875q0.421875 -0.21875 0.921875 -0.34375q0.515625 -0.140625 1.015625 -0.140625q1.015625 0 1.5 0.453125q0.5 0.453125 0.5 1.453125l0 3.890625l-0.640625 0zm-1.953125 -0.609375q0.8125 0 1.265625 -0.4375q0.46875 -0.453125 0.46875 -1.25l0 -0.5l-0.875 0.03125q-1.015625 0.03125 -1.484375 0.3125q-0.453125 0.28125 -0.453125 0.890625q0 0.46875 0.28125 0.71875q0.296875 0.234375 0.796875 0.234375zm6.2077484 0q0.234375 0 0.4375 -0.03125q0.21875 -0.03125 0.34375 -0.078125l0 0.671875q-0.140625 0.0625 -0.421875 0.109375q-0.265625 0.046875 -0.46875 0.046875q-1.65625 0 -1.65625 -1.75l0 -3.390625l-0.828125 0l0 -0.421875l0.828125 -0.359375l0.359375 -1.21875l0.5 0l0 1.328125l1.65625 0l0 0.671875l-1.65625 0l0 3.359375q0 0.515625 0.234375 0.796875q0.25 0.265625 0.671875 0.265625zm2.7931976 0.609375l-0.859375 0l0 -5.703125l0.859375 0l0 5.703125zm-0.9375 -7.25q0 -0.296875 0.140625 -0.4375q0.15625 -0.140625 0.375 -0.140625q0.203125 0 0.34375 0.140625q0.15625 0.140625 0.15625 0.4375q0 0.296875 -0.15625 0.4375q-0.140625 0.140625 -0.34375 0.140625q-0.21875 0 -0.375 -0.140625q-0.140625 -0.140625 -0.140625 -0.4375zm7.695282 4.390625q0 1.390625 -0.703125 2.1875q-0.703125 0.78125 -1.953125 0.78125q-0.75 0 -1.34375 -0.359375q-0.59375 -0.359375 -0.921875 -1.03125q-0.328125 -0.671875 -0.328125 -1.578125q0 -1.390625 0.703125 -2.171875q0.703125 -0.78125 1.9375 -0.78125q1.1875 0 1.890625 0.796875q0.71875 0.796875 0.71875 2.15625zm-4.34375 0q0 1.09375 0.4375 1.671875q0.4375 0.5625 1.28125 0.5625q0.84375 0 1.28125 -0.5625q0.4375 -0.578125 0.4375 -1.671875q0 -1.078125 -0.4375 -1.640625q-0.4375 -0.578125 -1.296875 -0.578125q-0.84375 0 -1.28125 0.5625q-0.421875 0.5625 -0.421875 1.65625zm9.748917 2.859375l0 -3.6875q0 -0.703125 -0.3125 -1.046875q-0.3125 -0.34375 -1.0 -0.34375q-0.890625 0 -1.3125 0.484375q-0.40625 0.484375 -0.40625 1.609375l0 2.984375l-0.859375 0l0 -5.703125l0.703125 0l0.140625 0.78125l0.03125 0q0.265625 -0.421875 0.734375 -0.65625q0.484375 -0.234375 1.078125 -0.234375q1.03125 0 1.546875 0.5q0.53125 0.5 0.53125 1.59375l0 3.71875l-0.875 0z" fill-rule="nonzero"/><path fill="#000000" d="m84.54166 68.062836l-1.046875 -3.34375q-0.109375 -0.3125 -0.375 -1.3906288l-0.046875 0q-0.203125 0.9062538 -0.359375 1.4062538l-1.078125 3.328125l-1.0 0l-1.546875 -5.703129l0.90625 0q0.546875 2.1562538 0.828125 3.2812538q0.296875 1.109375 0.34375 1.5l0.03125 0q0.0625 -0.296875 0.1875 -0.765625q0.125 -0.46875 0.21875 -0.75l1.046875 -3.2656288l0.9375 0l1.015625 3.2656288q0.296875 0.90625 0.40625 1.515625l0.03125 0q0.03125 -0.1875 0.109375 -0.578125q0.09375 -0.390625 1.09375 -4.203129l0.890625 0l-1.578125 5.703129l-1.015625 0zm4.4918976 0l-0.859375 0l0 -5.703129l0.859375 0l0 5.703129zm-0.9375 -7.250004q0 -0.296875 0.140625 -0.4375q0.15625 -0.140625 0.375 -0.140625q0.203125 0 0.34375 0.140625q0.15625 0.140625 0.15625 0.4375q0 0.296875 -0.15625 0.4375q-0.140625 0.140625 -0.34375 0.140625q-0.21875 0 -0.375 -0.140625q-0.140625 -0.140625 -0.140625 -0.4375zm4.601532 6.640629q0.234375 0 0.4375 -0.03125q0.21875 -0.03125 0.34375 -0.078125l0 0.671875q-0.140625 0.0625 -0.421875 0.109375q-0.265625 0.046875 -0.46875 0.046875q-1.65625 0 -1.65625 -1.75l0 -3.3906288l-0.828125 0l0 -0.421875l0.828125 -0.359375l0.359375 -1.21875l0.5 0l0 1.328125l1.65625 0l0 0.671875l-1.65625 0l0 3.3593788q0 0.515625 0.234375 0.796875q0.25 0.265625 0.671875 0.265625zm5.8244476 0.609375l0 -3.6875q0 -0.7031288 -0.3125 -1.0468788q-0.3125 -0.34375 -1.0 -0.34375q-0.890625 0 -1.3125 0.5q-0.40625 0.484375 -0.40625 1.5937538l0 2.984375l-0.859375 0l0 -8.093754l0.859375 0l0 2.453125q0 0.4375 -0.046875 0.734375l0.0625 0q0.25 -0.421875 0.71875 -0.65625q0.46875 -0.234375 1.078125 -0.234375q1.046875 0 1.5625 0.5q0.53125 0.5 0.53125 1.5781288l0 3.71875l-0.875 0zm11.324234 0l-0.890625 0l0 -3.578125l-4.0 0l0 3.578125l-0.890625 0l0 -7.609379l0.890625 0l0 3.234375l4.0 0l0 -3.234375l0.890625 0l0 7.609379zm2.8152313 0l-0.859375 0l0 -5.703129l0.859375 0l0 5.703129zm-0.9375 -7.250004q0 -0.296875 0.140625 -0.4375q0.15625 -0.140625 0.375 -0.140625q0.203125 0 0.34375 0.140625q0.15625 0.140625 0.15625 0.4375q0 0.296875 -0.15625 0.4375q-0.140625 0.140625 -0.34375 0.140625q-0.21875 0 -0.375 -0.140625q-0.140625 -0.140625 -0.140625 -0.4375zm5.414032 1.453125q1.125 0 1.75 0.765625q0.625 0.765625 0.625 2.1718788q0 1.40625 -0.625 2.1875q-0.625 0.78125 -1.75 0.78125q-0.546875 0 -1.015625 -0.203125q-0.453125 -0.21875 -0.765625 -0.640625l-0.0625 0l-0.1875 0.734375l-0.609375 0l0 -8.093754l0.859375 0l0 1.96875q0 0.65625 -0.046875 1.1875l0.046875 0q0.609375 -0.859375 1.78125 -0.859375zm-0.125 0.71875q-0.875 0 -1.265625 0.515625q-0.390625 0.5000038 -0.390625 1.7031288q0 1.203125 0.390625 1.71875q0.40625 0.515625 1.296875 0.515625q0.796875 0 1.1875 -0.578125q0.390625 -0.578125 0.390625 -1.65625q0 -1.125 -0.390625 -1.6718788q-0.390625 -0.546875 -1.21875 -0.546875zm6.4207 5.187504q-1.265625 0 -2.0 -0.765625q-0.734375 -0.78125 -0.734375 -2.140625q0 -1.3906288 0.671875 -2.2031288q0.6875 -0.8125 1.828125 -0.8125q1.078125 0 1.703125 0.71875q0.625 0.703125 0.625 1.8593788l0 0.546875l-3.921875 0q0.015625 1.0 0.5 1.515625q0.484375 0.515625 1.359375 0.515625q0.921875 0 1.8125 -0.375l0 0.765625q-0.453125 0.203125 -0.859375 0.28125q-0.40625 0.09375 -0.984375 0.09375zm-0.234375 -5.187504q-0.6875 0 -1.09375 0.453125q-0.40625 0.4375 -0.484375 1.2343788l2.984375 0q0 -0.8281288 -0.375 -1.2500038q-0.359375 -0.4375 -1.03125 -0.4375zm6.400406 -0.734375q0.375 0 0.6875 0.0625l-0.125 0.8125q-0.359375 -0.078125 -0.625 -0.078125q-0.6875 0 -1.1875 0.5625q-0.484375 0.5625038 -0.484375 1.3906288l0 3.0625l-0.859375 0l0 -5.703129l0.703125 0l0.109375 1.0625l0.03125 0q0.328125 -0.5625 0.765625 -0.859375q0.453125 -0.3125 0.984375 -0.3125zm5.6467896 5.812504l0 -3.6875q0 -0.7031288 -0.3125 -1.0468788q-0.3125 -0.34375 -1.0 -0.34375q-0.890625 0 -1.3125 0.484375q-0.40625 0.484375 -0.40625 1.6093788l0 2.984375l-0.859375 0l0 -5.703129l0.703125 0l0.140625 0.78125l0.03125 0q0.265625 -0.421875 0.734375 -0.65625q0.484375 -0.234375 1.078125 -0.234375q1.03125 0 1.546875 0.5q0.53125 0.5 0.53125 1.5937538l0 3.71875l-0.875 0zm6.1498566 0l-0.171875 -0.8125l-0.046875 0q-0.421875 0.53125 -0.84375 0.734375q-0.421875 0.1875 -1.0625 0.1875q-0.84375 0 -1.328125 -0.4375q-0.484375 -0.4375 -0.484375 -1.25q0 -1.71875 2.765625 -1.8125l0.96875 -0.03125l0 -0.34375q0 -0.6718788 -0.296875 -0.9843788q-0.28125 -0.328125 -0.921875 -0.328125q-0.703125 0 -1.609375 0.4375l-0.265625 -0.671875q0.421875 -0.21875 0.921875 -0.34375q0.515625 -0.140625 1.015625 -0.140625q1.015625 0 1.5 0.453125q0.5 0.453125 0.5 1.4531288l0 3.890625l-0.640625 0zm-1.953125 -0.609375q0.8125 0 1.265625 -0.4375q0.46875 -0.453125 0.46875 -1.25l0 -0.5l-0.875 0.03125q-1.015625 0.03125 -1.484375 0.3125q-0.453125 0.28125 -0.453125 0.890625q0 0.46875 0.28125 0.71875q0.296875 0.234375 0.796875 0.234375zm6.2077484 0q0.234375 0 0.4375 -0.03125q0.21875 -0.03125 0.34375 -0.078125l0 0.671875q-0.140625 0.0625 -0.421875 0.109375q-0.265625 0.046875 -0.46875 0.046875q-1.65625 0 -1.65625 -1.75l0 -3.3906288l-0.828125 0l0 -0.421875l0.828125 -0.359375l0.359375 -1.21875l0.5 0l0 1.328125l1.65625 0l0 0.671875l-1.65625 0l0 3.3593788q0 0.515625 0.234375 0.796875q0.25 0.265625 0.671875 0.265625zm4.3400726 0.71875q-1.265625 0 -2.0 -0.765625q-0.734375 -0.78125 -0.734375 -2.140625q0 -1.3906288 0.671875 -2.2031288q0.6875 -0.8125 1.828125 -0.8125q1.078125 0 1.703125 0.71875q0.625 0.703125 0.625 1.8593788l0 0.546875l-3.921875 0q0.015625 1.0 0.5 1.515625q0.484375 0.515625 1.359375 0.515625q0.921875 0 1.8125 -0.375l0 0.765625q-0.453125 0.203125 -0.859375 0.28125q-0.40625 0.09375 -0.984375 0.09375zm-0.234375 -5.187504q-0.6875 0 -1.09375 0.453125q-0.40625 0.4375 -0.484375 1.2343788l2.984375 0q0 -0.8281288 -0.375 -1.2500038q-0.359375 -0.4375 -1.03125 -0.4375zm13.309158 1.2656288q0 1.828125 -0.9375 2.875q-0.921875 1.046875 -2.5625 1.046875q-1.671875 0 -2.59375 -1.03125q-0.90625 -1.03125 -0.90625 -2.90625q0 -1.8593788 0.90625 -2.8750038q0.921875 -1.03125 2.609375 -1.03125q1.640625 0 2.5625 1.046875q0.921875 1.046875 0.921875 2.8750038zm-6.0625 0q0 1.546875 0.65625 2.34375q0.65625 0.796875 1.90625 0.796875q1.265625 0 1.90625 -0.796875q0.65625 -0.796875 0.65625 -2.34375q0 -1.5312538 -0.65625 -2.3281288q-0.640625 -0.796875 -1.890625 -0.796875q-1.265625 0 -1.921875 0.796875q-0.65625 0.796875 -0.65625 2.3281288zm8.642929 0.65625l0 3.15625l-0.890625 0l0 -7.609379l2.078125 0q1.40625 0 2.078125 0.546875q0.671875 0.53125 0.671875 1.609375q0 1.5000038 -1.53125 2.0312538l2.0625 3.421875l-1.046875 0l-1.84375 -3.15625l-1.578125 0zm0 -0.765625l1.203125 0q0.9375 0 1.375 -0.3750038q0.4375 -0.375 0.4375 -1.109375q0 -0.765625 -0.453125 -1.09375q-0.4375 -0.328125 -1.421875 -0.328125l-1.140625 0l0 2.9062538zm9.056061 3.921875l-2.578125 -6.750004l-0.03125 0q0.0625 0.8125 0.0625 1.90625l0 4.843754l-0.8125 0l0 -7.609379l1.328125 0l2.40625 6.281254l0.046875 0l2.4375 -6.281254l1.3125 0l0 7.609379l-0.875 0l0 -4.906254q0 -0.84375 0.0625 -1.828125l-0.03125 0l-2.609375 6.734379l-0.71875 0zm12.404572 0l-0.171875 -0.8125l-0.046875 0q-0.421875 0.53125 -0.84376526 0.734375q-0.421875 0.1875 -1.0625 0.1875q-0.84375 0 -1.328125 -0.4375q-0.484375 -0.4375 -0.484375 -1.25q0 -1.71875 2.765625 -1.8125l0.96876526 -0.03125l0 -0.34375q0 -0.6718788 -0.296875 -0.9843788q-0.28125 -0.328125 -0.92189026 -0.328125q-0.703125 0 -1.609375 0.4375l-0.265625 -0.671875q0.421875 -0.21875 0.921875 -0.34375q0.515625 -0.140625 1.015625 -0.140625q1.0156403 0 1.5000153 0.453125q0.5 0.453125 0.5 1.4531288l0 3.890625l-0.640625 0zm-1.9531403 -0.609375q0.8125 0 1.2656403 -0.4375q0.46875 -0.453125 0.46875 -1.25l0 -0.5l-0.87501526 0.03125q-1.015625 0.03125 -1.484375 0.3125q-0.453125 0.28125 -0.453125 0.890625q0 0.46875 0.28125 0.71875q0.296875 0.234375 0.796875 0.234375zm8.270248 0.609375l0 -3.6875q0 -0.7031288 -0.3125 -1.0468788q-0.3125 -0.34375 -1.0 -0.34375q-0.890625 0 -1.3125 0.484375q-0.40625 0.484375 -0.40625 1.6093788l0 2.984375l-0.859375 0l0 -5.703129l0.703125 0l0.140625 0.78125l0.03125 0q0.265625 -0.421875 0.734375 -0.65625q0.484375 -0.234375 1.078125 -0.234375q1.03125 0 1.546875 0.5q0.53125 0.5 0.53125 1.5937538l0 3.71875l-0.875 0zm6.524872 -0.765625l-0.046875 0q-0.59375 0.875 -1.796875 0.875q-1.109375 0 -1.734375 -0.765625q-0.625 -0.765625 -0.625 -2.171875q0 -1.4218788 0.625 -2.2031288q0.625 -0.78125 1.734375 -0.78125q1.171875 0 1.78125 0.84375l0.078125 0l-0.046875 -0.40625l-0.015625 -0.40625l0 -2.3125l0.859375 0l0 8.093754l-0.703125 0l-0.109375 -0.765625zm-1.734375 0.140625q0.890625 0 1.28125 -0.46875q0.40625 -0.484375 0.40625 -1.5625l0 -0.171875q0 -1.21875 -0.40625 -1.7343788q-0.40625 -0.515625 -1.28125 -0.515625q-0.765625 0 -1.171875 0.59375q-0.390625 0.5781288 -0.390625 1.6562538q0 1.09375 0.390625 1.65625q0.40625 0.546875 1.171875 0.546875zm13.063812 0.625l-0.890625 0l0 -3.578125l-4.0 0l0 3.578125l-0.890625 0l0 -7.609379l0.890625 0l0 3.234375l4.0 0l0 -3.234375l0.890625 0l0 7.609379zm2.8152466 0l-0.859375 0l0 -5.703129l0.859375 0l0 5.703129zm-0.9375 -7.250004q0 -0.296875 0.140625 -0.4375q0.15625 -0.140625 0.375 -0.140625q0.203125 0 0.34375 0.140625q0.15625 0.140625 0.15625 0.4375q0 0.296875 -0.15625 0.4375q-0.140625 0.140625 -0.34375 0.140625q-0.21875 0 -0.375 -0.140625q-0.140625 -0.140625 -0.140625 -0.4375zm5.414032 1.453125q1.125 0 1.75 0.765625q0.625 0.765625 0.625 2.1718788q0 1.40625 -0.625 2.1875q-0.625 0.78125 -1.75 0.78125q-0.546875 0 -1.015625 -0.203125q-0.453125 -0.21875 -0.765625 -0.640625l-0.0625 0l-0.1875 0.734375l-0.609375 0l0 -8.093754l0.859375 0l0 1.96875q0 0.65625 -0.046875 1.1875l0.046875 0q0.609375 -0.859375 1.78125 -0.859375zm-0.125 0.71875q-0.875 0 -1.265625 0.515625q-0.390625 0.5000038 -0.390625 1.7031288q0 1.203125 0.390625 1.71875q0.40625 0.515625 1.296875 0.515625q0.796875 0 1.1875 -0.578125q0.390625 -0.578125 0.390625 -1.65625q0 -1.125 -0.390625 -1.6718788q-0.390625 -0.546875 -1.21875 -0.546875zm6.420685 5.187504q-1.265625 0 -2.0 -0.765625q-0.734375 -0.78125 -0.734375 -2.140625q0 -1.3906288 0.671875 -2.2031288q0.6875 -0.8125 1.828125 -0.8125q1.078125 0 1.703125 0.71875q0.625 0.703125 0.625 1.8593788l0 0.546875l-3.921875 0q0.015625 1.0 0.5 1.515625q0.484375 0.515625 1.359375 0.515625q0.921875 0 1.8125 -0.375l0 0.765625q-0.453125 0.203125 -0.859375 0.28125q-0.40625 0.09375 -0.984375 0.09375zm-0.234375 -5.187504q-0.6875 0 -1.09375 0.453125q-0.40625 0.4375 -0.484375 1.2343788l2.984375 0q0 -0.8281288 -0.375 -1.2500038q-0.359375 -0.4375 -1.03125 -0.4375zm6.400421 -0.734375q0.375 0 0.6875 0.0625l-0.125 0.8125q-0.359375 -0.078125 -0.625 -0.078125q-0.6875 0 -1.1875 0.5625q-0.484375 0.5625038 -0.484375 1.3906288l0 3.0625l-0.859375 0l0 -5.703129l0.703125 0l0.109375 1.0625l0.03125 0q0.328125 -0.5625 0.765625 -0.859375q0.453125 -0.3125 0.984375 -0.3125zm5.6467896 5.812504l0 -3.6875q0 -0.7031288 -0.3125 -1.0468788q-0.3125 -0.34375 -1.0 -0.34375q-0.890625 0 -1.3125 0.484375q-0.40625 0.484375 -0.40625 1.6093788l0 2.984375l-0.859375 0l0 -5.703129l0.703125 0l0.140625 0.78125l0.03125 0q0.265625 -0.421875 0.734375 -0.65625q0.484375 -0.234375 1.078125 -0.234375q1.03125 0 1.546875 0.5q0.53125 0.5 0.53125 1.5937538l0 3.71875l-0.875 0zm6.1498413 0l-0.171875 -0.8125l-0.046875 0q-0.421875 0.53125 -0.84375 0.734375q-0.421875 0.1875 -1.0625 0.1875q-0.84375 0 -1.328125 -0.4375q-0.484375 -0.4375 -0.484375 -1.25q0 -1.71875 2.765625 -1.8125l0.96875 -0.03125l0 -0.34375q0 -0.6718788 -0.296875 -0.9843788q-0.28125 -0.328125 -0.921875 -0.328125q-0.703125 0 -1.609375 0.4375l-0.265625 -0.671875q0.421875 -0.21875 0.921875 -0.34375q0.515625 -0.140625 1.015625 -0.140625q1.015625 0 1.5 0.453125q0.5 0.453125 0.5 1.4531288l0 3.890625l-0.640625 0zm-1.953125 -0.609375q0.8125 0 1.265625 -0.4375q0.46875 -0.453125 0.46875 -1.25l0 -0.5l-0.875 0.03125q-1.015625 0.03125 -1.484375 0.3125q-0.453125 0.28125 -0.453125 0.890625q0 0.46875 0.28125 0.71875q0.296875 0.234375 0.796875 0.234375zm6.2077637 0q0.234375 0 0.4375 -0.03125q0.21875 -0.03125 0.34375 -0.078125l0 0.671875q-0.140625 0.0625 -0.421875 0.109375q-0.265625 0.046875 -0.46875 0.046875q-1.65625 0 -1.65625 -1.75l0 -3.3906288l-0.828125 0l0 -0.421875l0.828125 -0.359375l0.359375 -1.21875l0.5 0l0 1.328125l1.65625 0l0 0.671875l-1.65625 0l0 3.3593788q0 0.515625 0.234375 0.796875q0.25 0.265625 0.671875 0.265625zm4.3400574 0.71875q-1.265625 0 -2.0 -0.765625q-0.734375 -0.78125 -0.734375 -2.140625q0 -1.3906288 0.671875 -2.2031288q0.6875 -0.8125 1.828125 -0.8125q1.078125 0 1.703125 0.71875q0.625 0.703125 0.625 1.8593788l0 0.546875l-3.921875 0q0.015625 1.0 0.5 1.515625q0.484375 0.515625 1.359375 0.515625q0.921875 0 1.8125 -0.375l0 0.765625q-0.453125 0.203125 -0.859375 0.28125q-0.40625 0.09375 -0.984375 0.09375zm-0.234375 -5.187504q-0.6875 0 -1.09375 0.453125q-0.40625 0.4375 -0.484375 1.2343788l2.984375 0q0 -0.8281288 -0.375 -1.2500038q-0.359375 -0.4375 -1.03125 -0.4375zm10.996658 3.0468788q0 1.015625 -0.734375 1.578125q-0.734375 0.5625 -1.96875 0.5625q-1.359375 0 -2.09375 -0.359375l0 -0.84375q0.46875 0.1875 1.015625 0.3125q0.5625 0.109375 1.109375 0.109375q0.875 0 1.3125 -0.328125q0.453125 -0.34375 0.453125 -0.9375q0 -0.40625 -0.15625 -0.65625q-0.15625 -0.25 -0.53125 -0.453125q-0.375 -0.21875 -1.125 -0.484375q-1.0625 -0.390625 -1.515625 -0.9062538q-0.453125 -0.515625 -0.453125 -1.359375q0 -0.875 0.65625 -1.390625q0.65625 -0.53125 1.75 -0.53125q1.125 0 2.078125 0.421875l-0.265625 0.765625q-0.953125 -0.390625 -1.84375 -0.390625q-0.6875 0 -1.09375 0.296875q-0.390625 0.296875 -0.390625 0.84375q0 0.390625 0.140625 0.640625q0.15625 0.25 0.5 0.46875q0.34375 0.203125 1.046875 0.46875q1.203125 0.4218788 1.65625 0.9218788q0.453125 0.484375 0.453125 1.25zm3.8328247 2.140625q-1.265625 0 -2.0 -0.765625q-0.734375 -0.78125 -0.734375 -2.140625q0 -1.3906288 0.671875 -2.2031288q0.6875 -0.8125 1.828125 -0.8125q1.078125 0 1.703125 0.71875q0.625 0.703125 0.625 1.8593788l0 0.546875l-3.921875 0q0.015625 1.0 0.5 1.515625q0.484375 0.515625 1.359375 0.515625q0.921875 0 1.8125 -0.375l0 0.765625q-0.453125 0.203125 -0.859375 0.28125q-0.40625 0.09375 -0.984375 0.09375zm-0.234375 -5.187504q-0.6875 0 -1.09375 0.453125q-0.40625 0.4375 -0.484375 1.2343788l2.984375 0q0 -0.8281288 -0.375 -1.2500038q-0.359375 -0.4375 -1.03125 -0.4375zm7.3066406 5.078129l-0.171875 -0.8125l-0.046875 0q-0.421875 0.53125 -0.84375 0.734375q-0.421875 0.1875 -1.0625 0.1875q-0.84375 0 -1.328125 -0.4375q-0.484375 -0.4375 -0.484375 -1.25q0 -1.71875 2.765625 -1.8125l0.96875 -0.03125l0 -0.34375q0 -0.6718788 -0.296875 -0.9843788q-0.28125 -0.328125 -0.921875 -0.328125q-0.703125 0 -1.609375 0.4375l-0.265625 -0.671875q0.421875 -0.21875 0.921875 -0.34375q0.515625 -0.140625 1.015625 -0.140625q1.015625 0 1.5 0.453125q0.5 0.453125 0.5 1.4531288l0 3.890625l-0.640625 0zm-1.953125 -0.609375q0.8125 0 1.265625 -0.4375q0.46875 -0.453125 0.46875 -1.25l0 -0.5l-0.875 0.03125q-1.015625 0.03125 -1.484375 0.3125q-0.453125 0.28125 -0.453125 0.890625q0 0.46875 0.28125 0.71875q0.296875 0.234375 0.796875 0.234375zm6.9733887 -5.203129q0.375 0 0.6875 0.0625l-0.125 0.8125q-0.359375 -0.078125 -0.625 -0.078125q-0.6875 0 -1.1875 0.5625q-0.484375 0.5625038 -0.484375 1.3906288l0 3.0625l-0.859375 0l0 -5.703129l0.703125 0l0.109375 1.0625l0.03125 0q0.328125 -0.5625 0.765625 -0.859375q0.453125 -0.3125 0.984375 -0.3125zm4.0217896 5.921879q-1.234375 0 -1.921875 -0.765625q-0.671875 -0.765625 -0.671875 -2.15625q0 -1.4375038 0.6875 -2.2187538q0.703125 -0.78125 1.96875 -0.78125q0.40625 0 0.8125 0.09375q0.421875 0.09375 0.65625 0.203125l-0.265625 0.734375q-0.28125 -0.109375 -0.625 -0.1875q-0.34375 -0.078125 -0.59375 -0.078125q-1.734375 0 -1.734375 2.2187538q0 1.046875 0.421875 1.609375q0.421875 0.5625 1.25 0.5625q0.71875 0 1.46875 -0.296875l0 0.765625q-0.578125 0.296875 -1.453125 0.296875zm6.6981506 -0.109375l0 -3.6875q0 -0.7031288 -0.3125 -1.0468788q-0.3125 -0.34375 -1.0 -0.34375q-0.890625 0 -1.3125 0.5q-0.40625 0.484375 -0.40625 1.5937538l0 2.984375l-0.859375 0l0 -8.093754l0.859375 0l0 2.453125q0 0.4375 -0.046875 0.734375l0.0625 0q0.25 -0.421875 0.71875 -0.65625q0.46875 -0.234375 1.078125 -0.234375q1.046875 0 1.5625 0.5q0.53125 0.5 0.53125 1.5781288l0 3.71875l-0.875 0z" fill-rule="nonzero"/><path fill="#000000" fill-opacity="0.0" d="m162.54593 275.23605l39.55905 0l0 45.259827l-39.55905 0z" fill-rule="evenodd"/><path fill="#000000" d="m173.48343 304.71603l0 -2.140625l2.140625 0l0 2.140625l-2.140625 0zm5.925644 0l0 -2.140625l2.140625 0l0 2.140625l-2.140625 0zm5.925644 0l0 -2.140625l2.140625 0l0 2.140625l-2.140625 0z" fill-rule="nonzero"/><path fill="#eafca2" d="m124.04199 274.40536l0 0c0 8.141418 26.09439 14.741333 58.283463 14.741333c32.18907 0 58.283463 -6.5999146 58.283463 -14.741333l0 61.72995c0 8.141418 -26.09439 14.741333 -58.283463 14.741333c-32.18907 0 -58.283463 -6.5999146 -58.283463 -14.741333z" fill-rule="evenodd"/><path fill="#f2fdc7" d="m124.04199 274.40536l0 0c0 -8.141418 26.09439 -14.741333 58.283463 -14.741333c32.18907 0 58.283463 6.5999146 58.283463 14.741333l0 0c0 8.141418 -26.09439 14.741333 -58.283463 14.741333c-32.18907 0 -58.283463 -6.5999146 -58.283463 -14.741333z" fill-rule="evenodd"/><path fill="#000000" fill-opacity="0.0" d="m240.60892 274.40536l0 0c0 8.141418 -26.09439 14.741333 -58.283463 14.741333c-32.18907 0 -58.283463 -6.5999146 -58.283463 -14.741333l0 0c0 -8.141418 26.09439 -14.741333 58.283463 -14.741333c32.18907 0 58.283463 6.5999146 58.283463 14.741333l0 61.72995c0 8.141418 -26.09439 14.741333 -58.283463 14.741333c-32.18907 0 -58.283463 -6.5999146 -58.283463 -14.741333l0 -61.72995" fill-rule="evenodd"/><path stroke="#000000" stroke-width="1.0" stroke-linejoin="round" stroke-linecap="butt" d="m240.60892 274.40536l0 0c0 8.141418 -26.09439 14.741333 -58.283463 14.741333c-32.18907 0 -58.283463 -6.5999146 -58.283463 -14.741333l0 0c0 -8.141418 26.09439 -14.741333 58.283463 -14.741333c32.18907 0 58.283463 6.5999146 58.283463 14.741333l0 61.72995c0 8.141418 -26.09439 14.741333 -58.283463 14.741333c-32.18907 0 -58.283463 -6.5999146 -58.283463 -14.741333l0 -61.72995" fill-rule="evenodd"/><path fill="#000000" d="m142.6309 309.881l0 -7.609375l0.890625 0l0 6.8125l3.34375 0l0 0.796875l-4.234375 0zm6.2185516 -5.703125l0 3.703125q0 0.6875 0.3125 1.03125q0.3125 0.34375 0.984375 0.34375q0.90625 0 1.3125 -0.484375q0.421875 -0.484375 0.421875 -1.59375l0 -3.0l0.859375 0l0 5.703125l-0.71875 0l-0.125 -0.765625l-0.046875 0q-0.265625 0.421875 -0.734375 0.65625q-0.46875 0.21875 -1.078125 0.21875q-1.03125 0 -1.546875 -0.5q-0.515625 -0.5 -0.515625 -1.578125l0 -3.734375l0.875 0zm7.9936066 5.8125q-1.234375 0 -1.921875 -0.765625q-0.671875 -0.765625 -0.671875 -2.15625q0 -1.4375 0.6875 -2.21875q0.703125 -0.78125 1.96875 -0.78125q0.40625 0 0.8125 0.09375q0.421875 0.09375 0.65625 0.203125l-0.265625 0.734375q-0.28125 -0.109375 -0.625 -0.1875q-0.34375 -0.078125 -0.59375 -0.078125q-1.734375 0 -1.734375 2.21875q0 1.046875 0.421875 1.609375q0.421875 0.5625 1.25 0.5625q0.71875 0 1.46875 -0.296875l0 0.765625q-0.578125 0.296875 -1.453125 0.296875zm5.213791 0q-1.265625 0 -2.0 -0.765625q-0.734375 -0.78125 -0.734375 -2.140625q0 -1.390625 0.671875 -2.203125q0.6875 -0.8125 1.828125 -0.8125q1.078125 0 1.703125 0.71875q0.625 0.703125 0.625 1.859375l0 0.546875l-3.921875 0q0.015625 1.0 0.5 1.515625q0.484375 0.515625 1.359375 0.515625q0.921875 0 1.8125 -0.375l0 0.765625q-0.453125 0.203125 -0.859375 0.28125q-0.40625 0.09375 -0.984375 0.09375zm-0.234375 -5.1875q-0.6875 0 -1.09375 0.453125q-0.40625 0.4375 -0.484375 1.234375l2.984375 0q0 -0.828125 -0.375 -1.25q-0.359375 -0.4375 -1.03125 -0.4375zm7.697281 5.078125l0 -3.6875q0 -0.703125 -0.3125 -1.046875q-0.3125 -0.34375 -1.0 -0.34375q-0.890625 0 -1.3125 0.484375q-0.40625 0.484375 -0.40625 1.609375l0 2.984375l-0.859375 0l0 -5.703125l0.703125 0l0.140625 0.78125l0.03125 0q0.265625 -0.421875 0.734375 -0.65625q0.484375 -0.234375 1.078125 -0.234375q1.03125 0 1.546875 0.5q0.53125 0.5 0.53125 1.59375l0 3.71875l-0.875 0zm5.0561066 0.109375q-1.265625 0 -2.0 -0.765625q-0.734375 -0.78125 -0.734375 -2.140625q0 -1.390625 0.671875 -2.203125q0.6875 -0.8125 1.828125 -0.8125q1.078125 0 1.703125 0.71875q0.625 0.703125 0.625 1.859375l0 0.546875l-3.921875 0q0.015625 1.0 0.5 1.515625q0.484375 0.515625 1.359375 0.515625q0.921875 0 1.8125 -0.375l0 0.765625q-0.453125 0.203125 -0.859375 0.28125q-0.40625 0.09375 -0.984375 0.09375zm-0.234375 -5.1875q-0.6875 0 -1.09375 0.453125q-0.40625 0.4375 -0.484375 1.234375l2.984375 0q0 -0.828125 -0.375 -1.25q-0.359375 -0.4375 -1.03125 -0.4375zm7.4341583 5.078125l-0.859375 0l0 -5.703125l0.859375 0l0 5.703125zm-0.9375 -7.25q0 -0.296875 0.140625 -0.4375q0.15625 -0.140625 0.375 -0.140625q0.203125 0 0.34375 0.140625q0.15625 0.140625 0.15625 0.4375q0 0.296875 -0.15625 0.4375q-0.140625 0.140625 -0.34375 0.140625q-0.21875 0 -0.375 -0.140625q-0.140625 -0.140625 -0.140625 -0.4375zm6.664032 7.25l0 -3.6875q0 -0.703125 -0.3125 -1.046875q-0.3125 -0.34375 -1.0 -0.34375q-0.890625 0 -1.3125 0.484375q-0.40625 0.484375 -0.40625 1.609375l0 2.984375l-0.859375 0l0 -5.703125l0.703125 0l0.140625 0.78125l0.03125 0q0.265625 -0.421875 0.734375 -0.65625q0.484375 -0.234375 1.078125 -0.234375q1.03125 0 1.546875 0.5q0.53125 0.5 0.53125 1.59375l0 3.71875l-0.875 0zm6.5248566 -0.765625l-0.046875 0q-0.59375 0.875 -1.796875 0.875q-1.109375 0 -1.734375 -0.765625q-0.625 -0.765625 -0.625 -2.171875q0 -1.421875 0.625 -2.203125q0.625 -0.78125 1.734375 -0.78125q1.171875 0 1.78125 0.84375l0.078125 0l-0.046875 -0.40625l-0.015625 -0.40625l0 -2.3125l0.859375 0l0 8.09375l-0.703125 0l-0.109375 -0.765625zm-1.734375 0.140625q0.890625 0 1.28125 -0.46875q0.40625 -0.484375 0.40625 -1.5625l0 -0.171875q0 -1.21875 -0.40625 -1.734375q-0.40625 -0.515625 -1.28125 -0.515625q-0.765625 0 -1.171875 0.59375q-0.390625 0.578125 -0.390625 1.65625q0 1.09375 0.390625 1.65625q0.40625 0.546875 1.171875 0.546875zm6.7957 0.734375q-1.265625 0 -2.0 -0.765625q-0.734375 -0.78125 -0.734375 -2.140625q0 -1.390625 0.671875 -2.203125q0.6875 -0.8125 1.828125 -0.8125q1.078125 0 1.703125 0.71875q0.625 0.703125 0.625 1.859375l0 0.546875l-3.921875 0q0.015625 1.0 0.5 1.515625q0.484375 0.515625 1.359375 0.515625q0.921875 0 1.8125 -0.375l0 0.765625q-0.453125 0.203125 -0.859375 0.28125q-0.40625 0.09375 -0.984375 0.09375zm-0.234375 -5.1875q-0.6875 0 -1.09375 0.453125q-0.40625 0.4375 -0.484375 1.234375l2.984375 0q0 -0.828125 -0.375 -1.25q-0.359375 -0.4375 -1.03125 -0.4375zm5.181656 2.15625l-1.984375 -2.78125l0.984375 0l1.5 2.1875l1.5 -2.1875l0.96875 0l-1.984375 2.78125l2.09375 2.921875l-0.984375 0l-1.59375 -2.3125l-1.609375 2.3125l-0.984375 0l2.09375 -2.921875zm11.898087 0.0625q0 1.390625 -0.703125 2.1875q-0.703125 0.78125 -1.953125 0.78125q-0.75 0 -1.34375 -0.359375q-0.59375 -0.359375 -0.921875 -1.03125q-0.328125 -0.671875 -0.328125 -1.578125q0 -1.390625 0.703125 -2.171875q0.703125 -0.78125 1.9375 -0.78125q1.1875 0 1.890625 0.796875q0.71875 0.796875 0.71875 2.15625zm-4.34375 0q0 1.09375 0.4375 1.671875q0.4375 0.5625 1.28125 0.5625q0.84375 0 1.28125 -0.5625q0.4375 -0.578125 0.4375 -1.671875q0 -1.078125 -0.4375 -1.640625q-0.4375 -0.578125 -1.296875 -0.578125q-0.84375 0 -1.28125 0.5625q-0.421875 0.5625 -0.421875 1.65625zm9.748917 2.859375l0 -3.6875q0 -0.703125 -0.3125 -1.046875q-0.3125 -0.34375 -1.0 -0.34375q-0.890625 0 -1.3125 0.484375q-0.40625 0.484375 -0.40625 1.609375l0 2.984375l-0.859375 0l0 -5.703125l0.703125 0l0.140625 0.78125l0.03125 0q0.265625 -0.421875 0.734375 -0.65625q0.484375 -0.234375 1.078125 -0.234375q1.03125 0 1.546875 0.5q0.53125 0.5 0.53125 1.59375l0 3.71875l-0.875 0z" fill-rule="nonzero"/><path fill="#000000" d="m146.22447 322.881l-0.859375 0l0 -8.09375l0.859375 0l0 8.09375zm6.757782 -2.859375q0 1.390625 -0.703125 2.1875q-0.703125 0.78125 -1.953125 0.78125q-0.75 0 -1.34375 -0.359375q-0.59375 -0.359375 -0.921875 -1.03125q-0.328125 -0.671875 -0.328125 -1.578125q0 -1.390625 0.703125 -2.171875q0.703125 -0.78125 1.9375 -0.78125q1.1875 0 1.890625 0.796875q0.71875 0.796875 0.71875 2.15625zm-4.34375 0q0 1.09375 0.4375 1.671875q0.4375 0.5625 1.28125 0.5625q0.84375 0 1.28125 -0.5625q0.4375 -0.578125 0.4375 -1.671875q0 -1.078125 -0.4375 -1.640625q-0.4375 -0.578125 -1.296875 -0.578125q-0.84375 0 -1.28125 0.5625q-0.421875 0.5625 -0.421875 1.65625zm8.123917 2.96875q-1.234375 0 -1.921875 -0.765625q-0.671875 -0.765625 -0.671875 -2.15625q0 -1.4375 0.6875 -2.21875q0.703125 -0.78125 1.96875 -0.78125q0.40625 0 0.8125 0.09375q0.421875 0.09375 0.65625 0.203125l-0.265625 0.734375q-0.28125 -0.109375 -0.625 -0.1875q-0.34375 -0.078125 -0.59375 -0.078125q-1.734375 0 -1.734375 2.21875q0 1.046875 0.421875 1.609375q0.421875 0.5625 1.25 0.5625q0.71875 0 1.46875 -0.296875l0 0.765625q-0.578125 0.296875 -1.453125 0.296875zm6.307541 -0.109375l-0.171875 -0.8125l-0.046875 0q-0.421875 0.53125 -0.84375 0.734375q-0.421875 0.1875 -1.0625 0.1875q-0.84375 0 -1.328125 -0.4375q-0.484375 -0.4375 -0.484375 -1.25q0 -1.71875 2.765625 -1.8125l0.96875 -0.03125l0 -0.34375q0 -0.671875 -0.296875 -0.984375q-0.28125 -0.328125 -0.921875 -0.328125q-0.703125 0 -1.609375 0.4375l-0.265625 -0.671875q0.421875 -0.21875 0.921875 -0.34375q0.515625 -0.140625 1.015625 -0.140625q1.015625 0 1.5 0.453125q0.5 0.453125 0.5 1.453125l0 3.890625l-0.640625 0zm-1.953125 -0.609375q0.8125 0 1.265625 -0.4375q0.46875 -0.453125 0.46875 -1.25l0 -0.5l-0.875 0.03125q-1.015625 0.03125 -1.484375 0.3125q-0.453125 0.28125 -0.453125 0.890625q0 0.46875 0.28125 0.71875q0.296875 0.234375 0.796875 0.234375zm5.2389984 0.609375l-0.859375 0l0 -8.09375l0.859375 0l0 8.09375zm7.1665344 -5.03125l-1.453125 0l0 5.03125l-0.859375 0l0 -5.03125l-1.015625 0l0 -0.390625l1.015625 -0.3125l0 -0.3125q0 -2.109375 1.828125 -2.109375q0.453125 0 1.0625 0.1875l-0.21875 0.6875q-0.5 -0.15625 -0.859375 -0.15625q-0.484375 0 -0.71875 0.328125q-0.234375 0.3125 -0.234375 1.03125l0 0.375l1.453125 0l0 0.671875zm1.90625 5.03125l-0.859375 0l0 -5.703125l0.859375 0l0 5.703125zm-0.9375 -7.25q0 -0.296875 0.140625 -0.4375q0.15625 -0.140625 0.375 -0.140625q0.203125 0 0.34375 0.140625q0.15625 0.140625 0.15625 0.4375q0 0.296875 -0.15625 0.4375q-0.140625 0.140625 -0.34375 0.140625q-0.21875 0 -0.375 -0.140625q-0.140625 -0.140625 -0.140625 -0.4375zm3.6344604 7.25l-0.859375 0l0 -8.09375l0.859375 0l0 8.09375zm4.242157 0.109375q-1.265625 0 -2.0 -0.765625q-0.734375 -0.78125 -0.734375 -2.140625q0 -1.390625 0.671875 -2.203125q0.6875 -0.8125 1.828125 -0.8125q1.078125 0 1.703125 0.71875q0.625 0.703125 0.625 1.859375l0 0.546875l-3.921875 0q0.015625 1.0 0.5 1.515625q0.484375 0.515625 1.359375 0.515625q0.921875 0 1.8125 -0.375l0 0.765625q-0.453125 0.203125 -0.859375 0.28125q-0.40625 0.09375 -0.984375 0.09375zm-0.234375 -5.1875q-0.6875 0 -1.09375 0.453125q-0.40625 0.4375 -0.484375 1.234375l2.984375 0q0 -0.828125 -0.375 -1.25q-0.359375 -0.4375 -1.03125 -0.4375zm7.478531 3.515625q0 0.796875 -0.59375 1.234375q-0.59375 0.4375 -1.65625 0.4375q-1.140625 0 -1.78125 -0.359375l0 -0.8125q0.421875 0.21875 0.890625 0.34375q0.46875 0.109375 0.90625 0.109375q0.671875 0 1.03125 -0.21875q0.375 -0.21875 0.375 -0.65625q0 -0.328125 -0.296875 -0.5625q-0.28125 -0.25 -1.125 -0.5625q-0.796875 -0.296875 -1.140625 -0.515625q-0.328125 -0.21875 -0.5 -0.5q-0.15625 -0.28125 -0.15625 -0.671875q0 -0.703125 0.5625 -1.109375q0.578125 -0.40625 1.5625 -0.40625q0.921875 0 1.796875 0.375l-0.296875 0.703125q-0.859375 -0.34375 -1.5625 -0.34375q-0.609375 0 -0.921875 0.1875q-0.3125 0.1875 -0.3125 0.53125q0 0.234375 0.109375 0.390625q0.125 0.15625 0.375 0.3125q0.265625 0.140625 1.0 0.421875q1.015625 0.359375 1.375 0.734375q0.359375 0.375 0.359375 0.9375zm0.5054474 -4.140625l0.921875 0l1.25 3.25q0.40625 1.109375 0.5 1.609375l0.046875 0q0.0625 -0.265625 0.28125 -0.90625q0.21875 -0.640625 1.421875 -3.953125l0.921875 0l-2.453125 6.5q-0.359375 0.953125 -0.84375 1.359375q-0.484375 0.40625 -1.203125 0.40625q-0.390625 0 -0.78125 -0.09375l0 -0.6875q0.296875 0.0625 0.640625 0.0625q0.890625 0 1.28125 -1.0l0.3125 -0.8125l-2.296875 -5.734375zm9.947876 4.140625q0 0.796875 -0.59375 1.234375q-0.59375 0.4375 -1.65625 0.4375q-1.140625 0 -1.78125 -0.359375l0 -0.8125q0.421875 0.21875 0.890625 0.34375q0.46875 0.109375 0.90625 0.109375q0.671875 0 1.03125 -0.21875q0.375 -0.21875 0.375 -0.65625q0 -0.328125 -0.296875 -0.5625q-0.28125 -0.25 -1.125 -0.5625q-0.796875 -0.296875 -1.140625 -0.515625q-0.328125 -0.21875 -0.5 -0.5q-0.15625 -0.28125 -0.15625 -0.671875q0 -0.703125 0.5625 -1.109375q0.578125 -0.40625 1.5625 -0.40625q0.921875 0 1.796875 0.375l-0.296875 0.703125q-0.859375 -0.34375 -1.5625 -0.34375q-0.609375 0 -0.921875 0.1875q-0.3125 0.1875 -0.3125 0.53125q0 0.234375 0.109375 0.390625q0.125 0.15625 0.375 0.3125q0.265625 0.140625 1.0 0.421875q1.015625 0.359375 1.375 0.734375q0.359375 0.375 0.359375 0.9375zm3.2398224 0.953125q0.234375 0 0.4375 -0.03125q0.21875 -0.03125 0.34375 -0.078125l0 0.671875q-0.140625 0.0625 -0.421875 0.109375q-0.265625 0.046875 -0.46875 0.046875q-1.65625 0 -1.65625 -1.75l0 -3.390625l-0.828125 0l0 -0.421875l0.828125 -0.359375l0.359375 -1.21875l0.5 0l0 1.328125l1.65625 0l0 0.671875l-1.65625 0l0 3.359375q0 0.515625 0.234375 0.796875q0.25 0.265625 0.671875 0.265625zm4.3400726 0.71875q-1.265625 0 -2.0 -0.765625q-0.734375 -0.78125 -0.734375 -2.140625q0 -1.390625 0.671875 -2.203125q0.6875 -0.8125 1.828125 -0.8125q1.078125 0 1.703125 0.71875q0.625 0.703125 0.625 1.859375l0 0.546875l-3.921875 0q0.015625 1.0 0.5 1.515625q0.484375 0.515625 1.359375 0.515625q0.921875 0 1.8125 -0.375l0 0.765625q-0.453125 0.203125 -0.859375 0.28125q-0.40625 0.09375 -0.984375 0.09375zm-0.234375 -5.1875q-0.6875 0 -1.09375 0.453125q-0.40625 0.4375 -0.484375 1.234375l2.984375 0q0 -0.828125 -0.375 -1.25q-0.359375 -0.4375 -1.03125 -0.4375zm11.072281 5.078125l0 -3.703125q0 -0.6875 -0.296875 -1.03125q-0.28125 -0.34375 -0.90625 -0.34375q-0.796875 0 -1.1875 0.46875q-0.390625 0.46875 -0.390625 1.421875l0 3.1875l-0.859375 0l0 -3.703125q0 -0.6875 -0.296875 -1.03125q-0.28125 -0.34375 -0.90625 -0.34375q-0.8125 0 -1.1875 0.5q-0.375 0.484375 -0.375 1.59375l0 2.984375l-0.859375 0l0 -5.703125l0.703125 0l0.140625 0.78125l0.03125 0q0.25 -0.421875 0.6875 -0.65625q0.453125 -0.234375 1.0 -0.234375q1.34375 0 1.75 0.96875l0.046875 0q0.25 -0.4375 0.734375 -0.703125q0.484375 -0.265625 1.109375 -0.265625q0.953125 0 1.4375 0.5q0.484375 0.5 0.484375 1.59375l0 3.71875l-0.859375 0z" fill-rule="nonzero"/><path fill="#aff49d" d="m138.95462 134.3106l0 0c0 -3.5631104 2.8884735 -6.4515686 6.451584 -6.4515686l73.837006 0c1.7110596 0 3.3520508 0.679718 4.5619507 1.8896179c1.2098999 1.2098999 1.8896179 2.850891 1.8896179 4.5619507l0 25.805511c0 3.5631104 -2.8884583 6.451584 -6.4515686 6.451584l-73.837006 0c-3.5631104 0 -6.451584 -2.8884735 -6.451584 -6.451584z" fill-rule="evenodd"/><path stroke="#000000" stroke-width="1.0" stroke-linejoin="round" stroke-linecap="butt" d="m138.95462 134.3106l0 0c0 -3.5631104 2.8884735 -6.4515686 6.451584 -6.4515686l73.837006 0c1.7110596 0 3.3520508 0.679718 4.5619507 1.8896179c1.2098999 1.2098999 1.8896179 2.850891 1.8896179 4.5619507l0 25.805511c0 3.5631104 -2.8884583 6.451584 -6.4515686 6.451584l-73.837006 0c-3.5631104 0 -6.451584 -2.8884735 -6.451584 -6.451584z" fill-rule="evenodd"/><path fill="#000000" d="m160.33887 144.45335l-0.953125 -2.421875l-3.046875 0l-0.9375 2.421875l-0.890625 0l3.0 -7.640625l0.75 0l3.0 7.640625l-0.921875 0zm-1.21875 -3.21875l-0.890625 -2.359375q-0.171875 -0.4375 -0.359375 -1.09375q-0.109375 0.5 -0.328125 1.09375l-0.890625 2.359375l2.46875 0zm5.696533 3.328125q-0.546875 0 -1.015625 -0.203125q-0.453125 -0.21875 -0.765625 -0.640625l-0.0625 0q0.0625 0.5 0.0625 0.953125l0 2.34375l-0.859375 0l0 -8.265625l0.703125 0l0.109375 0.78125l0.046875 0q0.328125 -0.46875 0.765625 -0.671875q0.453125 -0.21875 1.015625 -0.21875q1.140625 0 1.75 0.78125q0.625 0.78125 0.625 2.171875q0 1.40625 -0.625 2.1875q-0.625 0.78125 -1.75 0.78125zm-0.125 -5.1875q-0.859375 0 -1.25 0.484375q-0.390625 0.484375 -0.40625 1.546875l0 0.1875q0 1.203125 0.390625 1.71875q0.40625 0.515625 1.296875 0.515625q0.734375 0 1.15625 -0.59375q0.421875 -0.59375 0.421875 -1.640625q0 -1.078125 -0.421875 -1.640625q-0.421875 -0.578125 -1.1875 -0.578125zm6.655075 5.1875q-0.546875 0 -1.015625 -0.203125q-0.453125 -0.21875 -0.765625 -0.640625l-0.0625 0q0.0625 0.5 0.0625 0.953125l0 2.34375l-0.859375 0l0 -8.265625l0.703125 0l0.109375 0.78125l0.046875 0q0.328125 -0.46875 0.765625 -0.671875q0.453125 -0.21875 1.015625 -0.21875q1.140625 0 1.75 0.78125q0.625 0.78125 0.625 2.171875q0 1.40625 -0.625 2.1875q-0.625 0.78125 -1.75 0.78125zm-0.125 -5.1875q-0.859375 0 -1.25 0.484375q-0.390625 0.484375 -0.40625 1.546875l0 0.1875q0 1.203125 0.390625 1.71875q0.40625 0.515625 1.296875 0.515625q0.734375 0 1.15625 -0.59375q0.421875 -0.59375 0.421875 -1.640625q0 -1.078125 -0.421875 -1.640625q-0.421875 -0.578125 -1.1875 -0.578125zm4.873825 5.078125l-0.859375 0l0 -8.09375l0.859375 0l0 8.09375zm2.695282 0l-0.859375 0l0 -5.703125l0.859375 0l0 5.703125zm-0.9375 -7.25q0 -0.296875 0.140625 -0.4375q0.15625 -0.140625 0.375 -0.140625q0.203125 0 0.34375 0.140625q0.15625 0.140625 0.15625 0.4375q0 0.296875 -0.15625 0.4375q-0.140625 0.140625 -0.34375 0.140625q-0.21875 0 -0.375 -0.140625q-0.140625 -0.140625 -0.140625 -0.4375zm5.039032 7.359375q-1.234375 0 -1.921875 -0.765625q-0.671875 -0.765625 -0.671875 -2.15625q0 -1.4375 0.6875 -2.21875q0.703125 -0.78125 1.96875 -0.78125q0.40625 0 0.8125 0.09375q0.421875 0.09375 0.65625 0.203125l-0.265625 0.734375q-0.28125 -0.109375 -0.625 -0.1875q-0.34375 -0.078125 -0.59375 -0.078125q-1.734375 0 -1.734375 2.21875q0 1.046875 0.421875 1.609375q0.421875 0.5625 1.25 0.5625q0.71875 0 1.46875 -0.296875l0 0.765625q-0.578125 0.296875 -1.453125 0.296875zm6.307541 -0.109375l-0.171875 -0.8125l-0.046875 0q-0.421875 0.53125 -0.84375 0.734375q-0.421875 0.1875 -1.0625 0.1875q-0.84375 0 -1.328125 -0.4375q-0.484375 -0.4375 -0.484375 -1.25q0 -1.71875 2.765625 -1.8125l0.96875 -0.03125l0 -0.34375q0 -0.671875 -0.296875 -0.984375q-0.28125 -0.328125 -0.921875 -0.328125q-0.703125 0 -1.609375 0.4375l-0.265625 -0.671875q0.421875 -0.21875 0.921875 -0.34375q0.515625 -0.140625 1.015625 -0.140625q1.015625 0 1.5 0.453125q0.5 0.453125 0.5 1.453125l0 3.890625l-0.640625 0zm-1.953125 -0.609375q0.8125 0 1.265625 -0.4375q0.46875 -0.453125 0.46875 -1.25l0 -0.5l-0.875 0.03125q-1.015625 0.03125 -1.484375 0.3125q-0.453125 0.28125 -0.453125 0.890625q0 0.46875 0.28125 0.71875q0.296875 0.234375 0.796875 0.234375zm6.2077484 0q0.234375 0 0.4375 -0.03125q0.21875 -0.03125 0.34375 -0.078125l0 0.671875q-0.140625 0.0625 -0.421875 0.109375q-0.265625 0.046875 -0.46875 0.046875q-1.65625 0 -1.65625 -1.75l0 -3.390625l-0.828125 0l0 -0.421875l0.828125 -0.359375l0.359375 -1.21875l0.5 0l0 1.328125l1.65625 0l0 0.671875l-1.65625 0l0 3.359375q0 0.515625 0.234375 0.796875q0.25 0.265625 0.671875 0.265625zm2.7931976 0.609375l-0.859375 0l0 -5.703125l0.859375 0l0 5.703125zm-0.9375 -7.25q0 -0.296875 0.140625 -0.4375q0.15625 -0.140625 0.375 -0.140625q0.203125 0 0.34375 0.140625q0.15625 0.140625 0.15625 0.4375q0 0.296875 -0.15625 0.4375q-0.140625 0.140625 -0.34375 0.140625q-0.21875 0 -0.375 -0.140625q-0.140625 -0.140625 -0.140625 -0.4375zm7.695282 4.390625q0 1.390625 -0.703125 2.1875q-0.703125 0.78125 -1.953125 0.78125q-0.75 0 -1.34375 -0.359375q-0.59375 -0.359375 -0.921875 -1.03125q-0.328125 -0.671875 -0.328125 -1.578125q0 -1.390625 0.703125 -2.171875q0.703125 -0.78125 1.9375 -0.78125q1.1875 0 1.890625 0.796875q0.71875 0.796875 0.71875 2.15625zm-4.34375 0q0 1.09375 0.4375 1.671875q0.4375 0.5625 1.28125 0.5625q0.84375 0 1.28125 -0.5625q0.4375 -0.578125 0.4375 -1.671875q0 -1.078125 -0.4375 -1.640625q-0.4375 -0.578125 -1.296875 -0.578125q-0.84375 0 -1.28125 0.5625q-0.421875 0.5625 -0.421875 1.65625zm9.748917 2.859375l0 -3.6875q0 -0.703125 -0.3125 -1.046875q-0.3125 -0.34375 -1.0 -0.34375q-0.890625 0 -1.3125 0.484375q-0.40625 0.484375 -0.40625 1.609375l0 2.984375l-0.859375 0l0 -5.703125l0.703125 0l0.140625 0.78125l0.03125 0q0.265625 -0.421875 0.734375 -0.65625q0.484375 -0.234375 1.078125 -0.234375q1.03125 0 1.546875 0.5q0.53125 0.5 0.53125 1.59375l0 3.71875l-0.875 0z" fill-rule="nonzero"/><path fill="#000000" d="m165.9892 156.84398q0.234375 0 0.4375 -0.03125q0.21875 -0.03125 0.34375 -0.078125l0 0.671875q-0.140625 0.0625 -0.421875 0.109375q-0.265625 0.046875 -0.46875 0.046875q-1.65625 0 -1.65625 -1.75l0 -3.390625l-0.828125 0l0 -0.421875l0.828125 -0.359375l0.359375 -1.21875l0.5 0l0 1.328125l1.65625 0l0 0.671875l-1.65625 0l0 3.359375q0 0.515625 0.234375 0.796875q0.25 0.265625 0.671875 0.265625zm5.8244476 0.609375l0 -3.6875q0 -0.703125 -0.3125 -1.046875q-0.3125 -0.34375 -1.0 -0.34375q-0.890625 0 -1.3125 0.5q-0.40625 0.484375 -0.40625 1.59375l0 2.984375l-0.859375 0l0 -8.09375l0.859375 0l0 2.453125q0 0.4375 -0.046875 0.734375l0.0625 0q0.25 -0.421875 0.71875 -0.65625q0.46875 -0.234375 1.078125 -0.234375q1.046875 0 1.5625 0.5q0.53125 0.5 0.53125 1.578125l0 3.71875l-0.875 0zm5.2436066 -5.8125q0.375 0 0.6875 0.0625l-0.125 0.8125q-0.359375 -0.078125 -0.625 -0.078125q-0.6875 0 -1.1875 0.5625q-0.484375 0.5625 -0.484375 1.390625l0 3.0625l-0.859375 0l0 -5.703125l0.703125 0l0.109375 1.0625l0.03125 0q0.328125 -0.5625 0.765625 -0.859375q0.453125 -0.3125 0.984375 -0.3125zm4.1624146 5.921875q-1.265625 0 -2.0 -0.765625q-0.734375 -0.78125 -0.734375 -2.140625q0 -1.390625 0.671875 -2.203125q0.6875 -0.8125 1.828125 -0.8125q1.078125 0 1.703125 0.71875q0.625 0.703125 0.625 1.859375l0 0.546875l-3.921875 0q0.015625 1.0 0.5 1.515625q0.484375 0.515625 1.359375 0.515625q0.921875 0 1.8125 -0.375l0 0.765625q-0.453125 0.203125 -0.859375 0.28125q-0.40625 0.09375 -0.984375 0.09375zm-0.234375 -5.1875q-0.6875 0 -1.09375 0.453125q-0.40625 0.4375 -0.484375 1.234375l2.984375 0q0 -0.828125 -0.375 -1.25q-0.359375 -0.4375 -1.03125 -0.4375zm7.306656 5.078125l-0.171875 -0.8125l-0.046875 0q-0.421875 0.53125 -0.84375 0.734375q-0.421875 0.1875 -1.0625 0.1875q-0.84375 0 -1.328125 -0.4375q-0.484375 -0.4375 -0.484375 -1.25q0 -1.71875 2.765625 -1.8125l0.96875 -0.03125l0 -0.34375q0 -0.671875 -0.296875 -0.984375q-0.28125 -0.328125 -0.921875 -0.328125q-0.703125 0 -1.609375 0.4375l-0.265625 -0.671875q0.421875 -0.21875 0.921875 -0.34375q0.515625 -0.140625 1.015625 -0.140625q1.015625 0 1.5 0.453125q0.5 0.453125 0.5 1.453125l0 3.890625l-0.640625 0zm-1.953125 -0.609375q0.8125 0 1.265625 -0.4375q0.46875 -0.453125 0.46875 -1.25l0 -0.5l-0.875 0.03125q-1.015625 0.03125 -1.484375 0.3125q-0.453125 0.28125 -0.453125 0.890625q0 0.46875 0.28125 0.71875q0.296875 0.234375 0.796875 0.234375zm8.254623 -0.15625l-0.046875 0q-0.59375 0.875 -1.796875 0.875q-1.109375 0 -1.734375 -0.765625q-0.625 -0.765625 -0.625 -2.171875q0 -1.421875 0.625 -2.203125q0.625 -0.78125 1.734375 -0.78125q1.171875 0 1.78125 0.84375l0.078125 0l-0.046875 -0.40625l-0.015625 -0.40625l0 -2.3125l0.859375 0l0 8.09375l-0.703125 0l-0.109375 -0.765625zm-1.734375 0.140625q0.890625 0 1.28125 -0.46875q0.40625 -0.484375 0.40625 -1.5625l0 -0.171875q0 -1.21875 -0.40625 -1.734375q-0.40625 -0.515625 -1.28125 -0.515625q-0.765625 0 -1.171875 0.59375q-0.390625 0.578125 -0.390625 1.65625q0 1.09375 0.390625 1.65625q0.40625 0.546875 1.171875 0.546875zm8.061325 -0.9375q0 0.796875 -0.59375 1.234375q-0.59375 0.4375 -1.65625 0.4375q-1.140625 0 -1.78125 -0.359375l0 -0.8125q0.421875 0.21875 0.890625 0.34375q0.46875 0.109375 0.90625 0.109375q0.671875 0 1.03125 -0.21875q0.375 -0.21875 0.375 -0.65625q0 -0.328125 -0.296875 -0.5625q-0.28125 -0.25 -1.125 -0.5625q-0.796875 -0.296875 -1.140625 -0.515625q-0.328125 -0.21875 -0.5 -0.5q-0.15625 -0.28125 -0.15625 -0.671875q0 -0.703125 0.5625 -1.109375q0.578125 -0.40625 1.5625 -0.40625q0.921875 0 1.796875 0.375l-0.296875 0.703125q-0.859375 -0.34375 -1.5625 -0.34375q-0.609375 0 -0.921875 0.1875q-0.3125 0.1875 -0.3125 0.53125q0 0.234375 0.109375 0.390625q0.125 0.15625 0.375 0.3125q0.265625 0.140625 1.0 0.421875q1.015625 0.359375 1.375 0.734375q0.359375 0.375 0.359375 0.9375z" fill-rule="nonzero"/><path fill="#000000" fill-opacity="0.0" d="m200.5477 166.56693l-20.519684 -32.314957l-20.519684 32.314957z" fill-rule="evenodd"/></g></svg>