<svg version="1.1" viewBox="0.0 0.0 654.0288713910761 457.4540682414698" fill="none" stroke="none" stroke-linecap="square" stroke-miterlimit="10" xmlns:xlink="http://www.w3.org/1999/xlink" xmlns="http://www.w3.org/2000/svg"><clipPath id="p.0"><path d="m0 0l654.0289 0l0 457.45407l-654.0289 0l0 -457.45407z" clip-rule="nonzero"/></clipPath><g clip-path="url(#p.0)"><path fill="#ffffff" d="m0 0l654.0289 0l0 457.45407l-654.0289 0z" fill-rule="evenodd"/><path fill="#aff49d" d="m60.496063 106.63014l0 0c0 -6.204262 5.0295563 -11.233818 11.233818 -11.233818l105.2174 0c2.9794006 0 5.8367615 1.1835632 7.943512 3.2903137c2.1067505 2.1067505 3.2903137 4.9641113 3.2903137 7.9435043l0 44.933945c0 6.204254 -5.0295563 11.23381 -11.233826 11.23381l-105.2174 0l0 0c-6.204262 0 -11.233818 -5.0295563 -11.233818 -11.23381z" fill-rule="evenodd"/><path stroke="#000000" stroke-width="1.0" stroke-linejoin="round" stroke-linecap="butt" d="m60.496063 106.63014l0 0c0 -6.204262 5.0295563 -11.233818 11.233818 -11.233818l105.2174 0c2.9794006 0 5.8367615 1.1835632 7.943512 3.2903137c2.1067505 2.1067505 3.2903137 4.9641113 3.2903137 7.9435043l0 44.933945c0 6.204254 -5.0295563 11.23381 -11.233826 11.23381l-105.2174 0l0 0c-6.204262 0 -11.233818 -5.0295563 -11.233818 -11.23381z" fill-rule="evenodd"/><path fill="#000000" d="m92.717316 119.83711l-0.890625 0l0 -3.578125l-4.0 0l0 3.578125l-0.890625 0l0 -7.609375l0.890625 0l0 3.234375l4.0 0l0 -3.234375l0.890625 0l0 7.609375zm2.8152313 0l-0.859375 0l0 -5.703125l0.859375 0l0 5.703125zm-0.9375 -7.25q0 -0.296875 0.140625 -0.4375q0.15625 -0.140625 0.375 -0.140625q0.203125 0 0.34375 0.140625q0.15625 0.140625 0.15625 0.4375q0 0.296875 -0.15625 0.4375q-0.140625 0.140625 -0.34375 0.140625q-0.21875 0 -0.375 -0.140625q-0.140625 -0.140625 -0.140625 -0.4375zm5.414032 1.453125q1.125 0 1.75 0.765625q0.625 0.765625 0.625 2.171875q0 1.40625 -0.625 2.1875q-0.625 0.78125 -1.75 0.78125q-0.546875 0 -1.015625 -0.203125q-0.453125 -0.21875 -0.765625 -0.640625l-0.0625 0l-0.1875 0.734375l-0.609375 0l0 -8.09375l0.859375 0l0 1.96875q0 0.65625 -0.046875 1.1875l0.046875 0q0.609375 -0.859375 1.78125 -0.859375zm-0.125 0.71875q-0.875 0 -1.265625 0.515625q-0.390625 0.5 -0.390625 1.703125q0 1.203125 0.390625 1.71875q0.40625 0.515625 1.296875 0.515625q0.796875 0 1.1875 -0.578125q0.390625 -0.578125 0.390625 -1.65625q0 -1.125 -0.390625 -1.671875q-0.390625 -0.546875 -1.21875 -0.546875zm6.4207 5.1875q-1.265625 0 -2.0 -0.765625q-0.734375 -0.78125 -0.734375 -2.140625q0 -1.390625 0.671875 -2.203125q0.6875 -0.8125 1.828125 -0.8125q1.078125 0 1.703125 0.71875q0.625 0.703125 0.625 1.859375l0 0.546875l-3.921875 0q0.015625 1.0 0.5 1.515625q0.484375 0.515625 1.359375 0.515625q0.921875 0 1.8125 -0.375l0 0.765625q-0.453125 0.203125 -0.859375 0.28125q-0.40625 0.09375 -0.984375 0.09375zm-0.234375 -5.1875q-0.6875 0 -1.09375 0.453125q-0.40625 0.4375 -0.484375 1.234375l2.984375 0q0 -0.828125 -0.375 -1.25q-0.359375 -0.4375 -1.03125 -0.4375zm6.400406 -0.734375q0.375 0 0.6875 0.0625l-0.125 0.8125q-0.359375 -0.078125 -0.625 -0.078125q-0.6875 0 -1.1875 0.5625q-0.484375 0.5625 -0.484375 1.390625l0 3.0625l-0.859375 0l0 -5.703125l0.703125 0l0.109375 1.0625l0.03125 0q0.328125 -0.5625 0.765625 -0.859375q0.453125 -0.3125 0.984375 -0.3125zm5.6467896 5.8125l0 -3.6875q0 -0.703125 -0.3125 -1.046875q-0.3125 -0.34375 -1.0 -0.34375q-0.890625 0 -1.3125 0.484375q-0.40625 0.484375 -0.40625 1.609375l0 2.984375l-0.859375 0l0 -5.703125l0.703125 0l0.140625 0.78125l0.03125 0q0.265625 -0.421875 0.734375 -0.65625q0.484375 -0.234375 1.078125 -0.234375q1.03125 0 1.546875 0.5q0.53125 0.5 0.53125 1.59375l0 3.71875l-0.875 0zm6.1498566 0l-0.171875 -0.8125l-0.046875 0q-0.421875 0.53125 -0.84375 0.734375q-0.421875 0.1875 -1.0625 0.1875q-0.84375 0 -1.328125 -0.4375q-0.484375 -0.4375 -0.484375 -1.25q0 -1.71875 2.765625 -1.8125l0.96875 -0.03125l0 -0.34375q0 -0.671875 -0.296875 -0.984375q-0.28125 -0.328125 -0.921875 -0.328125q-0.703125 0 -1.609375 0.4375l-0.265625 -0.671875q0.421875 -0.21875 0.921875 -0.34375q0.515625 -0.140625 1.015625 -0.140625q1.015625 0 1.5 0.453125q0.5 0.453125 0.5 1.453125l0 3.890625l-0.640625 0zm-1.953125 -0.609375q0.8125 0 1.265625 -0.4375q0.46875 -0.453125 0.46875 -1.25l0 -0.5l-0.875 0.03125q-1.015625 0.03125 -1.484375 0.3125q-0.453125 0.28125 -0.453125 0.890625q0 0.46875 0.28125 0.71875q0.296875 0.234375 0.796875 0.234375zm6.2077484 0q0.234375 0 0.4375 -0.03125q0.21875 -0.03125 0.34375 -0.078125l0 0.671875q-0.140625 0.0625 -0.421875 0.109375q-0.265625 0.046875 -0.46875 0.046875q-1.65625 0 -1.65625 -1.75l0 -3.390625l-0.828125 0l0 -0.421875l0.828125 -0.359375l0.359375 -1.21875l0.5 0l0 1.328125l1.65625 0l0 0.671875l-1.65625 0l0 3.359375q0 0.515625 0.234375 0.796875q0.25 0.265625 0.671875 0.265625zm4.3400726 0.71875q-1.265625 0 -2.0 -0.765625q-0.734375 -0.78125 -0.734375 -2.140625q0 -1.390625 0.671875 -2.203125q0.6875 -0.8125 1.828125 -0.8125q1.078125 0 1.703125 0.71875q0.625 0.703125 0.625 1.859375l0 0.546875l-3.921875 0q0.015625 1.0 0.5 1.515625q0.484375 0.515625 1.359375 0.515625q0.921875 0 1.8125 -0.375l0 0.765625q-0.453125 0.203125 -0.859375 0.28125q-0.40625 0.09375 -0.984375 0.09375zm-0.234375 -5.1875q-0.6875 0 -1.09375 0.453125q-0.40625 0.4375 -0.484375 1.234375l2.984375 0q0 -0.828125 -0.375 -1.25q-0.359375 -0.4375 -1.03125 -0.4375zm13.309158 1.265625q0 1.828125 -0.9375 2.875q-0.921875 1.046875 -2.5625 1.046875q-1.671875 0 -2.59375 -1.03125q-0.90625 -1.03125 -0.90625 -2.90625q0 -1.859375 0.90625 -2.875q0.921875 -1.03125 2.609375 -1.03125q1.640625 0 2.5625 1.046875q0.921875 1.046875 0.921875 2.875zm-6.0625 0q0 1.546875 0.65625 2.34375q0.65625 0.796875 1.90625 0.796875q1.265625 0 1.90625 -0.796875q0.65625 -0.796875 0.65625 -2.34375q0 -1.53125 -0.65625 -2.328125q-0.640625 -0.796875 -1.890625 -0.796875q-1.265625 0 -1.921875 0.796875q-0.65625 0.796875 -0.65625 2.328125zm8.642929 0.65625l0 3.15625l-0.890625 0l0 -7.609375l2.078125 0q1.40625 0 2.078125 0.546875q0.671875 0.53125 0.671875 1.609375q0 1.5 -1.53125 2.03125l2.0625 3.421875l-1.046875 0l-1.84375 -3.15625l-1.578125 0zm0 -0.765625l1.203125 0q0.9375 0 1.375 -0.375q0.4375 -0.375 0.4375 -1.109375q0 -0.765625 -0.453125 -1.09375q-0.4375 -0.328125 -1.421875 -0.328125l-1.140625 0l0 2.90625zm9.056061 3.921875l-2.578125 -6.75l-0.03125 0q0.0625 0.8125 0.0625 1.90625l0 4.84375l-0.8125 0l0 -7.609375l1.328125 0l2.40625 6.28125l0.046875 0l2.4375 -6.28125l1.3125 0l0 7.609375l-0.875 0l0 -4.90625q0 -0.84375 0.0625 -1.828125l-0.03125 0l-2.609375 6.734375l-0.71875 0z" fill-rule="nonzero"/><path fill="#000000" d="m124.68271 128.72774l2.15625 0l0 0.71875l-2.15625 0l0 2.203125l-0.71875 0l0 -2.203125l-2.125 0l0 -0.71875l2.125 0l0 -2.234375l0.71875 0l0 2.234375z" fill-rule="nonzero"/><path fill="#000000" d="m88.11244 145.83711l-0.890625 0l0 -3.578125l-4.0 0l0 3.578125l-0.890625 0l0 -7.609375l0.890625 0l0 3.234375l4.0 0l0 -3.234375l0.890625 0l0 7.609375zm2.8152313 0l-0.859375 0l0 -5.703125l0.859375 0l0 5.703125zm-0.9375 -7.25q0 -0.296875 0.140625 -0.4375q0.15625 -0.140625 0.375 -0.140625q0.203125 0 0.34375 0.140625q0.15625 0.140625 0.15625 0.4375q0 0.296875 -0.15625 0.4375q-0.140625 0.140625 -0.34375 0.140625q-0.21875 0 -0.375 -0.140625q-0.140625 -0.140625 -0.140625 -0.4375zm5.414032 1.453125q1.125 0 1.75 0.765625q0.625 0.765625 0.625 2.171875q0 1.40625 -0.625 2.1875q-0.625 0.78125 -1.75 0.78125q-0.546875 0 -1.015625 -0.203125q-0.453125 -0.21875 -0.765625 -0.640625l-0.0625 0l-0.1875 0.734375l-0.609375 0l0 -8.09375l0.859375 0l0 1.96875q0 0.65625 -0.046875 1.1875l0.046875 0q0.609375 -0.859375 1.78125 -0.859375zm-0.125 0.71875q-0.875 0 -1.265625 0.515625q-0.390625 0.5 -0.390625 1.703125q0 1.203125 0.390625 1.71875q0.40625 0.515625 1.296875 0.515625q0.796875 0 1.1875 -0.578125q0.390625 -0.578125 0.390625 -1.65625q0 -1.125 -0.390625 -1.671875q-0.390625 -0.546875 -1.21875 -0.546875zm6.4207 5.1875q-1.265625 0 -2.0 -0.765625q-0.734375 -0.78125 -0.734375 -2.140625q0 -1.390625 0.671875 -2.203125q0.6875 -0.8125 1.828125 -0.8125q1.078125 0 1.703125 0.71875q0.625 0.703125 0.625 1.859375l0 0.546875l-3.921875 0q0.015625 1.0 0.5 1.515625q0.484375 0.515625 1.359375 0.515625q0.921875 0 1.8125 -0.375l0 0.765625q-0.453125 0.203125 -0.859375 0.28125q-0.40625 0.09375 -0.984375 0.09375zm-0.234375 -5.1875q-0.6875 0 -1.09375 0.453125q-0.40625 0.4375 -0.484375 1.234375l2.984375 0q0 -0.828125 -0.375 -1.25q-0.359375 -0.4375 -1.03125 -0.4375zm6.400406 -0.734375q0.375 0 0.6875 0.0625l-0.125 0.8125q-0.359375 -0.078125 -0.625 -0.078125q-0.6875 0 -1.1875 0.5625q-0.484375 0.5625 -0.484375 1.390625l0 3.0625l-0.859375 0l0 -5.703125l0.703125 0l0.109375 1.0625l0.03125 0q0.328125 -0.5625 0.765625 -0.859375q0.453125 -0.3125 0.984375 -0.3125zm5.6467896 5.8125l0 -3.6875q0 -0.703125 -0.3125 -1.046875q-0.3125 -0.34375 -1.0 -0.34375q-0.890625 0 -1.3125 0.484375q-0.40625 0.484375 -0.40625 1.609375l0 2.984375l-0.859375 0l0 -5.703125l0.703125 0l0.140625 0.78125l0.03125 0q0.265625 -0.421875 0.734375 -0.65625q0.484375 -0.234375 1.078125 -0.234375q1.03125 0 1.546875 0.5q0.53125 0.5 0.53125 1.59375l0 3.71875l-0.875 0zm6.1498566 0l-0.171875 -0.8125l-0.046875 0q-0.421875 0.53125 -0.84375 0.734375q-0.421875 0.1875 -1.0625 0.1875q-0.84375 0 -1.328125 -0.4375q-0.484375 -0.4375 -0.484375 -1.25q0 -1.71875 2.765625 -1.8125l0.96875 -0.03125l0 -0.34375q0 -0.671875 -0.296875 -0.984375q-0.28125 -0.328125 -0.921875 -0.328125q-0.703125 0 -1.609375 0.4375l-0.265625 -0.671875q0.421875 -0.21875 0.921875 -0.34375q0.515625 -0.140625 1.015625 -0.140625q1.015625 0 1.5 0.453125q0.5 0.453125 0.5 1.453125l0 3.890625l-0.640625 0zm-1.953125 -0.609375q0.8125 0 1.265625 -0.4375q0.46875 -0.453125 0.46875 -1.25l0 -0.5l-0.875 0.03125q-1.015625 0.03125 -1.484375 0.3125q-0.453125 0.28125 -0.453125 0.890625q0 0.46875 0.28125 0.71875q0.296875 0.234375 0.796875 0.234375zm6.2077484 0q0.234375 0 0.4375 -0.03125q0.21875 -0.03125 0.34375 -0.078125l0 0.671875q-0.140625 0.0625 -0.421875 0.109375q-0.265625 0.046875 -0.46875 0.046875q-1.65625 0 -1.65625 -1.75l0 -3.390625l-0.828125 0l0 -0.421875l0.828125 -0.359375l0.359375 -1.21875l0.5 0l0 1.328125l1.65625 0l0 0.671875l-1.65625 0l0 3.359375q0 0.515625 0.234375 0.796875q0.25 0.265625 0.671875 0.265625zm4.3400726 0.71875q-1.265625 0 -2.0 -0.765625q-0.734375 -0.78125 -0.734375 -2.140625q0 -1.390625 0.671875 -2.203125q0.6875 -0.8125 1.828125 -0.8125q1.078125 0 1.703125 0.71875q0.625 0.703125 0.625 1.859375l0 0.546875l-3.921875 0q0.015625 1.0 0.5 1.515625q0.484375 0.515625 1.359375 0.515625q0.921875 0 1.8125 -0.375l0 0.765625q-0.453125 0.203125 -0.859375 0.28125q-0.40625 0.09375 -0.984375 0.09375zm-0.234375 -5.1875q-0.6875 0 -1.09375 0.453125q-0.40625 0.4375 -0.484375 1.234375l2.984375 0q0 -0.828125 -0.375 -1.25q-0.359375 -0.4375 -1.03125 -0.4375zm10.996658 3.046875q0 1.015625 -0.734375 1.578125q-0.734375 0.5625 -1.96875 0.5625q-1.359375 0 -2.09375 -0.359375l0 -0.84375q0.46875 0.1875 1.015625 0.3125q0.5625 0.109375 1.109375 0.109375q0.875 0 1.3125 -0.328125q0.453125 -0.34375 0.453125 -0.9375q0 -0.40625 -0.15625 -0.65625q-0.15625 -0.25 -0.53125 -0.453125q-0.375 -0.21875 -1.125 -0.484375q-1.0625 -0.390625 -1.515625 -0.90625q-0.453125 -0.515625 -0.453125 -1.359375q0 -0.875 0.65625 -1.390625q0.65625 -0.53125 1.75 -0.53125q1.125 0 2.078125 0.421875l-0.265625 0.765625q-0.953125 -0.390625 -1.84375 -0.390625q-0.6875 0 -1.09375 0.296875q-0.390625 0.296875 -0.390625 0.84375q0 0.390625 0.140625 0.640625q0.15625 0.25 0.5 0.46875q0.34375 0.203125 1.046875 0.46875q1.203125 0.421875 1.65625 0.921875q0.453125 0.484375 0.453125 1.25zm3.8328247 2.140625q-1.265625 0 -2.0 -0.765625q-0.734375 -0.78125 -0.734375 -2.140625q0 -1.390625 0.671875 -2.203125q0.6875 -0.8125 1.828125 -0.8125q1.078125 0 1.703125 0.71875q0.625 0.703125 0.625 1.859375l0 0.546875l-3.921875 0q0.015625 1.0 0.5 1.515625q0.484375 0.515625 1.359375 0.515625q0.921875 0 1.8125 -0.375l0 0.765625q-0.453125 0.203125 -0.859375 0.28125q-0.40625 0.09375 -0.984375 0.09375zm-0.234375 -5.1875q-0.6875 0 -1.09375 0.453125q-0.40625 0.4375 -0.484375 1.234375l2.984375 0q0 -0.828125 -0.375 -1.25q-0.359375 -0.4375 -1.03125 -0.4375zm7.306656 5.078125l-0.171875 -0.8125l-0.046875 0q-0.421875 0.53125 -0.84375 0.734375q-0.421875 0.1875 -1.0625 0.1875q-0.84375 0 -1.328125 -0.4375q-0.484375 -0.4375 -0.484375 -1.25q0 -1.71875 2.765625 -1.8125l0.96875 -0.03125l0 -0.34375q0 -0.671875 -0.296875 -0.984375q-0.28125 -0.328125 -0.921875 -0.328125q-0.703125 0 -1.609375 0.4375l-0.265625 -0.671875q0.421875 -0.21875 0.921875 -0.34375q0.515625 -0.140625 1.015625 -0.140625q1.015625 0 1.5 0.453125q0.5 0.453125 0.5 1.453125l0 3.890625l-0.640625 0zm-1.953125 -0.609375q0.8125 0 1.265625 -0.4375q0.46875 -0.453125 0.46875 -1.25l0 -0.5l-0.875 0.03125q-1.015625 0.03125 -1.484375 0.3125q-0.453125 0.28125 -0.453125 0.890625q0 0.46875 0.28125 0.71875q0.296875 0.234375 0.796875 0.234375zm6.9733734 -5.203125q0.375 0 0.6875 0.0625l-0.125 0.8125q-0.359375 -0.078125 -0.625 -0.078125q-0.6875 0 -1.1875 0.5625q-0.484375 0.5625 -0.484375 1.390625l0 3.0625l-0.859375 0l0 -5.703125l0.703125 0l0.109375 1.0625l0.03125 0q0.328125 -0.5625 0.765625 -0.859375q0.453125 -0.3125 0.984375 -0.3125zm4.0217896 5.921875q-1.234375 0 -1.921875 -0.765625q-0.671875 -0.765625 -0.671875 -2.15625q0 -1.4375 0.6875 -2.21875q0.703125 -0.78125 1.96875 -0.78125q0.40625 0 0.8125 0.09375q0.421875 0.09375 0.65625 0.203125l-0.265625 0.734375q-0.28125 -0.109375 -0.625 -0.1875q-0.34375 -0.078125 -0.59375 -0.078125q-1.734375 0 -1.734375 2.21875q0 1.046875 0.421875 1.609375q0.421875 0.5625 1.25 0.5625q0.71875 0 1.46875 -0.296875l0 0.765625q-0.578125 0.296875 -1.453125 0.296875zm6.698166 -0.109375l0 -3.6875q0 -0.703125 -0.3125 -1.046875q-0.3125 -0.34375 -1.0 -0.34375q-0.890625 0 -1.3125 0.5q-0.40625 0.484375 -0.40625 1.59375l0 2.984375l-0.859375 0l0 -8.09375l0.859375 0l0 2.453125q0 0.4375 -0.046875 0.734375l0.0625 0q0.25 -0.421875 0.71875 -0.65625q0.46875 -0.234375 1.078125 -0.234375q1.046875 0 1.5625 0.5q0.53125 0.5 0.53125 1.578125l0 3.71875l-0.875 0z" fill-rule="nonzero"/><path fill="#ed9d5c" d="m509.01837 162.979l0 0c0 9.159088 22.970947 16.583984 51.307068 16.583984c28.33612 0 51.30713 -7.4248962 51.30713 -16.583984l0 146.92651c0 9.159088 -22.971008 16.583984 -51.30713 16.583984c-28.33612 0 -51.307068 -7.4248962 -51.307068 -16.583984z" fill-rule="evenodd"/><path fill="#f4c49d" d="m509.01837 162.979l0 0c0 -9.159088 22.970947 -16.583984 51.307068 -16.583984c28.33612 0 51.30713 7.4248962 51.30713 16.583984l0 0c0 9.159088 -22.971008 16.583984 -51.30713 16.583984c-28.33612 0 -51.307068 -7.4248962 -51.307068 -16.583984z" fill-rule="evenodd"/><path fill="#000000" fill-opacity="0.0" d="m611.63257 162.979l0 0c0 9.159088 -22.971008 16.583984 -51.30713 16.583984c-28.33612 0 -51.307068 -7.4248962 -51.307068 -16.583984l0 0c0 -9.159088 22.970947 -16.583984 51.307068 -16.583984c28.33612 0 51.30713 7.4248962 51.30713 16.583984l0 146.92651c0 9.159088 -22.971008 16.583984 -51.30713 16.583984c-28.33612 0 -51.307068 -7.4248962 -51.307068 -16.583984l0 -146.92651" fill-rule="evenodd"/><path stroke="#000000" stroke-width="1.0" stroke-linejoin="round" stroke-linecap="butt" d="m611.63257 162.979l0 0c0 9.159088 -22.971008 16.583984 -51.30713 16.583984c-28.33612 0 -51.307068 -7.4248962 -51.307068 -16.583984l0 0c0 -9.159088 22.970947 -16.583984 51.307068 -16.583984c28.33612 0 51.30713 7.4248962 51.30713 16.583984l0 146.92651c0 9.159088 -22.971008 16.583984 -51.30713 16.583984c-28.33612 0 -51.307068 -7.4248962 -51.307068 -16.583984l0 -146.92651" fill-rule="evenodd"/><path fill="#000000" d="m543.99945 244.59926q0 1.875 -1.03125 2.875q-1.015625 1.0 -2.9375 1.0l-2.109375 0l0 -7.609375l2.328125 0q1.78125 0 2.765625 0.984375q0.984375 0.984375 0.984375 2.75zm-0.9375 0.03125q0 -1.484375 -0.75 -2.234375q-0.75 -0.765625 -2.21875 -0.765625l-1.28125 0l0 6.078125l1.0625 0q1.59375 0 2.390625 -0.78125q0.796875 -0.78125 0.796875 -2.296875zm6.0028076 3.84375l-0.171875 -0.8125l-0.046875 0q-0.421875 0.53125 -0.84375 0.734375q-0.421875 0.1875 -1.0625 0.1875q-0.84375 0 -1.328125 -0.4375q-0.484375 -0.4375 -0.484375 -1.25q0 -1.71875 2.765625 -1.8125l0.96875 -0.03125l0 -0.34375q0 -0.671875 -0.296875 -0.984375q-0.28125 -0.328125 -0.921875 -0.328125q-0.703125 0 -1.609375 0.4375l-0.265625 -0.671875q0.421875 -0.21875 0.921875 -0.34375q0.515625 -0.140625 1.015625 -0.140625q1.015625 0 1.5 0.453125q0.5 0.453125 0.5 1.453125l0 3.890625l-0.640625 0zm-1.953125 -0.609375q0.8125 0 1.265625 -0.4375q0.46875 -0.453125 0.46875 -1.25l0 -0.5l-0.875 0.03125q-1.015625 0.03125 -1.484375 0.3125q-0.453125 0.28125 -0.453125 0.890625q0 0.46875 0.28125 0.71875q0.296875 0.234375 0.796875 0.234375zm6.2077637 0q0.234375 0 0.4375 -0.03125q0.21875 -0.03125 0.34375 -0.078125l0 0.671875q-0.140625 0.0625 -0.421875 0.109375q-0.265625 0.046875 -0.46875 0.046875q-1.65625 0 -1.65625 -1.75l0 -3.390625l-0.828125 0l0 -0.421875l0.828125 -0.359375l0.359375 -1.21875l0.5 0l0 1.328125l1.65625 0l0 0.671875l-1.65625 0l0 3.359375q0 0.515625 0.234375 0.796875q0.25 0.265625 0.671875 0.265625zm5.433777 0.609375l-0.171875 -0.8125l-0.046875 0q-0.421875 0.53125 -0.84375 0.734375q-0.421875 0.1875 -1.0625 0.1875q-0.84375 0 -1.328125 -0.4375q-0.484375 -0.4375 -0.484375 -1.25q0 -1.71875 2.765625 -1.8125l0.96875 -0.03125l0 -0.34375q0 -0.671875 -0.296875 -0.984375q-0.28125 -0.328125 -0.921875 -0.328125q-0.703125 0 -1.609375 0.4375l-0.265625 -0.671875q0.421875 -0.21875 0.921875 -0.34375q0.515625 -0.140625 1.015625 -0.140625q1.015625 0 1.5 0.453125q0.5 0.453125 0.5 1.453125l0 3.890625l-0.640625 0zm-1.953125 -0.609375q0.8125 0 1.265625 -0.4375q0.46875 -0.453125 0.46875 -1.25l0 -0.5l-0.875 0.03125q-1.015625 0.03125 -1.484375 0.3125q-0.453125 0.28125 -0.453125 0.890625q0 0.46875 0.28125 0.71875q0.296875 0.234375 0.796875 0.234375zm7.0202637 -5.1875q1.125 0 1.75 0.765625q0.625 0.765625 0.625 2.171875q0 1.40625 -0.625 2.1875q-0.625 0.78125 -1.75 0.78125q-0.546875 0 -1.015625 -0.203125q-0.453125 -0.21875 -0.765625 -0.640625l-0.0625 0l-0.1875 0.734375l-0.609375 0l0 -8.09375l0.859375 0l0 1.96875q0 0.65625 -0.046875 1.1875l0.046875 0q0.609375 -0.859375 1.78125 -0.859375zm-0.125 0.71875q-0.875 0 -1.265625 0.515625q-0.390625 0.5 -0.390625 1.703125q0 1.203125 0.390625 1.71875q0.40625 0.515625 1.296875 0.515625q0.796875 0 1.1875 -0.578125q0.390625 -0.578125 0.390625 -1.65625q0 -1.125 -0.390625 -1.671875q-0.390625 -0.546875 -1.21875 -0.546875zm7.5144653 5.078125l-0.171875 -0.8125l-0.046875 0q-0.421875 0.53125 -0.84375 0.734375q-0.421875 0.1875 -1.0625 0.1875q-0.84375 0 -1.328125 -0.4375q-0.484375 -0.4375 -0.484375 -1.25q0 -1.71875 2.765625 -1.8125l0.96875 -0.03125l0 -0.34375q0 -0.671875 -0.296875 -0.984375q-0.28125 -0.328125 -0.921875 -0.328125q-0.703125 0 -1.609375 0.4375l-0.265625 -0.671875q0.421875 -0.21875 0.921875 -0.34375q0.515625 -0.140625 1.015625 -0.140625q1.015625 0 1.5 0.453125q0.5 0.453125 0.5 1.453125l0 3.890625l-0.640625 0zm-1.953125 -0.609375q0.8125 0 1.265625 -0.4375q0.46875 -0.453125 0.46875 -1.25l0 -0.5l-0.875 0.03125q-1.015625 0.03125 -1.484375 0.3125q-0.453125 0.28125 -0.453125 0.890625q0 0.46875 0.28125 0.71875q0.296875 0.234375 0.796875 0.234375zm8.051514 -0.953125q0 0.796875 -0.59375 1.234375q-0.59375 0.4375 -1.65625 0.4375q-1.140625 0 -1.78125 -0.359375l0 -0.8125q0.421875 0.21875 0.890625 0.34375q0.46875 0.109375 0.90625 0.109375q0.671875 0 1.03125 -0.21875q0.375 -0.21875 0.375 -0.65625q0 -0.328125 -0.296875 -0.5625q-0.28125 -0.25 -1.125 -0.5625q-0.796875 -0.296875 -1.140625 -0.515625q-0.328125 -0.21875 -0.5 -0.5q-0.15625 -0.28125 -0.15625 -0.671875q0 -0.703125 0.5625 -1.109375q0.578125 -0.40625 1.5625 -0.40625q0.921875 0 1.796875 0.375l-0.296875 0.703125q-0.859375 -0.34375 -1.5625 -0.34375q-0.609375 0 -0.921875 0.1875q-0.3125 0.1875 -0.3125 0.53125q0 0.234375 0.109375 0.390625q0.125 0.15625 0.375 0.3125q0.265625 0.140625 1.0 0.421875q1.015625 0.359375 1.375 0.734375q0.359375 0.375 0.359375 0.9375zm3.8179321 1.671875q-1.265625 0 -2.0 -0.765625q-0.734375 -0.78125 -0.734375 -2.140625q0 -1.390625 0.671875 -2.203125q0.6875 -0.8125 1.828125 -0.8125q1.078125 0 1.703125 0.71875q0.625 0.703125 0.625 1.859375l0 0.546875l-3.921875 0q0.015625 1.0 0.5 1.515625q0.484375 0.515625 1.359375 0.515625q0.921875 0 1.8125 -0.375l0 0.765625q-0.453125 0.203125 -0.859375 0.28125q-0.40625 0.09375 -0.984375 0.09375zm-0.234375 -5.1875q-0.6875 0 -1.09375 0.453125q-0.40625 0.4375 -0.484375 1.234375l2.984375 0q0 -0.828125 -0.375 -1.25q-0.359375 -0.4375 -1.03125 -0.4375z" fill-rule="nonzero"/><path fill="#000000" fill-opacity="0.0" d="m188.1811 129.0971c80.2094 0 120.312485 26.834656 160.41878 53.669296c40.106293 26.83464 80.21582 53.669296 160.43161 53.669296" fill-rule="evenodd"/><path stroke="#000000" stroke-width="1.0" stroke-linejoin="round" stroke-linecap="butt" d="m188.1811 129.0971c80.2094 0 120.312485 26.834656 160.41881 53.669296c20.053131 13.417328 40.107117 26.83464 65.17474 36.897644c12.533783 5.031494 26.321014 9.224411 41.98831 12.159439c7.8336487 1.4675293 16.137299 2.620575 24.989258 3.4067535c4.425995 0.39308167 8.989075 0.69444275 13.699005 0.8975525c2.3549805 0.10153198 4.7466736 0.17851257 7.1763 0.23010254l1.4041748 0.026046753" fill-rule="evenodd"/><path fill="#000000" stroke="#000000" stroke-width="1.0" stroke-linecap="butt" d="m503.01746 238.0356l4.552185 -1.6125183l-4.5236816 -1.6908112z" fill-rule="evenodd"/><path fill="#000000" fill-opacity="0.0" d="m124.338585 162.7979l0 86.110245" fill-rule="evenodd"/><path stroke="#000000" stroke-width="1.0" stroke-linejoin="round" stroke-linecap="butt" d="m124.338585 162.7979l0 80.110245" fill-rule="evenodd"/><path fill="#000000" stroke="#000000" stroke-width="1.0" stroke-linecap="butt" d="m122.68685 242.90814l1.6517334 4.538086l1.6517334 -4.538086z" fill-rule="evenodd"/><path fill="#000000" fill-opacity="0.0" d="m118.61155 173.48294l102.614174 0l0 57.196854l-102.614174 0z" fill-rule="evenodd"/><path fill="#000000" d="m128.09592 190.26982l0.953125 -0.078125q0.0625 0.5625 0.3125 0.9375q0.25 0.359375 0.765625 0.59375q0.515625 0.21875 1.171875 0.21875q0.578125 0 1.015625 -0.171875q0.4375 -0.171875 0.65625 -0.46875q0.21875 -0.296875 0.21875 -0.65625q0 -0.359375 -0.21875 -0.625q-0.203125 -0.265625 -0.671875 -0.4375q-0.3125 -0.125 -1.359375 -0.375q-1.046875 -0.25 -1.46875 -0.484375q-0.546875 -0.28125 -0.828125 -0.703125q-0.265625 -0.421875 -0.265625 -0.953125q0 -0.578125 0.328125 -1.078125q0.328125 -0.5 0.953125 -0.765625q0.640625 -0.265625 1.40625 -0.265625q0.84375 0 1.484375 0.28125q0.65625 0.265625 1.0 0.796875q0.359375 0.53125 0.390625 1.203125l-0.96875 0.078125q-0.078125 -0.71875 -0.53125 -1.09375q-0.453125 -0.375 -1.328125 -0.375q-0.921875 0 -1.34375 0.34375q-0.40625 0.328125 -0.40625 0.8125q0 0.40625 0.296875 0.671875q0.28125 0.265625 1.515625 0.546875q1.234375 0.28125 1.6875 0.484375q0.671875 0.3125 0.984375 0.78125q0.3125 0.46875 0.3125 1.078125q0 0.609375 -0.34375 1.15625q-0.34375 0.53125 -1.0 0.828125q-0.65625 0.296875 -1.46875 0.296875q-1.046875 0 -1.75 -0.296875q-0.6875 -0.296875 -1.09375 -0.90625q-0.390625 -0.609375 -0.40625 -1.375zm11.1076355 0.671875l0.96875 0.125q-0.234375 0.84375 -0.859375 1.3125q-0.609375 0.46875 -1.578125 0.46875q-1.203125 0 -1.921875 -0.75q-0.703125 -0.75 -0.703125 -2.09375q0 -1.390625 0.71875 -2.15625q0.71875 -0.78125 1.859375 -0.78125q1.109375 0 1.8125 0.765625q0.703125 0.75 0.703125 2.125q0 0.078125 0 0.234375l-4.125 0q0.046875 0.921875 0.515625 1.40625q0.46875 0.484375 1.15625 0.484375q0.515625 0 0.875 -0.265625q0.359375 -0.28125 0.578125 -0.875zm-3.078125 -1.515625l3.09375 0q-0.0625 -0.6875 -0.359375 -1.046875q-0.453125 -0.53125 -1.15625 -0.53125q-0.640625 0 -1.09375 0.4375q-0.4375 0.421875 -0.484375 1.140625zm8.832748 2.609375q-0.53125 0.453125 -1.015625 0.640625q-0.46875 0.171875 -1.015625 0.171875q-0.921875 0 -1.40625 -0.4375q-0.484375 -0.453125 -0.484375 -1.140625q0 -0.40625 0.171875 -0.734375q0.1875 -0.34375 0.484375 -0.546875q0.3125 -0.203125 0.6875 -0.3125q0.265625 -0.0625 0.828125 -0.140625q1.125 -0.125 1.671875 -0.3125q0 -0.203125 0 -0.25q0 -0.578125 -0.265625 -0.8125q-0.359375 -0.3125 -1.0625 -0.3125q-0.65625 0 -0.984375 0.234375q-0.3125 0.234375 -0.453125 0.8125l-0.921875 -0.125q0.125 -0.578125 0.40625 -0.9375q0.296875 -0.375 0.828125 -0.5625q0.546875 -0.203125 1.25 -0.203125q0.71875 0 1.15625 0.171875q0.4375 0.171875 0.640625 0.421875q0.21875 0.25 0.296875 0.640625q0.046875 0.234375 0.046875 0.859375l0 1.25q0 1.296875 0.0625 1.65625q0.0625 0.34375 0.234375 0.65625l-0.96875 0q-0.15625 -0.296875 -0.1875 -0.6875zm-0.078125 -2.078125q-0.515625 0.203125 -1.53125 0.34375q-0.578125 0.078125 -0.828125 0.1875q-0.234375 0.109375 -0.359375 0.3125q-0.125 0.1875 -0.125 0.4375q0 0.375 0.28125 0.625q0.28125 0.25 0.828125 0.25q0.53125 0 0.953125 -0.234375q0.421875 -0.234375 0.625 -0.65625q0.15625 -0.3125 0.15625 -0.9375l0 -0.328125zm2.3796234 2.765625l0 -5.53125l0.84375 0l0 0.84375q0.328125 -0.59375 0.59375 -0.78125q0.28125 -0.1875 0.609375 -0.1875q0.46875 0 0.953125 0.3125l-0.3125 0.859375q-0.34375 -0.203125 -0.6875 -0.203125q-0.3125 0 -0.5625 0.1875q-0.234375 0.1875 -0.34375 0.515625q-0.15625 0.5 -0.15625 1.09375l0 2.890625l-0.9375 0zm7.1736145 -2.03125l0.921875 0.125q-0.15625 0.953125 -0.78125 1.5q-0.625 0.53125 -1.53125 0.53125q-1.125 0 -1.8125 -0.734375q-0.6875 -0.75 -0.6875 -2.125q0 -0.90625 0.296875 -1.578125q0.296875 -0.671875 0.890625 -1.0q0.609375 -0.34375 1.328125 -0.34375q0.890625 0 1.46875 0.46875q0.578125 0.453125 0.734375 1.28125l-0.90625 0.140625q-0.140625 -0.546875 -0.46875 -0.828125q-0.328125 -0.28125 -0.796875 -0.28125q-0.703125 0 -1.15625 0.515625q-0.4375 0.5 -0.4375 1.59375q0 1.109375 0.421875 1.625q0.4375 0.5 1.125 0.5q0.546875 0 0.90625 -0.34375q0.375 -0.34375 0.484375 -1.046875zm1.71875 2.03125l0 -7.625l0.9375 0l0 2.734375q0.65625 -0.765625 1.65625 -0.765625q0.609375 0 1.0625 0.25q0.453125 0.234375 0.640625 0.671875q0.203125 0.421875 0.203125 1.234375l0 3.5l-0.9375 0l0 -3.5q0 -0.703125 -0.3125 -1.015625q-0.296875 -0.328125 -0.859375 -0.328125q-0.40625 0 -0.78125 0.21875q-0.359375 0.21875 -0.515625 0.59375q-0.15625 0.359375 -0.15625 1.015625l0 3.015625l-0.9375 0zm8.871521 0l0 -5.53125l0.84375 0l0 0.84375q0.328125 -0.59375 0.59375 -0.78125q0.28125 -0.1875 0.609375 -0.1875q0.46875 0 0.953125 0.3125l-0.3125 0.859375q-0.34375 -0.203125 -0.6875 -0.203125q-0.3125 0 -0.5625 0.1875q-0.234375 0.1875 -0.34375 0.515625q-0.15625 0.5 -0.15625 1.09375l0 2.890625l-0.9375 0zm7.3454895 -1.78125l0.96875 0.125q-0.234375 0.84375 -0.859375 1.3125q-0.609375 0.46875 -1.578125 0.46875q-1.203125 0 -1.921875 -0.75q-0.703125 -0.75 -0.703125 -2.09375q0 -1.390625 0.71875 -2.15625q0.71875 -0.78125 1.859375 -0.78125q1.109375 0 1.8125 0.765625q0.703125 0.75 0.703125 2.125q0 0.078125 0 0.234375l-4.125 0q0.046875 0.921875 0.515625 1.40625q0.46875 0.484375 1.15625 0.484375q0.515625 0 0.875 -0.265625q0.359375 -0.28125 0.578125 -0.875zm-3.078125 -1.515625l3.09375 0q-0.0625 -0.6875 -0.359375 -1.046875q-0.453125 -0.53125 -1.15625 -0.53125q-0.640625 0 -1.09375 0.4375q-0.4375 0.421875 -0.484375 1.140625zm8.738998 5.421875l0 -2.71875q-0.21875 0.3125 -0.609375 0.515625q-0.390625 0.203125 -0.828125 0.203125q-0.984375 0 -1.703125 -0.78125q-0.703125 -0.796875 -0.703125 -2.15625q0 -0.828125 0.28125 -1.484375q0.296875 -0.671875 0.84375 -1.015625q0.546875 -0.34375 1.203125 -0.34375q1.03125 0 1.609375 0.875l0 -0.75l0.84375 0l0 7.65625l-0.9375 0zm-2.875 -4.90625q0 1.0625 0.4375 1.609375q0.453125 0.53125 1.078125 0.53125q0.59375 0 1.015625 -0.5q0.4375 -0.515625 0.4375 -1.546875q0 -1.109375 -0.453125 -1.65625q-0.453125 -0.5625 -1.0625 -0.5625q-0.609375 0 -1.03125 0.515625q-0.421875 0.515625 -0.421875 1.609375zm8.910873 2.78125l0 -0.8125q-0.65625 0.9375 -1.75 0.9375q-0.5 0 -0.921875 -0.1875q-0.421875 -0.1875 -0.625 -0.46875q-0.203125 -0.28125 -0.296875 -0.703125q-0.046875 -0.265625 -0.046875 -0.875l0 -3.421875l0.9375 0l0 3.0625q0 0.734375 0.046875 1.0q0.09375 0.359375 0.375 0.578125q0.296875 0.203125 0.703125 0.203125q0.421875 0 0.796875 -0.203125q0.375 -0.21875 0.515625 -0.59375q0.15625 -0.375 0.15625 -1.078125l0 -2.96875l0.9375 0l0 5.53125l-0.828125 0zm6.0827484 -1.78125l0.96875 0.125q-0.234375 0.84375 -0.859375 1.3125q-0.609375 0.46875 -1.578125 0.46875q-1.203125 0 -1.921875 -0.75q-0.703125 -0.75 -0.703125 -2.09375q0 -1.390625 0.71875 -2.15625q0.71875 -0.78125 1.859375 -0.78125q1.109375 0 1.8125 0.765625q0.703125 0.75 0.703125 2.125q0 0.078125 0 0.234375l-4.125 0q0.046875 0.921875 0.515625 1.40625q0.46875 0.484375 1.15625 0.484375q0.515625 0 0.875 -0.265625q0.359375 -0.28125 0.578125 -0.875zm-3.078125 -1.515625l3.09375 0q-0.0625 -0.6875 -0.359375 -1.046875q-0.453125 -0.53125 -1.15625 -0.53125q-0.640625 0 -1.09375 0.4375q-0.4375 0.421875 -0.484375 1.140625zm4.8483734 1.640625l0.921875 -0.140625q0.078125 0.5625 0.4375 0.859375q0.359375 0.296875 1.0 0.296875q0.640625 0 0.953125 -0.265625q0.3125 -0.265625 0.3125 -0.625q0 -0.3125 -0.28125 -0.5q-0.1875 -0.125 -0.953125 -0.3125q-1.03125 -0.265625 -1.4375 -0.453125q-0.390625 -0.1875 -0.59375 -0.515625q-0.203125 -0.34375 -0.203125 -0.75q0 -0.359375 0.171875 -0.671875q0.171875 -0.328125 0.453125 -0.53125q0.21875 -0.15625 0.59375 -0.265625q0.390625 -0.125 0.8125 -0.125q0.65625 0 1.140625 0.1875q0.5 0.1875 0.734375 0.515625q0.234375 0.3125 0.3125 0.859375l-0.90625 0.125q-0.0625 -0.4375 -0.375 -0.671875q-0.296875 -0.234375 -0.828125 -0.234375q-0.65625 0 -0.9375 0.21875q-0.265625 0.203125 -0.265625 0.484375q0 0.1875 0.109375 0.328125q0.125 0.15625 0.359375 0.25q0.140625 0.0625 0.828125 0.25q1.0 0.265625 1.390625 0.4375q0.390625 0.15625 0.609375 0.484375q0.234375 0.3125 0.234375 0.796875q0 0.46875 -0.28125 0.890625q-0.265625 0.40625 -0.78125 0.640625q-0.515625 0.21875 -1.171875 0.21875q-1.078125 0 -1.640625 -0.4375q-0.5625 -0.453125 -0.71875 -1.34375zm7.75 0.8125l0.125 0.828125q-0.390625 0.09375 -0.703125 0.09375q-0.5 0 -0.78125 -0.15625q-0.28125 -0.171875 -0.40625 -0.4375q-0.109375 -0.265625 -0.109375 -1.109375l0 -3.171875l-0.6875 0l0 -0.734375l0.6875 0l0 -1.359375l0.9375 -0.5625l0 1.921875l0.9375 0l0 0.734375l-0.9375 0l0 3.234375q0 0.390625 0.046875 0.515625q0.046875 0.109375 0.15625 0.1875q0.109375 0.0625 0.328125 0.0625q0.15625 0 0.40625 -0.046875z" fill-rule="nonzero"/><path fill="#000000" d="m128.61154 205.72293l0 -7.625l1.0 0l0 7.625l-1.0 0zm2.6637726 0l0 -5.53125l0.84375 0l0 0.796875q0.609375 -0.921875 1.75 -0.921875q0.5 0 0.921875 0.1875q0.421875 0.171875 0.625 0.46875q0.21875 0.296875 0.296875 0.6875q0.046875 0.265625 0.046875 0.921875l0 3.390625l-0.9375 0l0 -3.359375q0 -0.578125 -0.109375 -0.859375q-0.109375 -0.28125 -0.390625 -0.453125q-0.265625 -0.171875 -0.640625 -0.171875q-0.59375 0 -1.03125 0.390625q-0.4375 0.375 -0.4375 1.4375l0 3.015625l-0.9375 0zm9.504623 0l0 -0.703125q-0.515625 0.828125 -1.546875 0.828125q-0.65625 0 -1.21875 -0.359375q-0.546875 -0.375 -0.859375 -1.015625q-0.296875 -0.65625 -0.296875 -1.5q0 -0.828125 0.28125 -1.5q0.28125 -0.6875 0.828125 -1.046875q0.546875 -0.359375 1.234375 -0.359375q0.5 0 0.890625 0.21875q0.390625 0.203125 0.625 0.546875l0 -2.734375l0.9375 0l0 7.625l-0.875 0zm-2.953125 -2.75q0 1.046875 0.4375 1.578125q0.453125 0.53125 1.0625 0.53125q0.609375 0 1.03125 -0.5q0.4375 -0.515625 0.4375 -1.53125q0 -1.140625 -0.4375 -1.671875q-0.4375 -0.53125 -1.078125 -0.53125q-0.609375 0 -1.03125 0.515625q-0.421875 0.5 -0.421875 1.609375zm9.082748 0.96875l0.96875 0.125q-0.234375 0.84375 -0.859375 1.3125q-0.609375 0.46875 -1.578125 0.46875q-1.203125 0 -1.921875 -0.75q-0.703125 -0.75 -0.703125 -2.09375q0 -1.390625 0.71875 -2.15625q0.71875 -0.78125 1.859375 -0.78125q1.109375 0 1.8125 0.765625q0.703125 0.75 0.703125 2.125q0 0.078125 0 0.234375l-4.125 0q0.046875 0.921875 0.515625 1.40625q0.46875 0.484375 1.15625 0.484375q0.515625 0 0.875 -0.265625q0.359375 -0.28125 0.578125 -0.875zm-3.078125 -1.515625l3.09375 0q-0.0625 -0.6875 -0.359375 -1.046875q-0.453125 -0.53125 -1.15625 -0.53125q-0.640625 0 -1.09375 0.4375q-0.4375 0.421875 -0.484375 1.140625zm4.5983734 3.296875l2.015625 -2.875l-1.859375 -2.65625l1.171875 0l0.84375 1.296875q0.234375 0.375 0.390625 0.625q0.21875 -0.34375 0.40625 -0.609375l0.9375 -1.3125l1.125 0l-1.921875 2.609375l2.0625 2.921875l-1.15625 0l-1.125 -1.71875l-0.296875 -0.46875l-1.453125 2.1875l-1.140625 0zm12.538773 0l0 -0.8125q-0.65625 0.9375 -1.75 0.9375q-0.5 0 -0.921875 -0.1875q-0.421875 -0.1875 -0.625 -0.46875q-0.203125 -0.28125 -0.296875 -0.703125q-0.046875 -0.265625 -0.046875 -0.875l0 -3.421875l0.9375 0l0 3.0625q0 0.734375 0.046875 1.0q0.09375 0.359375 0.375 0.578125q0.296875 0.203125 0.703125 0.203125q0.421875 0 0.796875 -0.203125q0.375 -0.21875 0.515625 -0.59375q0.15625 -0.375 0.15625 -1.078125l0 -2.96875l0.9375 0l0 5.53125l-0.828125 0zm2.3014984 2.125l0 -7.65625l0.859375 0l0 0.71875q0.296875 -0.421875 0.671875 -0.625q0.390625 -0.21875 0.921875 -0.21875q0.703125 0 1.25 0.375q0.546875 0.359375 0.8125 1.03125q0.28125 0.65625 0.28125 1.453125q0 0.84375 -0.3125 1.53125q-0.296875 0.671875 -0.875 1.03125q-0.578125 0.359375 -1.21875 0.359375q-0.46875 0 -0.84375 -0.1875q-0.375 -0.203125 -0.609375 -0.515625l0 2.703125l-0.9375 0zm0.84375 -4.859375q0 1.0625 0.4375 1.578125q0.4375 0.515625 1.046875 0.515625q0.625 0 1.0625 -0.53125q0.453125 -0.53125 0.453125 -1.640625q0 -1.046875 -0.4375 -1.578125q-0.4375 -0.53125 -1.046875 -0.53125q-0.59375 0 -1.0625 0.5625q-0.453125 0.5625 -0.453125 1.625zm8.660873 2.734375l0 -0.703125q-0.515625 0.828125 -1.546875 0.828125q-0.65625 0 -1.21875 -0.359375q-0.546875 -0.375 -0.859375 -1.015625q-0.296875 -0.65625 -0.296875 -1.5q0 -0.828125 0.28125 -1.5q0.28125 -0.6875 0.828125 -1.046875q0.546875 -0.359375 1.234375 -0.359375q0.5 0 0.890625 0.21875q0.390625 0.203125 0.625 0.546875l0 -2.734375l0.9375 0l0 7.625l-0.875 0zm-2.953125 -2.75q0 1.046875 0.4375 1.578125q0.453125 0.53125 1.0625 0.53125q0.609375 0 1.03125 -0.5q0.4375 -0.515625 0.4375 -1.53125q0 -1.140625 -0.4375 -1.671875q-0.4375 -0.53125 -1.078125 -0.53125q-0.609375 0 -1.03125 0.515625q-0.421875 0.5 -0.421875 1.609375zm8.910873 2.0625q-0.53125 0.453125 -1.015625 0.640625q-0.46875 0.171875 -1.015625 0.171875q-0.921875 0 -1.40625 -0.4375q-0.484375 -0.453125 -0.484375 -1.140625q0 -0.40625 0.171875 -0.734375q0.1875 -0.34375 0.484375 -0.546875q0.3125 -0.203125 0.6875 -0.3125q0.265625 -0.0625 0.828125 -0.140625q1.125 -0.125 1.671875 -0.3125q0 -0.203125 0 -0.25q0 -0.578125 -0.265625 -0.8125q-0.359375 -0.3125 -1.0625 -0.3125q-0.65625 0 -0.984375 0.234375q-0.3125 0.234375 -0.453125 0.8125l-0.921875 -0.125q0.125 -0.578125 0.40625 -0.9375q0.296875 -0.375 0.828125 -0.5625q0.546875 -0.203125 1.25 -0.203125q0.71875 0 1.15625 0.171875q0.4375 0.171875 0.640625 0.421875q0.21875 0.25 0.296875 0.640625q0.046875 0.234375 0.046875 0.859375l0 1.25q0 1.296875 0.0625 1.65625q0.0625 0.34375 0.234375 0.65625l-0.96875 0q-0.15625 -0.296875 -0.1875 -0.6875zm-0.078125 -2.078125q-0.515625 0.203125 -1.53125 0.34375q-0.578125 0.078125 -0.828125 0.1875q-0.234375 0.109375 -0.359375 0.3125q-0.125 0.1875 -0.125 0.4375q0 0.375 0.28125 0.625q0.28125 0.25 0.828125 0.25q0.53125 0 0.953125 -0.234375q0.421875 -0.234375 0.625 -0.65625q0.15625 -0.3125 0.15625 -0.9375l0 -0.328125zm4.4421234 1.921875l0.125 0.828125q-0.390625 0.09375 -0.703125 0.09375q-0.5 0 -0.78125 -0.15625q-0.28125 -0.171875 -0.40625 -0.4375q-0.109375 -0.265625 -0.109375 -1.109375l0 -3.171875l-0.6875 0l0 -0.734375l0.6875 0l0 -1.359375l0.9375 -0.5625l0 1.921875l0.9375 0l0 0.734375l-0.9375 0l0 3.234375q0 0.390625 0.046875 0.515625q0.046875 0.109375 0.15625 0.1875q0.109375 0.0625 0.328125 0.0625q0.15625 0 0.40625 -0.046875zm4.6950226 -0.9375l0.96875 0.125q-0.234375 0.84375 -0.859375 1.3125q-0.609375 0.46875 -1.578125 0.46875q-1.203125 0 -1.921875 -0.75q-0.703125 -0.75 -0.703125 -2.09375q0 -1.390625 0.71875 -2.15625q0.71875 -0.78125 1.859375 -0.78125q1.109375 0 1.8125 0.765625q0.703125 0.75 0.703125 2.125q0 0.078125 0 0.234375l-4.125 0q0.046875 0.921875 0.515625 1.40625q0.46875 0.484375 1.15625 0.484375q0.515625 0 0.875 -0.265625q0.359375 -0.28125 0.578125 -0.875zm-3.078125 -1.515625l3.09375 0q-0.0625 -0.6875 -0.359375 -1.046875q-0.453125 -0.53125 -1.15625 -0.53125q-0.640625 0 -1.09375 0.4375q-0.4375 0.421875 -0.484375 1.140625z" fill-rule="nonzero"/><path fill="#eafca2" d="m73.031494 265.49945l0 0c0 9.159088 22.97097 16.583984 51.30709 16.583984c28.336113 0 51.30709 -7.4248962 51.30709 -16.583984l0 72.65881c0 9.159058 -22.970978 16.583984 -51.30709 16.583984c-28.33612 0 -51.30709 -7.4249268 -51.30709 -16.583984z" fill-rule="evenodd"/><path fill="#f2fdc7" d="m73.031494 265.49945l0 0c0 -9.159088 22.97097 -16.583984 51.30709 -16.583984c28.336113 0 51.30709 7.4248962 51.30709 16.583984l0 0c0 9.159088 -22.970978 16.583984 -51.30709 16.583984c-28.33612 0 -51.30709 -7.4248962 -51.30709 -16.583984z" fill-rule="evenodd"/><path fill="#000000" fill-opacity="0.0" d="m175.64568 265.49945l0 0c0 9.159088 -22.970978 16.583984 -51.30709 16.583984c-28.33612 0 -51.30709 -7.4248962 -51.30709 -16.583984l0 0c0 -9.159088 22.97097 -16.583984 51.30709 -16.583984c28.336113 0 51.30709 7.4248962 51.30709 16.583984l0 72.65881c0 9.159058 -22.970978 16.583984 -51.30709 16.583984c-28.33612 0 -51.30709 -7.4249268 -51.30709 -16.583984l0 -72.65881" fill-rule="evenodd"/><path stroke="#000000" stroke-width="1.0" stroke-linejoin="round" stroke-linecap="butt" d="m175.64568 265.49945l0 0c0 9.159088 -22.970978 16.583984 -51.30709 16.583984c-28.33612 0 -51.30709 -7.4248962 -51.30709 -16.583984l0 0c0 -9.159088 22.97097 -16.583984 51.30709 -16.583984c28.336113 0 51.30709 7.4248962 51.30709 16.583984l0 72.65881c0 9.159058 -22.970978 16.583984 -51.30709 16.583984c-28.33612 0 -51.30709 -7.4249268 -51.30709 -16.583984l0 -72.65881" fill-rule="evenodd"/><path fill="#000000" d="m90.91395 307.36084l0 -7.609375l0.890625 0l0 7.609375l-0.890625 0zm6.736679 0l0 -3.6875q0 -0.703125 -0.3125 -1.046875q-0.3125 -0.34375 -1.0 -0.34375q-0.890625 0 -1.3125 0.484375q-0.40625 0.484375 -0.40625 1.609375l0 2.984375l-0.859375 0l0 -5.703125l0.703125 0l0.140625 0.78125l0.03125 0q0.265625 -0.421875 0.734375 -0.65625q0.484375 -0.234375 1.078125 -0.234375q1.03125 0 1.546875 0.5q0.53125 0.5 0.53125 1.59375l0 3.71875l-0.875 0zm6.5248566 -0.765625l-0.046875 0q-0.59375 0.875 -1.796875 0.875q-1.109375 0 -1.734375 -0.765625q-0.625 -0.765625 -0.625 -2.171875q0 -1.421875 0.625 -2.203125q0.625 -0.78125 1.734375 -0.78125q1.171875 0 1.78125 0.84375l0.078125 0l-0.046875 -0.40625l-0.015625 -0.40625l0 -2.3125l0.859375 0l0 8.09375l-0.703125 0l-0.109375 -0.765625zm-1.734375 0.140625q0.890625 0 1.28125 -0.46875q0.40625 -0.484375 0.40625 -1.5625l0 -0.171875q0 -1.21875 -0.40625 -1.734375q-0.40625 -0.515625 -1.28125 -0.515625q-0.765625 0 -1.171875 0.59375q-0.390625 0.578125 -0.390625 1.65625q0 1.09375 0.390625 1.65625q0.40625 0.546875 1.171875 0.546875zm6.7957 0.734375q-1.265625 0 -2.0 -0.765625q-0.734375 -0.78125 -0.734375 -2.140625q0 -1.390625 0.671875 -2.203125q0.6875 -0.8125 1.828125 -0.8125q1.078125 0 1.703125 0.71875q0.625 0.703125 0.625 1.859375l0 0.546875l-3.921875 0q0.015625 1.0 0.5 1.515625q0.484375 0.515625 1.359375 0.515625q0.921875 0 1.8125 -0.375l0 0.765625q-0.453125 0.203125 -0.859375 0.28125q-0.40625 0.09375 -0.984375 0.09375zm-0.234375 -5.1875q-0.6875 0 -1.09375 0.453125q-0.40625 0.4375 -0.484375 1.234375l2.984375 0q0 -0.828125 -0.375 -1.25q-0.359375 -0.4375 -1.03125 -0.4375zm5.181656 2.15625l-1.984375 -2.78125l0.984375 0l1.5 2.1875l1.5 -2.1875l0.96875 0l-1.984375 2.78125l2.09375 2.921875l-0.984375 0l-1.59375 -2.3125l-1.609375 2.3125l-0.984375 0l2.09375 -2.921875zm11.898087 0.0625q0 1.390625 -0.703125 2.1875q-0.703125 0.78125 -1.953125 0.78125q-0.75 0 -1.34375 -0.359375q-0.59375 -0.359375 -0.921875 -1.03125q-0.328125 -0.671875 -0.328125 -1.578125q0 -1.390625 0.703125 -2.171875q0.703125 -0.78125 1.9375 -0.78125q1.1875 0 1.890625 0.796875q0.71875 0.796875 0.71875 2.15625zm-4.34375 0q0 1.09375 0.4375 1.671875q0.4375 0.5625 1.28125 0.5625q0.84375 0 1.28125 -0.5625q0.4375 -0.578125 0.4375 -1.671875q0 -1.078125 -0.4375 -1.640625q-0.4375 -0.578125 -1.296875 -0.578125q-0.84375 0 -1.28125 0.5625q-0.421875 0.5625 -0.421875 1.65625zm9.748909 2.859375l0 -3.6875q0 -0.703125 -0.3125 -1.046875q-0.3125 -0.34375 -1.0 -0.34375q-0.890625 0 -1.3125 0.484375q-0.40625 0.484375 -0.40625 1.609375l0 2.984375l-0.8593674 0l0 -5.703125l0.7031174 0l0.140625 0.78125l0.03125 0q0.265625 -0.421875 0.734375 -0.65625q0.484375 -0.234375 1.078125 -0.234375q1.03125 0 1.546875 0.5q0.53125 0.5 0.53125 1.59375l0 3.71875l-0.875 0zm6.277359 0l-0.859375 0l0 -8.09375l0.859375 0l0 8.09375zm6.757782 -2.859375q0 1.390625 -0.703125 2.1875q-0.703125 0.78125 -1.953125 0.78125q-0.75 0 -1.34375 -0.359375q-0.59375 -0.359375 -0.921875 -1.03125q-0.328125 -0.671875 -0.328125 -1.578125q0 -1.390625 0.703125 -2.171875q0.703125 -0.78125 1.9375 -0.78125q1.1875 0 1.890625 0.796875q0.71875 0.796875 0.71875 2.15625zm-4.34375 0q0 1.09375 0.4375 1.671875q0.4375 0.5625 1.28125 0.5625q0.84375 0 1.28125 -0.5625q0.4375 -0.578125 0.4375 -1.671875q0 -1.078125 -0.4375 -1.640625q-0.4375 -0.578125 -1.296875 -0.578125q-0.84375 0 -1.28125 0.5625q-0.421875 0.5625 -0.421875 1.65625zm8.123917 2.96875q-1.234375 0 -1.921875 -0.765625q-0.671875 -0.765625 -0.671875 -2.15625q0 -1.4375 0.6875 -2.21875q0.703125 -0.78125 1.96875 -0.78125q0.40625 0 0.8125 0.09375q0.421875 0.09375 0.65625 0.203125l-0.265625 0.734375q-0.28125 -0.109375 -0.625 -0.1875q-0.34375 -0.078125 -0.59375 -0.078125q-1.734375 0 -1.734375 2.21875q0 1.046875 0.421875 1.609375q0.421875 0.5625 1.25 0.5625q0.71875 0 1.46875 -0.296875l0 0.765625q-0.578125 0.296875 -1.453125 0.296875zm6.307541 -0.109375l-0.171875 -0.8125l-0.046875 0q-0.421875 0.53125 -0.84375 0.734375q-0.421875 0.1875 -1.0625 0.1875q-0.84375 0 -1.328125 -0.4375q-0.484375 -0.4375 -0.484375 -1.25q0 -1.71875 2.765625 -1.8125l0.96875 -0.03125l0 -0.34375q0 -0.671875 -0.296875 -0.984375q-0.28125 -0.328125 -0.921875 -0.328125q-0.703125 0 -1.609375 0.4375l-0.265625 -0.671875q0.421875 -0.21875 0.921875 -0.34375q0.515625 -0.140625 1.015625 -0.140625q1.015625 0 1.5 0.453125q0.5 0.453125 0.5 1.453125l0 3.890625l-0.640625 0zm-1.953125 -0.609375q0.8125 0 1.265625 -0.4375q0.46875 -0.453125 0.46875 -1.25l0 -0.5l-0.875 0.03125q-1.015625 0.03125 -1.484375 0.3125q-0.453125 0.28125 -0.453125 0.890625q0 0.46875 0.28125 0.71875q0.296875 0.234375 0.796875 0.234375zm5.2389984 0.609375l-0.859375 0l0 -8.09375l0.859375 0l0 8.09375z" fill-rule="nonzero"/><path fill="#000000" d="m102.738106 315.3296l-1.453125 0l0 5.03125l-0.859375 0l0 -5.03125l-1.015625 0l0 -0.390625l1.015625 -0.3125l0 -0.3125q0 -2.109375 1.828125 -2.109375q0.453125 0 1.0625 0.1875l-0.21875 0.6875q-0.5 -0.15625 -0.859375 -0.15625q-0.484375 0 -0.71875 0.328125q-0.234375 0.3125 -0.234375 1.03125l0 0.375l1.453125 0l0 0.671875zm2.296875 5.03125l-0.859375 0l0 -5.703125l0.859375 0l0 5.703125zm-0.9375 -7.25q0 -0.296875 0.140625 -0.4375q0.15625 -0.140625 0.375 -0.140625q0.203125 0 0.34375 0.140625q0.15625 0.140625 0.15625 0.4375q0 0.296875 -0.15625 0.4375q-0.140625 0.140625 -0.34375 0.140625q-0.21875 0 -0.375 -0.140625q-0.140625 -0.140625 -0.140625 -0.4375zm3.2438354 7.25l-0.859375 0l0 -8.09375l0.859375 0l0 8.09375zm4.242157 0.109375q-1.265625 0 -2.0 -0.765625q-0.734375 -0.78125 -0.734375 -2.140625q0 -1.390625 0.671875 -2.203125q0.6875 -0.8125 1.828125 -0.8125q1.078125 0 1.703125 0.71875q0.625 0.703125 0.625 1.859375l0 0.546875l-3.921875 0q0.015625 1.0 0.5 1.515625q0.484375 0.515625 1.359375 0.515625q0.921875 0 1.8125 -0.375l0 0.765625q-0.453125 0.203125 -0.859375 0.28125q-0.40625 0.09375 -0.984375 0.09375zm-0.234375 -5.1875q-0.6875 0 -1.09375 0.453125q-0.40625 0.4375 -0.484375 1.234375l2.984375 0q0 -0.828125 -0.375 -1.25q-0.359375 -0.4375 -1.03125 -0.4375zm7.478531 3.515625q0 0.796875 -0.59375 1.234375q-0.59375 0.4375 -1.65625 0.4375q-1.140625 0 -1.78125 -0.359375l0 -0.8125q0.421875 0.21875 0.890625 0.34375q0.46875 0.109375 0.90625 0.109375q0.671875 0 1.03125 -0.21875q0.375 -0.21875 0.375 -0.65625q0 -0.328125 -0.296875 -0.5625q-0.28125 -0.25 -1.125 -0.5625q-0.796875 -0.296875 -1.140625 -0.515625q-0.328125 -0.21875 -0.5 -0.5q-0.15625 -0.28125 -0.15625 -0.671875q0 -0.703125 0.5625 -1.109375q0.578125 -0.40625 1.5625 -0.40625q0.921875 0 1.796875 0.375l-0.296875 0.703125q-0.859375 -0.34375 -1.5625 -0.34375q-0.609375 0 -0.921875 0.1875q-0.3125 0.1875 -0.3125 0.53125q0 0.234375 0.109375 0.390625q0.125 0.15625 0.375 0.3125q0.265625 0.140625 1.0 0.421875q1.015625 0.359375 1.375 0.734375q0.359375 0.375 0.359375 0.9375zm0.5054474 -4.140625l0.921875 0l1.25 3.25q0.40625 1.109375 0.5 1.609375l0.046875 0q0.0625 -0.265625 0.28125 -0.90625q0.21875 -0.640625 1.421875 -3.953125l0.921875 0l-2.453125 6.5q-0.359375 0.953125 -0.84375 1.359375q-0.484375 0.40625 -1.203125 0.40625q-0.390625 0 -0.78125 -0.09375l0 -0.6875q0.296875 0.0625 0.640625 0.0625q0.890625 0 1.28125 -1.0l0.3125 -0.8125l-2.296875 -5.734375zm9.947868 4.140625q0 0.796875 -0.59375 1.234375q-0.59375 0.4375 -1.6562424 0.4375q-1.140625 0 -1.78125 -0.359375l0 -0.8125q0.421875 0.21875 0.890625 0.34375q0.46875 0.109375 0.90625 0.109375q0.671875 0 1.0312424 -0.21875q0.375 -0.21875 0.375 -0.65625q0 -0.328125 -0.296875 -0.5625q-0.28124237 -0.25 -1.1249924 -0.5625q-0.796875 -0.296875 -1.140625 -0.515625q-0.328125 -0.21875 -0.5 -0.5q-0.15625 -0.28125 -0.15625 -0.671875q0 -0.703125 0.5625 -1.109375q0.578125 -0.40625 1.5625 -0.40625q0.9218674 0 1.7968674 0.375l-0.296875 0.703125q-0.8593674 -0.34375 -1.5624924 -0.34375q-0.609375 0 -0.921875 0.1875q-0.3125 0.1875 -0.3125 0.53125q0 0.234375 0.109375 0.390625q0.125 0.15625 0.375 0.3125q0.265625 0.140625 1.0 0.421875q1.0156174 0.359375 1.3749924 0.734375q0.359375 0.375 0.359375 0.9375zm3.2398224 0.953125q0.234375 0 0.4375 -0.03125q0.21875 -0.03125 0.34375 -0.078125l0 0.671875q-0.140625 0.0625 -0.421875 0.109375q-0.265625 0.046875 -0.46875 0.046875q-1.65625 0 -1.65625 -1.75l0 -3.390625l-0.828125 0l0 -0.421875l0.828125 -0.359375l0.359375 -1.21875l0.5 0l0 1.328125l1.65625 0l0 0.671875l-1.65625 0l0 3.359375q0 0.515625 0.234375 0.796875q0.25 0.265625 0.671875 0.265625zm4.3400726 0.71875q-1.265625 0 -2.0 -0.765625q-0.734375 -0.78125 -0.734375 -2.140625q0 -1.390625 0.671875 -2.203125q0.6875 -0.8125 1.828125 -0.8125q1.078125 0 1.703125 0.71875q0.625 0.703125 0.625 1.859375l0 0.546875l-3.921875 0q0.015625 1.0 0.5 1.515625q0.484375 0.515625 1.359375 0.515625q0.921875 0 1.8125 -0.375l0 0.765625q-0.453125 0.203125 -0.859375 0.28125q-0.40625 0.09375 -0.984375 0.09375zm-0.234375 -5.1875q-0.6875 0 -1.09375 0.453125q-0.40625 0.4375 -0.484375 1.234375l2.984375 0q0 -0.828125 -0.375 -1.25q-0.359375 -0.4375 -1.03125 -0.4375zm11.072281 5.078125l0 -3.703125q0 -0.6875 -0.296875 -1.03125q-0.28125 -0.34375 -0.90625 -0.34375q-0.796875 0 -1.1875 0.46875q-0.390625 0.46875 -0.390625 1.421875l0 3.1875l-0.859375 0l0 -3.703125q0 -0.6875 -0.296875 -1.03125q-0.28125 -0.34375 -0.90625 -0.34375q-0.8125 0 -1.1875 0.5q-0.375 0.484375 -0.375 1.59375l0 2.984375l-0.859375 0l0 -5.703125l0.703125 0l0.140625 0.78125l0.03125 0q0.25 -0.421875 0.6875 -0.65625q0.453125 -0.234375 1.0 -0.234375q1.34375 0 1.75 0.96875l0.046875 0q0.25 -0.4375 0.734375 -0.703125q0.484375 -0.265625 1.109375 -0.265625q0.953125 0 1.4375 0.5q0.484375 0.5 0.484375 1.59375l0 3.71875l-0.859375 0z" fill-rule="nonzero"/></g></svg>